<?xml version="1.0" encoding="UTF-8"?>
<svg version="1.1" xmlns="http://www.w3.org/2000/svg" width="481" height="482">
<path d="M0 0 C17.46224169 2.30927119 31.64473532 10.22358827 42.6953125 23.90625 C48.00908725 31.716429 51.27480532 40.57158686 54.62890625 49.34765625 C54.88526855 50.01458496 55.14163086 50.68151367 55.40576172 51.36865234 C56.91386086 55.30619422 58.38732963 59.25579052 59.84326172 63.21289062 C60.6863953 65.5038664 61.53439137 67.79300865 62.3828125 70.08203125 C65.4568646 78.38812334 68.48078478 86.70859752 71.43359375 95.05859375 C73.06483984 99.54718592 74.82798896 103.98082349 76.61328125 108.41015625 C77.64377154 111.39065124 78.2018447 114.22825011 78.62890625 117.34765625 C79.43328125 117.43015625 80.23765625 117.51265625 81.06640625 117.59765625 C89.52724713 119.37888591 97.05539571 123.77595421 103.62890625 129.34765625 C103.62890625 130.00765625 103.62890625 130.66765625 103.62890625 131.34765625 C104.61890625 131.67765625 105.60890625 132.00765625 106.62890625 132.34765625 C108.25177121 134.48795641 109.70550843 136.5808718 111.12890625 138.84765625 C111.53109375 139.4833252 111.93328125 140.11899414 112.34765625 140.77392578 C119.12076565 151.7551636 119.77949647 162.44696974 119.77416992 175.11279297 C119.77920784 176.8460936 119.77920784 176.8460936 119.78434753 178.6144104 C119.79381463 182.41873257 119.79579843 186.22301054 119.796875 190.02734375 C119.79927689 192.01076776 119.8016807 193.99419178 119.80433542 195.97761548 C119.81245567 202.2088758 119.81492184 208.4401217 119.81420898 214.67138672 C119.81360846 221.0765777 119.82416088 227.48168439 119.83995265 233.88685405 C119.8530728 239.40729981 119.85839103 244.92771816 119.85775357 250.44817936 C119.85749994 253.73594308 119.86121173 257.02361538 119.87093163 260.31136703 C119.88076936 263.98222533 119.87783854 267.65286844 119.87182617 271.32373047 C119.87744568 272.39729797 119.88306519 273.47086548 119.88885498 274.57696533 C119.83689581 287.11166246 117.85572587 296.12083663 108.81640625 305.16015625 C99.97483872 311.22789867 92.40943306 312.50647509 81.62890625 311.34765625 C75.65689854 309.76359179 71.02110924 306.62723865 66.62890625 302.34765625 C66.62890625 301.68765625 66.62890625 301.02765625 66.62890625 300.34765625 C65.96890625 300.34765625 65.30890625 300.34765625 64.62890625 300.34765625 C59.62912175 292.34800105 58.69568834 285.94869505 57.62890625 276.34765625 C-34.77109375 276.34765625 -127.17109375 276.34765625 -222.37109375 276.34765625 C-223.85609375 284.76265625 -223.85609375 284.76265625 -225.37109375 293.34765625 C-229.49591182 301.12856307 -235.19037903 308.04784269 -243.875 310.875 C-253.02912396 312.60841001 -262.42283998 312.54956217 -270.37109375 307.34765625 C-277.05632657 302.75495565 -281.83995336 296.88984911 -283.49163818 288.83529663 C-284.57569542 282.97781228 -284.65222819 277.23786357 -284.62988281 271.29541016 C-284.63338745 270.13304337 -284.63689209 268.97067657 -284.64050293 267.77308655 C-284.64925607 263.95673529 -284.64349293 260.14057168 -284.63671875 256.32421875 C-284.63806742 253.65440646 -284.64000712 250.98459972 -284.64251709 248.31478882 C-284.64614417 242.72839352 -284.64139189 237.14205129 -284.63183594 231.55566406 C-284.62096448 225.12660541 -284.6244725 218.69767378 -284.63548875 212.26861823 C-284.64461045 206.72006868 -284.64582287 201.17155704 -284.64061141 195.62300241 C-284.63751701 192.32180079 -284.6378142 189.02067081 -284.64368439 185.71947098 C-284.64880169 182.032459 -284.64096601 178.34568575 -284.62988281 174.65869141 C-284.63393127 173.5861058 -284.63797974 172.5135202 -284.64215088 171.40843201 C-284.5535587 155.38297711 -280.89046671 142.20549785 -269.58984375 130.33984375 C-264.89722083 126.12639711 -259.65356512 122.2941253 -253.54223633 120.53198242 C-248.66924458 118.99229282 -245.32528541 117.82599875 -242.48486328 113.42529297 C-240.95371198 109.72333005 -239.70944965 105.99143827 -238.55859375 102.16015625 C-238.10932053 100.79023651 -237.65517557 99.42190534 -237.19628906 98.05517578 C-236.29784366 95.36787963 -235.41971302 92.67539552 -234.55810547 89.97607422 C-233.0873263 85.48024533 -231.40054637 81.1031602 -229.62109375 76.72265625 C-227.1863812 70.58844541 -224.96214932 64.39830453 -222.80859375 58.16015625 C-215.83690657 38.08285269 -208.68631412 18.19347877 -188.8984375 7.46484375 C-182.6290196 4.47940665 -182.6290196 4.47940665 -179.37109375 3.34765625 C-178.38109375 3.84265625 -178.38109375 3.84265625 -177.37109375 4.34765625 C-176.73046875 6.3515625 -176.73046875 6.3515625 -176.12109375 8.91015625 C-173.76584801 17.19494025 -168.90037887 22.06204448 -162.37109375 27.34765625 C-162.37109375 28.00765625 -162.37109375 28.66765625 -162.37109375 29.34765625 C-163.3146875 29.56808594 -163.3146875 29.56808594 -164.27734375 29.79296875 C-174.42418758 32.45193084 -180.81623505 37.48790388 -186.37109375 46.34765625 C-188.09676584 50.01566583 -189.46409594 53.77577107 -190.80859375 57.59765625 C-191.19055908 58.64888672 -191.57252441 59.70011719 -191.96606445 60.78320312 C-193.11729834 63.96584263 -194.24794133 67.1550101 -195.37109375 70.34765625 C-195.69787109 71.27384766 -196.02464844 72.20003906 -196.36132812 73.15429688 C-197.5211341 76.4489239 -198.68037599 79.74351033 -199.81225586 83.04785156 C-202.50493017 90.88392404 -205.45645647 98.57529016 -208.37109375 106.34765625 C-83.63109375 106.84265625 -83.63109375 106.84265625 43.62890625 107.34765625 C39.66890625 96.78765625 35.70890625 86.22765625 31.62890625 75.34765625 C27.25390625 62.59765625 27.25390625 62.59765625 25.3828125 57.12890625 C23.56412435 52.00799574 21.35274991 47.23680696 18.7578125 42.45703125 C17.62890625 40.34765625 17.62890625 40.34765625 16.62890625 37.34765625 C14.82958046 36.28048921 14.82958046 36.28048921 12.62890625 35.34765625 C11.94828125 34.85265625 11.26765625 34.35765625 10.56640625 33.84765625 C1.39522708 29.16450093 -10.27457928 29.79744236 -20.37109375 29.34765625 C-20.70109375 28.68765625 -21.03109375 28.02765625 -21.37109375 27.34765625 C-20.23212726 25.10588094 -19.04557766 22.99385502 -17.74609375 20.84765625 C-14.74555748 15.77349889 -11.9670856 10.68561709 -9.4765625 5.3359375 C-7.06404738 0.99682019 -5.06861536 -0.21469273 0 0 Z M48.62890625 149.34765625 C44.29469763 156.02157041 43.50481058 162.78739731 45.06640625 170.51171875 C47.17235164 177.32971694 51.83942494 181.65208918 57.81640625 185.28515625 C65.7447321 187.49468968 73.40257884 187.41246542 80.62890625 183.34765625 C83.00918916 181.92090452 83.00918916 181.92090452 84.62890625 180.34765625 C84.62890625 179.68765625 84.62890625 179.02765625 84.62890625 178.34765625 C85.28890625 178.34765625 85.94890625 178.34765625 86.62890625 178.34765625 C90.97210912 170.49499034 92.19355858 162.90055137 89.69140625 154.16015625 C87.1663536 148.41062323 82.05658989 143.7097243 76.25 141.40234375 C74.02641115 140.86808044 71.90560417 140.54243079 69.62890625 140.34765625 C68.61828125 140.24453125 67.60765625 140.14140625 66.56640625 140.03515625 C59.34099076 140.80381747 53.39282327 143.82392462 48.62890625 149.34765625 Z M-248.37109375 145.34765625 C-253.6130147 150.5895772 -256.22678678 157.22475885 -256.43359375 164.56640625 C-256.06982775 171.20513584 -253.4772798 176.13548485 -248.8828125 180.88671875 C-242.86243616 186.20705133 -237.3821501 186.80561388 -229.59765625 186.65625 C-223.18798525 186.04321851 -219.24448291 183.58506862 -214.99609375 178.84765625 C-209.3857207 171.95222568 -209.62758115 164.91181989 -210.37109375 156.34765625 C-212.20670437 150.34471341 -216.93495018 145.89792943 -222.12109375 142.59765625 C-231.63328604 138.93912076 -239.60083677 140.42440494 -248.37109375 145.34765625 Z M-165.37109375 211.34765625 C-168.0932712 214.8207792 -169.19837871 217.94342276 -169.37109375 222.34765625 C-168.46907591 226.87526034 -167.40408876 229.53905294 -163.70202732 232.43693638 C-160.00141431 234.55971508 -158.02106322 234.84808039 -153.79881287 234.84886169 C-152.4935968 234.85869583 -151.18838074 234.86852997 -149.84361267 234.87866211 C-148.40932964 234.86929144 -146.97504923 234.85951219 -145.54077148 234.84936523 C-144.0209198 234.8531508 -142.50107157 234.85865279 -140.98123169 234.86573792 C-136.86346673 234.87967786 -132.74612027 234.86853374 -128.62837863 234.8520267 C-124.31589363 234.83815823 -120.00343249 234.84463823 -115.69093323 234.84815979 C-108.45054391 234.8508602 -101.21032053 234.83739987 -93.9699707 234.81420898 C-85.60153736 234.78759023 -77.23338126 234.78585595 -68.86492008 234.79759735 C-60.80993064 234.80837904 -52.75504138 234.80218565 -44.70005989 234.78804207 C-41.27392264 234.78228666 -37.84785882 234.78236141 -34.4217205 234.78710747 C-30.38739186 234.79188232 -26.35336656 234.78175473 -22.31909561 234.76015282 C-20.83926097 234.75459204 -19.35939714 234.75411316 -17.87956047 234.75910568 C-15.85849724 234.76506872 -13.83740457 234.75070597 -11.81639099 234.7353363 C-10.68576957 234.73290641 -9.55514814 234.73047651 -8.39026546 234.72797298 C-4.05117263 234.18138943 -1.42096153 232.54233338 1.44140625 229.28515625 C3.20786525 224.9154945 3.53731786 220.98343929 2.62890625 216.34765625 C0.35045626 212.37111618 -2.00099954 209.80435432 -6.37109375 208.34765625 C-8.41223993 208.24981569 -10.45647167 208.21265283 -12.49995422 208.20721436 C-14.42418213 208.19864914 -14.42418213 208.19864914 -16.38728333 208.18991089 C-17.8119811 208.18866554 -19.23667899 208.18754044 -20.66137695 208.18652344 C-22.15945559 208.1818949 -23.65753305 208.17687019 -25.15560913 208.17147827 C-29.22801807 208.15835557 -33.30041052 208.15190955 -37.37283731 208.14746761 C-39.91720759 208.14453663 -42.46157337 208.14043176 -45.00594139 208.13596344 C-52.96692869 208.12228873 -60.92790569 208.112622 -68.88890392 208.10876155 C-78.07823097 208.10428097 -87.26740927 208.08673302 -96.45669109 208.05776095 C-103.55997437 208.03614317 -110.66321581 208.02605721 -117.76653165 208.02472043 C-122.00889026 208.02367245 -126.25110903 208.01776626 -130.493433 207.99990082 C-134.48499866 207.98341847 -138.47631938 207.98126535 -142.46790695 207.99003983 C-143.93121052 207.99081012 -145.39452726 207.98646842 -146.85779762 207.97658157 C-148.85891909 207.96385587 -150.86013903 207.97153284 -152.86128235 207.98016357 C-154.53955345 207.97796373 -154.53955345 207.97796373 -156.25172901 207.97571945 C-159.86532449 208.40658575 -162.26122304 209.48436275 -165.37109375 211.34765625 Z " fill="#010001" transform="translate(313.37109375,167.65234375)"/>
<path d="M0 0 C2.875 0.5 2.875 0.5 4.875 2.5 C5.0628075 5.02976535 5.12691906 7.44907405 5.10205078 9.97900391 C5.10234283 10.74982803 5.10263489 11.52065216 5.10293579 12.31483459 C5.10153974 14.86885745 5.08596579 17.42259046 5.0703125 19.9765625 C5.06658334 21.74490194 5.06373591 23.51324345 5.06173706 25.28158569 C5.05409293 29.94069095 5.03443778 34.59967194 5.0123291 39.25872803 C4.99188744 44.01100992 4.98273894 48.76331184 4.97265625 53.515625 C4.95119259 62.84380466 4.91704728 72.17189201 4.875 81.5 C6.16713158 81.49333817 6.16713158 81.49333817 7.48536682 81.48654175 C15.62120181 81.44639325 23.75700331 81.41597915 31.89291477 81.39637566 C36.07521875 81.38595836 40.25744056 81.37183685 44.43969727 81.34912109 C48.47917929 81.32731923 52.51858248 81.31541593 56.55811882 81.31024551 C58.09581683 81.30656291 59.63351074 81.29937178 61.171175 81.28853989 C63.33239032 81.27392711 65.49328389 81.2720261 67.65454102 81.27294922 C69.49653831 81.26628738 69.49653831 81.26628738 71.37574768 81.25949097 C75.1629692 81.51979257 78.31481858 82.18381825 81.875 83.5 C84.29070482 87.12355723 84.39030233 88.21072152 83.875 92.5 C82.59260753 95.83497257 80.97162847 98.96370773 79.3125 102.125 C78.62740356 103.46232178 78.62740356 103.46232178 77.9284668 104.82666016 C74.97172669 110.5489472 71.84047214 116.12392665 68.5234375 121.64453125 C66.05384984 125.92241889 63.90421658 130.34512799 61.74609375 134.78515625 C57.03125617 144.30971619 51.65990159 153.52507041 46.5 162.8125 C46.16774414 163.4110379 45.83548828 164.00957581 45.49316406 164.62625122 C41.99749695 170.92237667 38.49080335 177.2093982 34.875 183.4375 C32.23343996 188.06203184 29.66804395 192.71478226 27.16796875 197.41796875 C26.4876609 198.69345713 25.8073216 199.96892873 25.12695312 201.24438477 C23.76808206 203.79579421 22.41477252 206.35006201 21.06445312 208.90600586 C20.43234549 210.09621999 19.80018618 211.28640668 19.16796875 212.4765625 C18.6061792 213.53955566 18.04438965 214.60254883 17.46557617 215.69775391 C16.06605572 218.16340175 14.76554611 220.38859425 12.875 222.5 C9.875 223 9.875 223 6.875 222.5 C4.02730473 219.97177376 3.86436493 218.38203818 3.51855469 214.54638672 C3.51223906 212.92413847 3.52289398 211.30177078 3.546875 209.6796875 C3.54874817 208.78935822 3.55062134 207.89902893 3.55255127 206.98171997 C3.56269595 204.11254783 3.59399934 201.24401396 3.625 198.375 C3.63148596 196.56120204 3.63670397 194.74739907 3.640625 192.93359375 C3.71653901 175.44921715 4.31532568 157.97416798 4.875 140.5 C3.94427673 140.50666183 3.01355347 140.51332367 2.05462646 140.52018738 C-6.71491177 140.5809923 -15.48440725 140.62596962 -24.25410843 140.65543652 C-28.76275669 140.67109502 -33.27123481 140.69233662 -37.77978516 140.72631836 C-42.1304873 140.7589053 -46.48102576 140.77685162 -50.83184052 140.78463173 C-52.49204841 140.79017644 -54.15224731 140.8010039 -55.81238556 140.81719017 C-58.13716518 140.83895597 -60.46126775 140.84196734 -62.78613281 140.84057617 C-63.4730571 140.851362 -64.15998138 140.86214783 -64.86772156 140.8732605 C-67.85694384 140.85389464 -69.8839092 140.63216289 -72.52557373 139.18403625 C-75.09277652 136.4810279 -75.05592397 134.14951696 -75.125 130.5 C-74.0078125 127.31640625 -74.0078125 127.31640625 -72.25 124.0625 C-71.93047363 123.46034668 -71.61094727 122.85819336 -71.28173828 122.23779297 C-70.25099805 120.31252278 -69.1925148 118.40509585 -68.125 116.5 C-67.79177734 115.90074707 -67.45855469 115.30149414 -67.11523438 114.68408203 C-65.71479634 112.17077163 -64.30586449 109.66258608 -62.88305664 107.16186523 C-59.39627513 101.03013881 -56.03660312 94.83279663 -52.6875 88.625 C-48.55333932 80.96864125 -44.39248201 73.33004557 -40.15136719 65.73242188 C-37.48359161 60.95132448 -34.83389824 56.16054503 -32.1953125 51.36328125 C-31.84614273 50.72882584 -31.49697296 50.09437042 -31.13722229 49.44068909 C-29.02641411 45.60538491 -29.02641411 45.60538491 -26.91854858 41.76846313 C-22.94061479 34.52122469 -18.89710597 27.32123621 -14.69287109 20.20214844 C-13.05066478 17.37188691 -11.48683544 14.50699307 -9.9375 11.625 C-9.00039399 9.91645051 -8.06293822 8.20809277 -7.125 6.5 C-6.60486328 5.50033203 -6.60486328 5.50033203 -6.07421875 4.48046875 C-4.31324029 1.3860745 -3.59777493 0.57564399 0 0 Z " fill="#010101" transform="translate(226.125,36.5)"/>
<path d="M0 0 C0.99 0 1.98 0 3 0 C13.00736185 20.18156758 22.72030793 40.96003888 16.08984375 63.9375 C9.90193869 81.32573501 -0.35436948 93.47331759 -17.11621094 101.49047852 C-21.3971198 103.35918658 -25.71110419 105.13817097 -30.03515625 106.90429688 C-36.37312542 109.5780067 -40.969003 112.31952328 -46 117 C-46.66 117 -47.32 117 -48 117 C-48 117.66 -48 118.32 -48 119 C-48.66 119 -49.32 119 -50 119 C-50.4021875 120.3303125 -50.4021875 120.3303125 -50.8125 121.6875 C-51.92040153 124.77796215 -53.16534718 127.28790452 -55 130 C-55.33 130 -55.66 130 -56 130 C-57.86802402 112.73115574 -48.04502076 95.02305337 -37.6875 81.875 C-35.8202559 79.55869684 -33.91842697 77.27402225 -32 75 C-31.48872559 74.3925293 -30.97745117 73.78505859 -30.45068359 73.15917969 C-28.45581751 70.7937406 -26.46048606 68.42923157 -24.44018555 66.08544922 C-21.95684924 63.22490192 -21.95684924 63.22490192 -20 60 C-19.34 60 -18.68 60 -18 60 C-17.773125 59.484375 -17.54625 58.96875 -17.3125 58.4375 C-15.51782382 55.10452995 -13.50034985 51.85296329 -11 49 C-10.34 49 -9.68 49 -9 49 C-7.609883 46.09123087 -7.609883 46.09123087 -7 43 C-16.52823238 52.359302 -16.52823238 52.359302 -25.4765625 62.265625 C-26.9903754 63.98904277 -28.58620734 65.5471309 -30.25 67.125 C-38.64735322 75.44704064 -45.42660952 85.093017 -51.18310547 95.37695312 C-52.07295886 96.94684009 -53.0302186 98.47818918 -54 100 C-54.66 100 -55.32 100 -56 100 C-60.55848776 86.41570647 -59.01919628 70.27562565 -54 57 C-48.08730544 45.51160384 -38.27768561 38.95248672 -27.38818359 32.71972656 C-15.50016764 25.90179303 -5.76841171 19.37539486 -1 6 C-0.22777677 2.6414775 -0.22777677 2.6414775 0 0 Z M-5 39 C-4.67 39.66 -4.34 40.32 -4 41 C-3.67 40.34 -3.34 39.68 -3 39 C-3.66 39 -4.32 39 -5 39 Z " fill="#026538" transform="translate(440,2)"/>
<path d="M0 0 C2.1259738 3.1889607 2.92552222 5.90015435 3.92578125 9.55078125 C7.3963853 17.46375849 14.30154656 21.0589076 21.375 25.4375 C39.41783904 36.62268639 39.41783904 36.62268639 42.375 45.25 C42.81972656 46.49523438 42.81972656 46.49523438 43.2734375 47.765625 C43.51320313 48.50296875 43.75296875 49.2403125 44 50 C44.33 50.99 44.66 51.98 45 53 C45.0927629 54.60339791 45.13068464 56.21032864 45.1328125 57.81640625 C45.13474609 59.20956055 45.13474609 59.20956055 45.13671875 60.63085938 C45.13285156 61.59830078 45.12898438 62.56574219 45.125 63.5625 C45.13080078 65.01946289 45.13080078 65.01946289 45.13671875 66.50585938 C45.13542969 67.43333984 45.13414062 68.36082031 45.1328125 69.31640625 C45.13168457 70.16662354 45.13055664 71.01684082 45.12939453 71.89282227 C45 74 45 74 44 76 C43.01 76 42.02 76 41 76 C39.34375 73.578125 39.34375 73.578125 37.5 70.25 C33.88051442 63.99784842 29.59722385 58.92853114 24.61328125 53.73046875 C21.82910771 50.82144438 19.21755698 47.80420415 16.6328125 44.71875 C14.59415363 42.57279329 12.33914686 40.80788299 10 39 C11.29087824 40.5839762 12.58276822 42.16712785 13.875 43.75 C14.69742187 44.75933594 15.51984375 45.76867188 16.3671875 46.80859375 C18.05517645 48.86814077 19.76877941 50.89211941 21.5078125 52.91015625 C32.70435446 65.94938929 43.0963404 80.22802795 44 98 C40.51483438 96.83827813 40.53538354 96.44225593 38.8125 93.4375 C34.4798024 87.42105606 27.68542382 85.0172868 21.15332031 82.00439453 C6.11844208 74.99152729 -4.1183563 67.84386293 -10.8125 52.0625 C-15.84813998 37.0455022 -11.51017077 21.76845408 -5 8 C-3.45300746 5.19934078 -1.82613765 2.63178662 0 0 Z " fill="#87BA43" transform="translate(333,8)"/>
<path d="M0 0 C1.06089844 0.06123047 2.12179688 0.12246094 3.21484375 0.18554688 C5.81123082 0.33758756 8.40558894 0.50524007 11 0.6875 C5.55128546 19.12602183 5.55128546 19.12602183 -0.05078125 22.5546875 C-1.84894173 23.40758548 -3.64793326 24.26006042 -5.47045898 25.05957031 C-11.90309652 27.91025421 -16.76700101 31.9778009 -22 36.6875 C-24 35.3125 -24 35.3125 -26 33.6875 C-26 33.0275 -26 32.3675 -26 31.6875 C-26.66 31.6875 -27.32 31.6875 -28 31.6875 C-30.44552037 25.57369908 -30.82944148 20.41977781 -28.9375 14.1875 C-25.74000559 7.67297868 -21.37928013 2.61260683 -14.40112305 0.20556641 C-9.62324951 -0.82530778 -4.84124679 -0.34234098 0 0 Z " fill="#040304" transform="translate(56,254.3125)"/>
<path d="M0 0 C25.49136819 -0.91467785 25.49136819 -0.91467785 32.84765625 5.6484375 C38.31441308 11.56752646 39.46323154 17.1046147 39.31640625 25.04296875 C38.84831858 29.41756589 37.79571896 31.59980127 35 35 C32.609375 35.8984375 32.609375 35.8984375 30 36 C27.96484375 34.55859375 27.96484375 34.55859375 25.9375 32.4375 C20.52694127 27.25389424 14.02692811 23.57205752 6.8515625 21.328125 C3.7460577 19.10054771 2.91543102 15.60259912 1.6875 12.125 C1.41099609 11.40441406 1.13449219 10.68382812 0.84960938 9.94140625 C-0.52330663 6.18577204 -1.22689758 3.81009004 0 0 Z " fill="#030303" transform="translate(396,254)"/>
<path d="M0 0 C1 3 1 3 0.25 5.5 C-0.97539969 7.95079939 -2.08574033 9.10455369 -4 11 C-4.92044862 12.21084367 -5.81685748 13.44036342 -6.6875 14.6875 C-7.34298828 15.62142578 -7.34298828 15.62142578 -8.01171875 16.57421875 C-8.33785156 17.04472656 -8.66398437 17.51523437 -9 18 C-9.99 17.67 -10.98 17.34 -12 17 C-11.67 16.34 -11.34 15.68 -11 15 C-10.34 15 -9.68 15 -9 15 C-7.609883 12.09123087 -7.609883 12.09123087 -7 9 C-16.46894995 18.30307087 -16.46894995 18.30307087 -25.3671875 28.14453125 C-28.40485309 31.59642396 -31.71181285 34.78867957 -35 38 C-35.57421875 36.1328125 -35.57421875 36.1328125 -36 34 C-34.16740152 30.72061325 -32.26597591 29.63298795 -29 28 C-28.67 27.01 -28.34 26.02 -28 25 C-25.9375 23.8125 -25.9375 23.8125 -24 23 C-24 22.34 -24 21.68 -24 21 C-23.01 21 -22.02 21 -21 21 C-20.34 19.68 -19.68 18.36 -19 17 C-18.34 17 -17.68 17 -17 17 C-17 15.68 -17 14.36 -17 13 C-15.68 13 -14.36 13 -13 13 C-12.773125 12.46375 -12.54625 11.9275 -12.3125 11.375 C-10.56617944 8.21499137 -8.3597151 5.7323017 -6 3 C-6.33 2.34 -6.66 1.68 -7 1 C-5.35 1 -3.7 1 -2 1 C-2.33 1.99 -2.66 2.98 -3 4 C-2.34 4 -1.68 4 -1 4 C-0.67 2.68 -0.34 1.36 0 0 Z M-5 5 C-4.67 5.66 -4.34 6.32 -4 7 C-3.67 6.34 -3.34 5.68 -3 5 C-3.66 5 -4.32 5 -5 5 Z " fill="#0B5331" transform="translate(440,36)"/>
<path d="M0 0 C-2.78956493 1.85970995 -5.51174063 3.08918313 -8.59912109 4.36108398 C-15.37222662 7.1602755 -20.6961169 9.82239983 -26 15 C-26.66 15 -27.32 15 -28 15 C-28 15.66 -28 16.32 -28 17 C-28.66 17 -29.32 17 -30 17 C-30.4021875 18.3303125 -30.4021875 18.3303125 -30.8125 19.6875 C-31.92040153 22.77796215 -33.16534718 25.28790452 -35 28 C-35.33 28 -35.66 28 -36 28 C-37.00931371 18.66945547 -34.01327888 10.6739385 -31 2 C-30.67 2 -30.34 2 -30 2 C-29 9.625 -29 9.625 -29 13 C-28.01 13 -27.02 13 -26 13 C-26 12.34 -26 11.68 -26 11 C-24.28340568 9.64196324 -22.46815118 8.50169742 -20.62890625 7.31640625 C-18.70046284 5.99986714 -18.70046284 5.99986714 -18 3 C-15.37886292 3 -13.49064888 3.31292445 -11 4 C-11 3.34 -11 2.68 -11 2 C-7.17010894 0.19769832 -4.21878192 -0.19622241 0 0 Z " fill="#14593A" transform="translate(420,104)"/>
<path d="M0 0 C3.99877323 3.64087959 6.30216949 7.00066989 8.6875 11.9375 C9.26886719 13.12214844 9.85023438 14.30679688 10.44921875 15.52734375 C12.57208653 20.28107034 14.15259282 24.67852105 14.625 29.875 C14.69976562 30.65617187 14.77453125 31.43734375 14.8515625 32.2421875 C14.90054688 32.82226562 14.94953125 33.40234375 15 34 C11.51483438 32.83827813 11.53538354 32.44225593 9.8125 29.4375 C5.4817449 23.36135241 -1.33547888 20.93850591 -7.93652344 17.95117188 C-11.33374243 16.38520344 -14.66188151 14.68772881 -18 13 C-12.8537 11.28456667 -7.738177 14.58826701 -3 16.8125 C0.7177502 18.71170573 3.95663719 21.06341167 7.23828125 23.6328125 C8.77405768 24.82465673 10.38250153 25.92166768 12 27 C9.69400633 18.58008889 6.35944646 11.84631085 1.609375 4.6171875 C0 2 0 2 0 0 Z " fill="#7C994B" transform="translate(362,72)"/>
<path d="M0 0 C0.99 0 1.98 0 3 0 C3.495 1.98 3.495 1.98 4 4 C3.01 4 2.02 4 1 4 C0.87625 5.051875 0.7525 6.10375 0.625 7.1875 C0.08859218 10.45958771 -0.63880035 13.00536076 -2 16 C-2.66 16 -3.32 16 -4 16 C-4.33 17.32 -4.66 18.64 -5 20 C-5.66 20 -6.32 20 -7 20 C-7 20.66 -7 21.32 -7 22 C-13.23284093 28.12252516 -20.83258588 32.91137346 -29 36 C-29.66 35.67 -30.32 35.34 -31 35 C-29.94941406 34.3709375 -28.89882813 33.741875 -27.81640625 33.09375 C-10.73992035 23.1413628 -10.73992035 23.1413628 -1.32421875 6.49609375 C-0.82742769 4.33657344 -0.38388342 2.18207418 0 0 Z " fill="#0E4F32" transform="translate(440,2)"/>
<path d="M0 0 C3.37563145 3.81052875 4.85644777 8.30884028 6.625 13 C6.93695313 13.80695312 7.24890625 14.61390625 7.5703125 15.4453125 C9.64454484 20.86335043 11.13954868 25.39430066 11.0625 31.25 C11.05347656 32.14203125 11.04445313 33.0340625 11.03515625 33.953125 C11.02355469 34.62859375 11.01195312 35.3040625 11 36 C10.67 36 10.34 36 10 36 C9.87882812 35.40832031 9.75765625 34.81664062 9.6328125 34.20703125 C8.72744944 29.93789621 7.66507747 26.04375957 6 22 C6 21.01 6 20.02 6 19 C5.34 19 4.68 19 4 19 C3.96261719 18.41992188 3.92523438 17.83984375 3.88671875 17.2421875 C3.45549329 12.1182144 2.45276187 8.58559828 0 4 C0 2.68 0 1.36 0 0 Z " fill="#0B5734" transform="translate(446,10)"/>
<path d="M0 0 C1 3 1 3 0 6 C-0.19136746 9.06187933 -0.31682215 12.12161649 -0.42578125 15.1875 C-1 18 -1 18 -3.04296875 19.875 C-4.01169922 20.431875 -4.01169922 20.431875 -5 21 C-6.30104317 16.57479584 -5.59924629 13.71499744 -4.1875 9.375 C-3.83042969 8.24835937 -3.47335937 7.12171875 -3.10546875 5.9609375 C-2 3 -2 3 0 0 Z " fill="#0F5B38" transform="translate(389,54)"/>
<path d="M0 0 C10.14295644 4.91721272 20.4879031 11.21020306 25 22 C25.54845108 24.69933314 25.8063785 27.24089359 26 30 C23.7951908 27.7951908 23.50215392 26.68875155 22.6875 23.75 C19.67061619 14.30518286 12.27345953 9.66322264 4 5 C1.5625 3.375 1.5625 3.375 0 2 C0 1.34 0 0.68 0 0 Z " fill="#85A253" transform="translate(351,32)"/>
<path d="M0 0 C0.33 0 0.66 0 1 0 C1.04898437 1.25296875 1.09796875 2.5059375 1.1484375 3.796875 C1.22348583 5.44793821 1.29903277 7.09897881 1.375 8.75 C1.4059375 9.575 1.436875 10.4 1.46875 11.25 C1.52675781 12.44882813 1.52675781 12.44882813 1.5859375 13.671875 C1.6173584 14.4050293 1.6487793 15.13818359 1.68115234 15.89355469 C2.03772523 18.24922918 2.83662883 19.93450591 4 22 C4.28875 21.401875 4.5775 20.80375 4.875 20.1875 C6 18 6 18 8 15 C8.66 15 9.32 15 10 15 C8.43358249 19.30764815 6.31663844 23.06171464 4 27 C3.34 27 2.68 27 2 27 C-0.06189931 21.08218663 -0.24167838 15.79581786 -0.125 9.5625 C-0.11597656 8.64017578 -0.10695313 7.71785156 -0.09765625 6.76757812 C-0.0742766 4.51144191 -0.04150916 2.25586316 0 0 Z " fill="#185136" transform="translate(382,75)"/>
<path d="M0 0 C3.23772838 1.07924279 3.86999864 1.75143068 5.9375 4.3125 C8.1728826 7.02171682 10.46464284 9.56215658 13 12 C12.67 12.66 12.34 13.32 12 14 C10.02 12.02 8.04 10.04 6 8 C6.66 9.65 7.32 11.3 8 13 C7.01 13 6.02 13 5 13 C3.65678709 10.6717643 2.32322032 8.33953402 1 6 C0.566875 5.236875 0.13375 4.47375 -0.3125 3.6875 C-0.539375 3.130625 -0.76625 2.57375 -1 2 C-0.67 1.34 -0.34 0.68 0 0 Z " fill="#80A046" transform="translate(337,38)"/>
<path d="M0 0 C0.33 0 0.66 0 1 0 C1.09796875 1.03898437 1.1959375 2.07796875 1.296875 3.1484375 C2.06066943 10.50470498 2.9104976 17.11550999 6.09765625 23.88671875 C7.10050977 26.23539301 7.5732977 28.48817511 8 31 C2.22949774 26.00564717 -0.11679282 17.41511436 -0.875 10.0625 C-1.12157925 6.5085426 -0.80689779 3.46966049 0 0 Z " fill="#84A151" transform="translate(321,40)"/>
<path d="M0 0 C6.08941249 5.89297983 12.02089106 12.13390391 17 19 C16.67 19.66 16.34 20.32 16 21 C14.68 20.67 13.36 20.34 12 20 C12 19.01 12 18.02 12 17 C11.0206121 15.97980427 10.02104551 14.97850195 9 14 C9 13.34 9 12.68 9 12 C8.01 11.67 7.02 11.34 6 11 C6 10.34 6 9.68 6 9 C5.38125 8.401875 4.7625 7.80375 4.125 7.1875 C1.878516 4.87494294 1.0093366 3.02800981 0 0 Z " fill="#85A54F" transform="translate(345,51)"/>
<path d="M0 0 C0.33 0.99 0.66 1.98 1 3 C-0.1796875 4.97265625 -0.1796875 4.97265625 -1.875 7.0625 C-4.16160469 9.88748028 -4.16160469 9.88748028 -6 13 C-6.66 13 -7.32 13 -8 13 C-8 13.66 -8 14.32 -8 15 C-9.62626404 16.38232443 -11.2925002 17.71937515 -13 19 C-13.66 18.67 -14.32 18.34 -15 18 C-13.71580959 16.32756598 -12.42242815 14.66218553 -11.125 13 C-10.04605469 11.6078125 -10.04605469 11.6078125 -8.9453125 10.1875 C-8.30335938 9.465625 -7.66140625 8.74375 -7 8 C-6.34 8 -5.68 8 -5 8 C-4.731875 7.4225 -4.46375 6.845 -4.1875 6.25 C-2.98280141 3.9674132 -1.59201885 2.0262058 0 0 Z " fill="#0F5132" transform="translate(427,54)"/>
<path d="M0 0 C0.99 1.051875 0.99 1.051875 2 2.125 C5.34985941 5.49416695 9.15652564 8.22468725 13 11 C12.67 11.66 12.34 12.32 12 13 C11.01 13 10.02 13 9 13 C9 12.34 9 11.68 9 11 C6.69 10.34 4.38 9.68 2 9 C1.34 6.03 0.68 3.06 0 0 Z " fill="#8BAF55" transform="translate(337,20)"/>
<path d="M0 0 C0.33 0 0.66 0 1 0 C2.125 7.75 2.125 7.75 1 10 C0.34 10 -0.32 10 -1 10 C-1 10.99 -1 11.98 -1 13 C-3.5 14.6875 -3.5 14.6875 -6 16 C-4.43551329 10.3856009 -2.83604813 5.13189662 0 0 Z " fill="#8DB152" transform="translate(329,14)"/>
<path d="M0 0 C0.66 0 1.32 0 2 0 C2 0.66 2 1.32 2 2 C3.3921875 2.3403125 3.3921875 2.3403125 4.8125 2.6875 C8.59282955 4.24410629 9.08656855 5.52103373 11 9 C13.06700655 10.32793606 13.06700655 10.32793606 15 11 C15 11.66 15 12.32 15 13 C9.69524551 11.5080378 5.74178021 7.91524022 2 4 C0.76171875 1.7734375 0.76171875 1.7734375 0 0 Z " fill="#85A452" transform="translate(329,71)"/>
<path d="M0 0 C0.99 0.66 1.98 1.32 3 2 C1.37660195 3.70884005 -0.29319053 5.37446717 -2 7 C-2.66 7 -3.32 7 -4 7 C-4.66 8.98 -5.32 10.96 -6 13 C-6.66 13 -7.32 13 -8 13 C-8 13.66 -8 14.32 -8 15 C-8.66 15 -9.32 15 -10 15 C-10 15.66 -10 16.32 -10 17 C-10.66 16.67 -11.32 16.34 -12 16 C-10.75153512 14.26972464 -9.50115598 12.54083043 -8.25 10.8125 C-7.55390625 9.84957031 -6.8578125 8.88664062 -6.140625 7.89453125 C-4.15434805 5.20870786 -2.10500812 2.59333207 0 0 Z " fill="#125437" transform="translate(411,73)"/>
<path d="M0 0 C0.73828125 1.6796875 0.73828125 1.6796875 1 4 C-0.58203125 6.5078125 -0.58203125 6.5078125 -2.8125 9.125 C-3.54082031 9.99382812 -4.26914062 10.86265625 -5.01953125 11.7578125 C-6.30322213 13.211143 -7.62886328 14.62886328 -9 16 C-8.64853556 10.55230126 -8.64853556 10.55230126 -8 8 C-6 6.625 -6 6.625 -4 6 C-3.67 5.34 -3.34 4.68 -3 4 C-2.34 4 -1.68 4 -1 4 C-0.67 2.68 -0.34 1.36 0 0 Z " fill="#0E5432" transform="translate(402,73)"/>
<path d="M0 0 C0.99 0.495 0.99 0.495 2 1 C2 2.98 2 4.96 2 7 C2.99 6.67 3.98 6.34 5 6 C4.46274105 9.37705625 3.88935377 12.696686 3 16 C2.34 16 1.68 16 1 16 C0.67 10.72 0.34 5.44 0 0 Z " fill="#88B64F" transform="translate(321,36)"/>
<path d="M0 0 C1.90318884 2.85478326 2.4619099 4.41941308 3.125 7.6875 C3.29257812 8.49574219 3.46015625 9.30398437 3.6328125 10.13671875 C3.75398438 10.75160156 3.87515625 11.36648437 4 12 C3.34 12 2.68 12 2 12 C1.67 11.01 1.34 10.02 1 9 C-0.99665314 7.31461399 -0.99665314 7.31461399 -3 6 C-1.125 1.125 -1.125 1.125 0 0 Z " fill="#8CA85A" transform="translate(333,8)"/>
<path d="M0 0 C1.85776765 3.13498292 2.20140476 5.37471432 2 9 C0.68 9 -0.64 9 -2 9 C-2.33 9.66 -2.66 10.32 -3 11 C-3.66 11 -4.32 11 -5 11 C-3.77472971 6.94718288 -2.30119506 3.55639236 0 0 Z " fill="#0F5A39" transform="translate(395,95)"/>
<path d="M0 0 C0.598125 0.309375 1.19625 0.61875 1.8125 0.9375 C4.08956772 2.10209704 4.08956772 2.10209704 7 3 C7.34342449 4.33076989 7.67619874 5.66431979 8 7 C8.99 7.66 9.98 8.32 11 9 C11 9.66 11 10.32 11 11 C11.66 11 12.32 11 13 11 C13.33 12.32 13.66 13.64 14 15 C8.79814679 10.75358921 4.15632577 6.29331458 0 1 C0 0.67 0 0.34 0 0 Z " fill="#82A34B" transform="translate(350,52)"/>
<path d="M0 0 C0.33 0.99 0.66 1.98 1 3 C1.66 3 2.32 3 3 3 C2.37240135 5.92879371 1.41377341 8.36095629 0 11 C-0.33 11 -0.66 11 -1 11 C-1.02688151 9.35425434 -1.04634123 7.70838587 -1.0625 6.0625 C-1.07410156 5.14597656 -1.08570313 4.22945313 -1.09765625 3.28515625 C-1 1 -1 1 0 0 Z " fill="#23523E" transform="translate(385,121)"/>
<path d="M0 0 C5.77378925 0.4811491 9.95859836 2.18467181 15 5 C15 5.66 15 6.32 15 7 C9.76727367 5.36041242 4.84803364 3.61047965 0 1 C0 0.67 0 0.34 0 0 Z " fill="#839D54" transform="translate(344,84)"/>
<path d="M0 0 C0 4.35251187 -2.06165511 5.92809398 -5 9 C-7.3125 9.875 -7.3125 9.875 -9 10 C-6.68116787 5.49115974 -3.93548431 3.06093224 0 0 Z " fill="#100D0E" transform="translate(117,180)"/>
<path d="M0 0 C0 0.99 0 1.98 0 3 C-0.66 3 -1.32 3 -2 3 C-2.04125 3.61875 -2.0825 4.2375 -2.125 4.875 C-2.41375 5.57625 -2.7025 6.2775 -3 7 C-6.0625 8.25 -6.0625 8.25 -9 9 C-8.06725891 7.87105124 -7.12859878 6.74699124 -6.1875 5.625 C-5.66542969 4.99851562 -5.14335937 4.37203125 -4.60546875 3.7265625 C-3 2 -3 2 0 0 Z " fill="#125639" transform="translate(401,42)"/>
<path d="M0 0 C0.33 0.66 0.66 1.32 1 2 C0.22265625 3.9453125 0.22265625 3.9453125 -0.9375 6.125 C-1.31777344 6.84945312 -1.69804687 7.57390625 -2.08984375 8.3203125 C-2.39019531 8.87460938 -2.69054687 9.42890625 -3 10 C-3.66 9.34 -4.32 8.68 -5 8 C-3.35 5.36 -1.7 2.72 0 0 Z " fill="#115737" transform="translate(454,67)"/>
<path d="M0 0 C2.475 0.99 2.475 0.99 5 2 C5 2.66 5 3.32 5 4 C0.375 6.125 0.375 6.125 -3 5 C-2.01 4.34 -1.02 3.68 0 3 C0 2.01 0 1.02 0 0 Z " fill="#105636" transform="translate(401,107)"/>
<path d="M0 0 C0.66 0.33 1.32 0.66 2 1 C0.35 2.98 -1.3 4.96 -3 7 C-4.32 6.67 -5.64 6.34 -7 6 C-4.69 4.02 -2.38 2.04 0 0 Z " fill="#171416" transform="translate(50,293)"/>
<path d="M0 0 C0.66 1.32 1.32 2.64 2 4 C1.34 4 0.68 4 0 4 C0.33 5.65 0.66 7.3 1 9 C-0.32 9.33 -1.64 9.66 -3 10 C-2.01 6.7 -1.02 3.4 0 0 Z " fill="#1B1819" transform="translate(98,206)"/>
<path d="M0 0 C0.66 0 1.32 0 2 0 C2.99 2.64 3.98 5.28 5 8 C4.01 8 3.02 8 2 8 C0.93224776 6.03533587 -0.06553465 4.03144641 -1 2 C-0.67 1.34 -0.34 0.68 0 0 Z " fill="#8FA551" transform="translate(340,43)"/>
</svg>
