<?xml version="1.0" encoding="UTF-8"?>
<svg version="1.1" xmlns="http://www.w3.org/2000/svg" width="483" height="484">
<path d="M0 0 C4.38232481 1.51695859 7.83934468 3.31394646 11.453125 6.1953125 C12.10410156 6.69804687 12.75507813 7.20078125 13.42578125 7.71875 C27.09152167 18.93571613 33.72232739 34.26108855 39.42453003 50.52877808 C40.42136963 53.37069492 41.43955177 56.20483705 42.45619202 59.03971863 C42.98637156 60.51856112 43.51561435 61.99773977 44.04393005 63.47724915 C46.68102016 70.85836796 49.380462 78.21559953 52.11904907 85.55963135 C52.6260838 86.92200516 53.13085373 88.28522441 53.63314819 89.64935303 C56.2457073 96.74371962 58.98206539 103.64681274 62.55493164 110.32446289 C63.453125 112.1953125 63.453125 112.1953125 63.453125 114.1953125 C64.51466797 114.36546875 64.51466797 114.36546875 65.59765625 114.5390625 C77.19780849 117.20503456 87.15960865 125.08846379 93.828125 134.7578125 C94.72685083 136.22268482 95.60334392 137.70151494 96.453125 139.1953125 C96.84242188 139.86433594 97.23171875 140.53335938 97.6328125 141.22265625 C101.66743292 148.65872674 102.74549465 156.38752143 102.7878418 164.75219727 C102.79949371 165.55732758 102.81114563 166.36245789 102.82315063 167.19198608 C102.85893894 169.8402106 102.88100406 172.48834136 102.90234375 175.13671875 C102.92368116 177.02343953 102.94565196 178.91015323 102.96821594 180.79685974 C103.01357448 184.76517218 103.05232259 188.73347747 103.08618164 192.7019043 C103.12880962 197.6575065 103.18585771 202.61280422 103.24754143 207.56820107 C103.48145232 226.68305084 103.59458534 245.80287547 103.26496315 264.9172802 C103.23715267 266.63814349 103.21546521 268.35911862 103.20044518 270.08014107 C103.08229917 282.20677214 101.89808882 291.21648303 93.390625 300.40234375 C85.62266017 307.59084346 78.02784539 308.73615054 67.76953125 308.53515625 C59.54987798 308.10591759 53.36367752 304.05137387 47.91796875 298.0546875 C43.63281288 292.61539631 42.26336834 287.79980503 41.34765625 280.91796875 C41.09205933 279.02896851 41.09205933 279.02896851 40.83129883 277.10180664 C40.70650146 276.14266357 40.5817041 275.18352051 40.453125 274.1953125 C38.65447164 274.19669519 38.65447164 274.19669519 36.81948185 274.19810581 C8.15400954 274.2199108 -20.51146263 274.23632571 -49.17694136 274.24637783 C-52.72920767 274.24762807 -56.28147395 274.24892244 -59.83374023 274.25024414 C-60.54073305 274.25050645 -61.24772587 274.25076876 -61.97614271 274.25103902 C-73.32306733 274.25535345 -84.66998673 274.2632169 -96.01690828 274.2724653 C-107.71838435 274.28192089 -119.41985774 274.28739285 -131.12133747 274.28940099 C-137.66920311 274.29063278 -144.21705918 274.29364522 -150.76492119 274.30104256 C-180.70825682 274.33359805 -210.6169655 274.13744222 -240.546875 273.1953125 C-240.53599854 273.93644287 -240.52512207 274.67757324 -240.51391602 275.44116211 C-240.50122681 276.91081421 -240.50122681 276.91081421 -240.48828125 278.41015625 C-240.47740479 279.37816162 -240.46652832 280.34616699 -240.45532227 281.34350586 C-240.72277301 289.67441819 -244.31937474 295.06582424 -250.05078125 300.953125 C-257.85716222 307.96542966 -265.35448731 309.10509177 -275.5390625 308.6171875 C-280.47685191 308.20857452 -284.40343758 306.93326674 -288.546875 304.1953125 C-289.5575 303.5559375 -290.568125 302.9165625 -291.609375 302.2578125 C-293.01138306 300.91653442 -293.01138306 300.91653442 -294.546875 299.1953125 C-295.20916107 298.47640839 -295.87144714 297.75750427 -296.55380249 297.01681519 C-305.20670442 285.61288214 -303.59219381 272.47256635 -303.3984375 258.765625 C-303.3885724 256.08481997 -303.38168687 253.40416314 -303.37850952 250.72335815 C-303.36567279 245.12001131 -303.32342115 239.51754684 -303.26025391 233.91455078 C-303.17977702 226.76770841 -303.14487079 219.62143999 -303.12563515 212.4741993 C-303.10711845 205.6129191 -303.06593457 198.75179164 -303.0234375 191.890625 C-303.016646 190.59939854 -303.00985451 189.30817207 -303.00285721 187.97781754 C-302.76891081 151.07409209 -302.76891081 151.07409209 -296.546875 140.1953125 C-296.07507813 139.31359375 -295.60328125 138.431875 -295.1171875 137.5234375 C-290.3941549 129.34287385 -283.95775074 121.6250857 -274.59472656 118.92724609 C-268.68937498 117.11612143 -263.47450623 115.04296421 -259.90545654 109.77047729 C-256.12376263 102.35673294 -253.70549265 94.41175784 -251.171875 86.5078125 C-250.33048469 84.04748734 -249.48255289 81.58938978 -248.62817383 79.13354492 C-246.96432004 74.32897917 -245.33035303 69.51618662 -243.72607422 64.69140625 C-241.07094325 56.72817726 -238.20298139 48.85847287 -235.234375 41.0078125 C-234.84523926 39.92733643 -234.45610352 38.84686035 -234.05517578 37.73364258 C-227.7316219 20.71345456 -217.00461994 8.75854347 -200.546875 1.1953125 C-197.12109375 0.4765625 -197.12109375 0.4765625 -194.546875 0.1953125 C-194.36511719 0.77539062 -194.18335938 1.35546875 -193.99609375 1.953125 C-190.32072271 13.56563532 -190.32072271 13.56563532 -181.796875 21.7578125 C-181.054375 22.2321875 -180.311875 22.7065625 -179.546875 23.1953125 C-179.546875 24.5153125 -179.546875 25.8353125 -179.546875 27.1953125 C-180.27132812 27.36546875 -180.99578125 27.535625 -181.7421875 27.7109375 C-190.13841306 29.81559137 -196.76681016 32.57787775 -201.546875 40.1953125 C-206.42799523 50.55120271 -210.11242363 61.54018476 -214.109375 72.2578125 C-214.77519813 74.03718142 -215.44121262 75.81647874 -216.10742188 77.59570312 C-216.75537804 79.32806153 -217.40317004 81.06048135 -218.05078125 82.79296875 C-218.34255753 83.57350113 -218.6343338 84.35403351 -218.93495178 85.15821838 C-220.52752403 89.42908047 -222.1000813 93.70671902 -223.65635681 97.99095154 C-224.18952216 99.45833346 -224.18952216 99.45833346 -224.73345852 100.95535946 C-225.00188596 101.69454396 -225.2703134 102.43372847 -225.546875 103.1953125 C-224.98858694 103.18181291 -224.43029888 103.16831331 -223.855093 103.15440464 C-174.20048813 101.97678877 -124.56757648 102.23590796 -74.90400481 102.56866801 C-63.92590953 102.64194014 -52.94776969 102.70706962 -41.96962094 102.77174652 C-19.49531498 102.90432279 2.97892173 103.04639554 25.453125 103.1953125 C24.51212476 100.35731166 23.569885 97.5197321 22.62695312 94.68237305 C22.23265106 93.49254444 22.23265106 93.49254444 21.8303833 92.27867889 C18.05648034 80.93137747 13.87075877 69.73310685 9.69384766 58.52929688 C8.65941674 55.74964544 7.63847887 52.96559475 6.62109375 50.1796875 C3.09548244 40.65798652 3.09548244 40.65798652 -3.546875 33.1953125 C-4.15015625 32.70546875 -4.7534375 32.215625 -5.375 31.7109375 C-12.29269371 27.28162282 -20.00844101 27.56891189 -27.96679688 27.47119141 C-28.89943359 27.45878418 -29.83207031 27.44637695 -30.79296875 27.43359375 C-31.63529053 27.43399658 -32.4776123 27.43439941 -33.34545898 27.43481445 C-35.546875 27.1953125 -35.546875 27.1953125 -38.546875 25.1953125 C-36.37602043 19.50449916 -33.45688439 14.2849052 -30.546875 8.9453125 C-29.72703125 7.41777344 -29.72703125 7.41777344 -28.890625 5.859375 C-28.3646875 4.89257812 -27.83875 3.92578125 -27.296875 2.9296875 C-26.81734375 2.04506836 -26.3378125 1.16044922 -25.84375 0.24902344 C-21.19097041 -7.11904544 -6.83682504 -2.05947503 0 0 Z M-267.921875 145.5703125 C-272.22551023 151.1135818 -273.07215104 156.47011447 -272.921875 163.3828125 C-271.9703296 170.51940298 -267.79191052 175.53255904 -262.390625 180.00390625 C-256.70072476 183.68064263 -251.1395459 183.9185591 -244.546875 183.1953125 C-236.99165985 181.11927077 -232.05417258 175.33780415 -228.109375 168.8203125 C-226.60337306 161.79230346 -226.76331735 154.4594808 -230.546875 148.1953125 C-235.11234675 142.62187946 -239.21994443 138.67177348 -246.59765625 137.859375 C-255.71158502 137.75022615 -261.62457986 138.75956884 -267.921875 145.5703125 Z M31.7109375 147.1484375 C28.1490002 152.94488205 26.69756039 159.31078479 27.82421875 166.03515625 C29.99361341 173.48655531 34.93368545 178.25364298 41.453125 182.1953125 C47.54590781 184.2262401 54.91563891 184.30887003 60.828125 181.6328125 C66.88561326 178.04365625 70.83410666 172.82854795 72.984375 166.16015625 C74.76140191 158.71145178 72.57136745 151.9234192 68.890625 145.4453125 C63.47536761 140.44661337 57.71884361 137.89476202 50.328125 137.6328125 C42.30962809 138.02345722 36.6756848 140.80007209 31.7109375 147.1484375 Z M-183.984375 210.2578125 C-186.28864472 214.58983958 -186.5535226 218.40068728 -185.546875 223.1953125 C-183.26201947 227.17053136 -180.92032071 229.73749726 -176.546875 231.1953125 C-174.5183923 231.29310305 -172.48680961 231.33031369 -170.45597839 231.33575439 C-168.54437172 231.34431961 -168.54437172 231.34431961 -166.59414673 231.35305786 C-165.17889414 231.35430321 -163.76364144 231.35542831 -162.34838867 231.35644531 C-160.86016212 231.36107388 -159.37193675 231.36609859 -157.88371277 231.37149048 C-153.83816248 231.38461292 -149.79262879 231.39105915 -145.74706054 231.39550114 C-143.21944121 231.39843217 -140.69182641 231.40253704 -138.16420937 231.40700531 C-130.2555478 231.42067996 -122.34689659 231.43034672 -114.43822402 231.4342072 C-105.30945708 231.43868774 -96.18083989 231.45623556 -87.05211848 231.4852078 C-79.99554392 231.50682598 -72.93901148 231.51691156 -65.88240415 231.51824832 C-61.66799083 231.51929627 -57.45371828 231.52520187 -53.23933983 231.54306793 C-49.2740385 231.55955098 -45.30898374 231.56170307 -41.34366035 231.55292892 C-39.89003209 231.55215867 -38.43639056 231.55649985 -36.98279572 231.56638718 C-34.9948117 231.57911404 -33.00672855 231.57143548 -31.01872253 231.56280518 C-29.90724948 231.56427174 -28.79577642 231.5657383 -27.65062237 231.5672493 C-23.31746791 231.04798681 -19.98282854 229.48271912 -16.734375 226.5703125 C-14.88902135 222.8796052 -14.30380297 219.3132386 -14.546875 215.1953125 C-16.53784734 211.21336783 -18.68606049 208.40455337 -22.546875 206.1953125 C-25.55791854 205.80708918 -28.37174601 205.59749224 -31.39306641 205.52050781 C-32.30890314 205.48756245 -33.22473988 205.45461708 -34.16832924 205.42067337 C-46.7397169 205.01788169 -59.32169545 205.01179355 -71.89833784 204.99512386 C-74.03308448 204.99215232 -76.16782624 204.98804171 -78.30257034 204.98361969 C-85.01141811 204.97005076 -91.7202542 204.96032303 -98.4291147 204.9564178 C-106.12461936 204.95190936 -113.81994889 204.93418949 -121.51540029 204.9054172 C-127.50994229 204.88379145 -133.50443487 204.87371368 -139.49901545 204.87237668 C-143.06206962 204.87133284 -146.62495668 204.86551055 -150.18796921 204.84755707 C-154.14539051 204.82798723 -158.10259008 204.8323688 -162.06005859 204.83886719 C-163.8102404 204.82504501 -163.8102404 204.82504501 -165.59577942 204.8109436 C-172.95010305 204.84881348 -178.20052325 205.3637841 -183.984375 210.2578125 Z " fill="#8CC243" transform="translate(333.546875,170.8046875)"/>
<path d="M0 0 C2.44029778 3.66044667 2.26882249 6.3638455 2.22705078 10.5925293 C2.22734283 11.36349945 2.22763489 12.1344696 2.22793579 12.92880249 C2.22654233 15.47738902 2.21098049 18.02568328 2.1953125 20.57421875 C2.19158242 22.34112895 2.18873543 24.10804122 2.18673706 25.87495422 C2.17910017 30.52582508 2.1594512 35.17657106 2.1373291 39.82739258 C2.11687188 44.57306224 2.10773561 49.31875208 2.09765625 54.06445312 C2.07620537 63.37635696 2.04206873 72.68816809 2 82 C3.37729279 81.99000725 3.37729279 81.99000725 4.78240967 81.97981262 C13.43422856 81.91970918 22.08597736 81.87402946 30.737957 81.84456348 C35.18607232 81.82890547 39.63401519 81.80766479 44.08203125 81.77368164 C48.37437893 81.74109292 52.66656068 81.72314801 56.95902252 81.71536827 C58.59690208 81.70982387 60.23477253 81.69899702 61.87258148 81.68280983 C64.16623073 81.66104162 66.45919381 81.65803275 68.75292969 81.65942383 C70.05864929 81.65276199 71.3643689 81.64610016 72.70965576 81.63923645 C76.19977764 82.02190424 77.59795344 82.48251696 80 85 C81.61502093 90.62565622 80.70473378 93.67862416 78 98.75 C77.64969727 99.41628418 77.29939453 100.08256836 76.93847656 100.76904297 C75.65035119 103.19352873 74.32808961 105.59717121 73 108 C72.17725586 109.49611816 72.17725586 109.49611816 71.33789062 111.02246094 C68.18389103 116.74746893 65.00756315 122.45971908 61.81640625 128.1640625 C54.30436546 141.59952909 46.95193545 155.11375956 39.84936523 168.77001953 C36.13313934 175.8618968 32.12078621 182.77224734 28.11547852 189.70361328 C24.92470851 195.31850626 21.98339111 200.99961694 19.234375 206.83984375 C18.7649649 207.83416412 18.7649649 207.83416412 18.28607178 208.84857178 C16.74994633 212.1147432 15.23842291 215.38989319 13.75683594 218.68115234 C13.20801758 219.86531738 12.65919922 221.04948242 12.09375 222.26953125 C11.61615234 223.32760986 11.13855469 224.38568848 10.64648438 225.47583008 C9 228 9 228 6.49414062 229.4831543 C5.67107422 229.65371338 4.84800781 229.82427246 4 230 C1 228 1 228 0 225 C-0.09116335 222.33777809 -0.12603073 219.70229087 -0.11352539 217.0402832 C-0.11367142 216.23029877 -0.11381744 215.42031433 -0.1139679 214.58578491 C-0.113271 211.90742315 -0.10548903 209.22913087 -0.09765625 206.55078125 C-0.09579128 204.69418882 -0.09436775 202.8375959 -0.09336853 200.98100281 C-0.0895496 196.09344119 -0.07972461 191.20590926 -0.06866455 186.31835938 C-0.05843704 181.33138429 -0.05386803 176.34440442 -0.04882812 171.35742188 C-0.03810181 161.57160153 -0.02103284 151.78580324 0 142 C-0.91597458 141.99635437 -1.83194916 141.99270874 -2.77568054 141.98895264 C-11.41271659 141.95106811 -20.04937521 141.89421012 -28.68614483 141.81609726 C-33.12630874 141.77660712 -37.56627388 141.74442629 -42.0065918 141.72900391 C-46.29270619 141.71384727 -50.57827417 141.67941989 -54.86414528 141.63169098 C-56.49833232 141.61686683 -58.13259737 141.60895839 -59.76685143 141.60811615 C-62.05829322 141.60574773 -64.34822343 141.57868138 -66.6394043 141.54589844 C-67.94290329 141.53701599 -69.24640228 141.52813354 -70.58940125 141.51898193 C-74.55692292 140.91525449 -76.23587616 139.86877589 -79 137 C-80.39673152 130.27184206 -76.88956456 125.0884981 -73.75 119.375 C-73.20496826 118.35720459 -72.65993652 117.33940918 -72.09838867 116.29077148 C-68.15013064 108.96657381 -64.0280448 101.74558706 -59.85449219 94.5480957 C-55.2093219 86.48757812 -50.84579427 78.28676149 -46.5 70.0625 C-46.13423859 69.37036407 -45.76847717 68.67822815 -45.39163208 67.96511841 C-44.84501419 66.93063065 -44.84501419 66.93063065 -44.28735352 65.87524414 C-43.56140472 64.50144157 -42.83541234 63.12766203 -42.109375 61.75390625 C-41.75511948 61.08351822 -41.40086395 60.41313019 -41.03587341 59.72242737 C-37.52541078 53.08759532 -33.94310724 46.49305346 -30.32958984 39.91381836 C-27.71843209 35.15852089 -25.13543136 30.3902641 -22.5859375 25.6015625 C-22.00875977 24.52197266 -21.43158203 23.44238281 -20.83691406 22.33007812 C-19.73193809 20.26132105 -18.63195601 18.18988519 -17.53808594 16.11523438 C-7.67464656 -2.30239397 -7.67464656 -2.30239397 0 0 Z " fill="#8CC243" transform="translate(233,36)"/>
<path d="M0 0 C4.4211785 3.63742413 6.25352891 8.25512457 8.5 13.375 C8.89509766 14.26533936 9.29019531 15.15567871 9.69726562 16.07299805 C17.63845081 34.3604413 21.16415381 52.82424665 13.9375 71.9375 C4.94684061 92.26535451 -10.81052764 100.47162247 -29.875 109.125 C-42.51677907 114.92829808 -49.76998366 119.85191422 -55 133 C-55.99 133 -56.98 133 -58 133 C-59.38821605 109.40032715 -44.09882823 87.7860231 -29.27734375 70.83203125 C-27.81334111 69.21649578 -26.33728453 67.61171116 -24.84375 66.0234375 C-22.26489053 63.19324851 -20.13773377 60.17212107 -18 57 C-18.66 57 -19.32 57 -20 57 C-20.20753906 57.53882813 -20.41507812 58.07765625 -20.62890625 58.6328125 C-22.53267988 61.91966954 -25.20915947 64.28199772 -27.9375 66.875 C-38.98968562 77.70420428 -47.20830102 89.10523475 -54 103 C-55.32 102.67 -56.64 102.34 -58 102 C-58.34313868 100.18933073 -58.67392018 98.37631899 -59 96.5625 C-59.185625 95.55316406 -59.37125 94.54382813 -59.5625 93.50390625 C-61.46616702 78.25757309 -58.75969042 61.58139603 -49.58203125 49.06640625 C-43.9495987 42.79688622 -36.0462655 38.49915317 -29 34 C-28.3488623 33.58363281 -27.69772461 33.16726562 -27.02685547 32.73828125 C-26.3876416 32.32964844 -25.74842773 31.92101562 -25.08984375 31.5 C-24.46537354 31.10022949 -23.84090332 30.70045898 -23.19750977 30.28857422 C-21.47622823 29.18962876 -19.74998075 28.09847269 -18.0234375 27.0078125 C-11.18475399 22.46636118 -5.49595617 17.43349883 -3.24609375 9.26171875 C-2.92913712 7.53717517 -2.65040655 5.80487839 -2.421875 4.06640625 C-2 2 -2 2 0 0 Z M-16 53 C-15 55 -15 55 -15 55 Z " fill="#056539" transform="translate(444,0)"/>
<path d="M0 0 C0.66 0.33 1.32 0.66 2 1 C2.47997984 2.69163626 2.88444255 4.40500534 3.25 6.125 C6.00420184 16.44993059 12.6781912 20.34049555 21.3828125 25.734375 C33.33434433 33.15256717 41.03959614 39.15838852 45 53 C46.82580704 61.32263711 46.79754676 69.95705307 44 78 C40.39626949 76.56921952 39.21256083 75.0873814 37.4375 71.6875 C31.66679891 61.59242543 23.38241666 52.97898484 15 45 C14.505 44.505 14.505 44.505 14 44 C15.15062795 45.47323391 16.30160069 46.94619956 17.45410156 48.41796875 C18.45345089 49.69429376 19.4514719 50.97165982 20.44824219 52.25 C23.45494967 56.09030708 26.55755543 59.81132052 29.75 63.5 C37.29047074 72.69964409 42.73168835 84.29150898 45 96 C44.59375 98.3671875 44.59375 98.3671875 44 100 C40.35792224 98.78597408 40.4584588 98.21256478 38.8125 94.9375 C34.28232516 87.82026771 26.4368838 85.29316555 19 82 C6.02554936 76.14641064 -4.62755337 68.4938719 -10.25 55 C-16.08890343 38.13205677 -12.26368274 23.15299688 -4.86914062 7.55957031 C-3.46602487 4.69343348 -2.27214621 2.27214621 0 0 Z " fill="#87BA43" transform="translate(336,7)"/>
<path d="M0 0 C1.52737193 3.52193998 0.54574839 6.02873588 -0.80078125 9.48828125 C-1.07277344 10.15214844 -1.34476563 10.81601562 -1.625 11.5 C-1.87378906 12.16386719 -2.12257812 12.82773437 -2.37890625 13.51171875 C-4.93955534 19.89423216 -8.65965776 22.57582661 -14.75 25.3125 C-19.33348285 27.51530817 -23.09139319 30.20335485 -26.9921875 33.44921875 C-28.92305536 34.94056999 -30.78538296 35.99200166 -33 37 C-36.68016973 33.61822241 -39.37981652 30.77054025 -41 26 C-41.27710537 19.40489209 -39.85477985 13.39437661 -36 8 C-30.69185891 2.32621499 -25.61338736 -0.14704759 -17.82421875 -0.9140625 C-11.87250568 -1.0951658 -5.92598793 -0.50749567 0 0 Z " fill="#8CC044" transform="translate(69,254)"/>
<path d="M0 0 C3.45803731 -0.11795981 6.91554557 -0.18782752 10.375 -0.25 C11.34050781 -0.28351563 12.30601562 -0.31703125 13.30078125 -0.3515625 C21.57687599 -0.46265102 28.64436719 1.0013494 34.9375 6.625 C38.84256934 13.01511347 40.80134777 19.40112721 39.578125 26.88671875 C38.59527594 30.4794305 37.20501607 32.97597796 35 36 C33.1328125 36.90234375 33.1328125 36.90234375 31 37 C28.94921875 35.62890625 28.94921875 35.62890625 26.6875 33.5625 C22.39749107 29.88626284 18.15597031 27.44632988 13.125 25 C8.12000113 22.49105478 4.45673182 20.50986568 2.56640625 15.01171875 C2.37949219 14.34785156 2.19257813 13.68398438 2 13 C1.39648459 11.60388496 0.79232486 10.20804826 0.1875 8.8125 C-1.00233036 4.9925183 -0.94207177 3.71060921 0 0 Z " fill="#8DBF47" transform="translate(399,254)"/>
<path d="M0 0 C0.31241455 2.71446979 0.51336592 5.33909361 0.625 8.0625 C0.66367187 8.82111328 0.70234375 9.57972656 0.7421875 10.36132812 C0.83673562 12.24047195 0.91946756 14.12020336 1 16 C0.67 15.01 0.34 14.02 0 13 C-0.66 13 -1.32 13 -2 13 C-2.33 9.7 -2.66 6.4 -3 3 C-5.10951302 3.00392761 -5.10951302 3.00392761 -7.26164246 3.00793457 C-51.54284277 3.08189969 -95.82007841 2.85076401 -140.10014427 2.55461788 C-149.39265823 2.49255156 -158.68518695 2.4328367 -167.97771704 2.37324238 C-186.98516118 2.25129616 -205.99258658 2.12664046 -225 2 C-224.67 1.34 -224.34 0.68 -224 0 C-223.09281692 0.00092179 -222.18563383 0.00184359 -221.25096035 0.00279331 C-198.98063031 0.02506309 -176.71030224 0.04151464 -154.43996334 0.05181217 C-143.66936272 0.05692677 -132.89876962 0.06387489 -122.12817383 0.07543945 C-112.71960986 0.0855366 -103.31105133 0.09188838 -93.90248209 0.09408849 C-88.93975654 0.09537064 -83.97704656 0.09829193 -79.0143261 0.10573006 C-73.41831781 0.11382809 -67.8223318 0.11655458 -62.22631836 0.11352539 C-61.33872483 0.11310592 -60.4511313 0.11268645 -59.536641 0.11225426 C-44.28639957 0.0950813 -29.05162805 -0.22634763 -13.81011105 -0.73712826 C-13.02637438 -0.76165707 -12.24263772 -0.78618588 -11.43515146 -0.81145799 C-9.97454438 -0.85747473 -8.51406562 -0.90784764 -7.05378783 -0.96333945 C-2.22471707 -1.11235854 -2.22471707 -1.11235854 0 0 Z " fill="#8EAA53" transform="translate(377,442)"/>
<path d="M0 0 C1.11375 1.175625 1.11375 1.175625 2.25 2.375 C6.62926236 6.55520498 9.36419558 7.24934499 15.40338135 7.2784729 C16.72148804 7.28963638 18.03959473 7.30079987 19.39764404 7.31230164 C20.8565671 7.31466655 22.31549047 7.31684221 23.77441406 7.31884766 C25.3119357 7.3281466 26.84945229 7.33831522 28.38696289 7.34928894 C32.56013593 7.37660687 36.73327519 7.39174365 40.90651417 7.40471697 C45.26809887 7.42033966 49.6296145 7.44713263 53.9911499 7.4727478 C62.2499943 7.51955086 70.50885167 7.55628758 78.76776099 7.58942068 C88.17037774 7.62763127 97.57292512 7.67704422 106.97548342 7.72740483 C126.3169382 7.83074739 145.6584353 7.92000024 165 8 C163.19017794 10.38684623 162.29068193 10.9597468 159.27377605 11.37752342 C158.16343408 11.3786545 157.0530921 11.37978558 155.90910339 11.38095093 C153.99749672 11.39364014 153.99749672 11.39364014 152.04727173 11.40658569 C150.63201777 11.40075248 149.21676507 11.39460796 147.80151367 11.38818359 C146.31328445 11.39224809 144.82505824 11.39758928 143.33683777 11.40411377 C139.29121204 11.4178114 135.24581537 11.41247778 131.20018554 11.40297651 C126.96689083 11.39538831 122.73361591 11.40242358 118.50032043 11.40713501 C111.38746619 11.41259681 104.27470531 11.40539173 97.16186523 11.39111328 C88.942915 11.37480473 80.72418824 11.38006045 72.50524348 11.3965925 C65.44865261 11.41021777 58.39212893 11.41212137 51.33552915 11.40427649 C47.12113715 11.39960327 42.90685006 11.39896507 38.69246483 11.40888596 C34.72713233 11.41756784 30.76208692 11.41151154 26.79678535 11.39420319 C25.34316865 11.39024404 23.8895277 11.39136262 22.43592072 11.39799118 C20.44790523 11.40621904 18.45983682 11.39406014 16.47184753 11.38095093 C14.80463795 11.37925431 14.80463795 11.37925431 13.10374737 11.37752342 C7.6881576 10.71879971 3.37662844 8.28572071 0 4 C0 2.68 0 1.36 0 0 Z " fill="#8BAE55" transform="translate(148,394)"/>
<path d="M0 0 C6.94055509 5.65526711 9.50882704 14.51281885 11 23 C11.26700981 25.85557284 11.32020265 28.68995938 11.3347168 31.55688477 C11.34636871 32.36201508 11.35802063 33.16714539 11.37002563 33.99667358 C11.40581394 36.6448981 11.42787906 39.29302886 11.44921875 41.94140625 C11.47055616 43.82812703 11.49252696 45.71484073 11.51509094 47.60154724 C11.56044948 51.56985968 11.59919759 55.53816497 11.63305664 59.5065918 C11.67568462 64.462194 11.73273271 69.41749172 11.79441643 74.37288857 C12.02832732 93.48773834 12.14146034 112.60756297 11.81183815 131.7219677 C11.78402767 133.44283099 11.76234021 135.16380612 11.74732018 136.88482857 C11.55924727 156.18883098 11.55924727 156.18883098 5.36628723 162.72398376 C4.68997505 163.3556118 4.68997505 163.3556118 4 164 C4 162.35 4 160.7 4 159 C4.99 159 5.98 159 7 159 C8.14840355 150.23445104 8.0816646 141.57766925 8.01831055 132.75726318 C7.91092415 116.95320782 8.07361406 101.17316885 8.5 85.375 C8.85837303 71.69848148 9.13042418 58.02584867 9.17724609 44.34429932 C9.18401174 42.59131201 9.19419246 40.83833411 9.20800781 39.08538818 C9.22580595 36.66489972 9.23016472 34.24476475 9.23046875 31.82421875 C9.2411866 30.76319695 9.2411866 30.76319695 9.25212097 29.68074036 C9.23248655 25.39135167 8.46369851 22.01051235 7 18 C6.875 14.625 6.875 14.625 7 12 C6.34 12 5.68 12 5 12 C4.67 13.32 4.34 14.64 4 16 C3.01 15.67 2.02 15.34 1 15 C1 14.34 1 13.68 1 13 C0.34 12.67 -0.32 12.34 -1 12 C-0.01 11.34 0.98 10.68 2 10 C2.25015873 6.41642759 2.25015873 6.41642759 2 3 C1.34 3 0.68 3 0 3 C0 2.01 0 1.02 0 0 Z " fill="#96B064" transform="translate(425,304)"/>
<path d="M0 0 C3 1 3 1 4.63671875 3.55859375 C6.16939371 7.42760992 6.62453373 10.95409447 6.8125 15.0625 C6.86341797 15.75666016 6.91433594 16.45082031 6.96679688 17.16601562 C7.19560414 21.24964361 7.05281233 24.41269339 5 28 C2.375 28.8125 2.375 28.8125 0 29 C-0.33 27.35 -0.66 25.7 -1 24 C-1.66 24 -2.32 24 -3 24 C-3.33 22.68 -3.66 21.36 -4 20 C-4.66 20 -5.32 20 -6 20 C-6.33 19.01 -6.66 18.02 -7 17 C-6.67 16.34 -6.34 15.68 -6 15 C-6.33 14.01 -6.66 13.02 -7 12 C-6.34 12 -5.68 12 -5 12 C-4.80664062 11.21753906 -4.61328125 10.43507813 -4.4140625 9.62890625 C-4.15367187 8.61699219 -3.89328125 7.60507812 -3.625 6.5625 C-3.36976563 5.55316406 -3.11453125 4.54382812 -2.8515625 3.50390625 C-2 1 -2 1 0 0 Z " fill="#86B943" transform="translate(373,46)"/>
<path d="M0 0 C3.3 0 6.6 0 10 0 C11.23802114 3.71406343 11.17656851 7.18130369 11.20532227 11.05151367 C11.21522186 11.87125168 11.22512146 12.69098969 11.23532104 13.53556824 C11.26692009 16.24633898 11.2916872 18.95712725 11.31640625 21.66796875 C11.33697715 23.54698646 11.35797366 25.42599955 11.37937927 27.30500793 C11.43458586 32.2517015 11.4840014 37.19843674 11.53222656 42.14520264 C11.58245187 47.19254262 11.63813257 52.23982207 11.69335938 57.28710938 C11.80092368 67.19135454 11.90237253 77.09565225 12 87 C13.95400635 86.70187426 13.95400635 86.70187426 16 86 C17.73195581 83.27286902 17.73195581 83.27286902 19.125 80 C21.81374046 74.09312977 21.81374046 74.09312977 24 73 C22.27209454 78.77277506 20.43033956 84.01041518 17 89 C14.9375 90.0625 14.9375 90.0625 13 90 C10 88 10 88 9 85 C8.90883665 82.33777809 8.87396927 79.70229087 8.88647461 77.0402832 C8.88632858 76.23029877 8.88618256 75.42031433 8.8860321 74.58578491 C8.886729 71.90742315 8.89451097 69.22913087 8.90234375 66.55078125 C8.90420872 64.69418882 8.90563225 62.8375959 8.90663147 60.98100281 C8.9104504 56.09344119 8.92027539 51.20590926 8.93133545 46.31835938 C8.94156296 41.33138429 8.94613197 36.34440442 8.95117188 31.35742188 C8.96189819 21.57160153 8.97896716 11.78580324 9 2 C6.03 2 3.06 2 0 2 C0 1.34 0 0.68 0 0 Z " fill="#8DAB56" transform="translate(224,176)"/>
<path d="M0 0 C9.57928222 -0.06950112 19.15847768 -0.12281176 28.737957 -0.15543652 C33.18607232 -0.17109453 37.63401519 -0.19233521 42.08203125 -0.22631836 C46.37437893 -0.25890708 50.66656068 -0.27685199 54.95902252 -0.28463173 C56.59690208 -0.29017613 58.23477253 -0.30100298 59.87258148 -0.31719017 C62.16623073 -0.33895838 64.45919381 -0.34196725 66.75292969 -0.34057617 C68.05864929 -0.34723801 69.3643689 -0.35389984 70.70965576 -0.36076355 C74.20039301 0.02197171 75.59194179 0.48964657 78 3 C79.42801286 7.55179098 79.13880271 10.27011663 77.0625 14.4375 C76.39226744 15.63483071 75.7104474 16.82608476 75 18 C73.85540119 14.56620356 74.30462489 13.47687554 75 10 C75 7.36 75 4.72 75 2 C50.25 2 25.5 2 0 2 C0 1.34 0 0.68 0 0 Z " fill="#93B55C" transform="translate(235,118)"/>
<path d="M0 0 C0.66 0.33 1.32 0.66 2 1 C2.48139012 2.67018889 2.88532195 4.36300676 3.25 6.0625 C4.69020131 11.77853215 7.12402935 15.62228558 11 20 C10.34 20 9.68 20 9 20 C8.67 20.99 8.34 21.98 8 23 C7.01 23 6.02 23 5 23 C5.33 23.99 5.66 24.98 6 26 C5.34 26 4.68 26 4 26 C4 25.34 4 24.68 4 24 C3.01 23.67 2.02 23.34 1 23 C1.99 20.03 2.98 17.06 4 14 C3.34 14 2.68 14 2 14 C2 13.34 2 12.68 2 12 C0.02 12 -1.96 12 -4 12 C-4.33 13.32 -4.66 14.64 -5 16 C-5.66 16 -6.32 16 -7 16 C-9.46135018 25.66223048 -11.61411174 34.98619978 -12 45 C-12.33 45 -12.66 45 -13 45 C-13.71556822 28.80695626 -9.50964382 16.11047723 -2 2 C-1.34 1.34 -0.68 0.68 0 0 Z " fill="#92B55F" transform="translate(336,7)"/>
<path d="M0 0 C0.66 0.99 1.32 1.98 2 3 C4.05003955 4.19232613 4.05003955 4.19232613 6 5 C5.67 5.99 5.34 6.98 5 8 C5.515625 8.4125 6.03125 8.825 6.5625 9.25 C7.036875 9.8275 7.51125 10.405 8 11 C7.6875 13.1875 7.6875 13.1875 7 15 C6.2265625 13.700625 6.2265625 13.700625 5.4375 12.375 C2.36004836 7.74783164 -1.6903703 3.76987657 -7 2 C-14.56995509 1.36830744 -21.869051 0.983769 -28 6 C-34.07202132 12.49812808 -35.27331209 17.55474728 -35.23828125 26.30078125 C-34.93899755 29.69102778 -33.71515394 32.0916955 -32 35 C-32.33 35.66 -32.66 36.32 -33 37 C-33.495 35.515 -33.495 35.515 -34 34 C-34.66 34 -35.32 34 -36 34 C-37.14926356 29.86299666 -37.22083647 25.83131133 -37.25 21.5625 C-37.270625 20.81162109 -37.29125 20.06074219 -37.3125 19.28710938 C-37.35616668 13.08098291 -35.83172387 9.92331006 -31.5 5.375 C-30.675 4.59125 -29.85 3.8075 -29 3 C-28.55140625 2.48050781 -28.1028125 1.96101563 -27.640625 1.42578125 C-21.16019337 -4.20602243 -7.50486096 -2.8582668 0 0 Z " fill="#96B560" transform="translate(97,308)"/>
<path d="M0 0 C0.66 0.33 1.32 0.66 2 1 C1.47792969 1.48726563 0.95585937 1.97453125 0.41796875 2.4765625 C-10.8271673 13.30812962 -19.16180518 25.01011147 -26 39 C-27.32 38.67 -28.64 38.34 -30 38 C-31.02245821 34.68131409 -31.04443871 31.81716411 -30.87890625 28.359375 C-30.80639648 26.75449219 -30.80639648 26.75449219 -30.73242188 25.1171875 C-30.67634766 24.00601563 -30.62027344 22.89484375 -30.5625 21.75 C-30.51029297 20.62335938 -30.45808594 19.49671875 -30.40429688 18.3359375 C-30.27477014 15.55700028 -30.13980947 12.77843576 -30 10 C-29.67 10 -29.34 10 -29 10 C-29 16.6 -29 23.2 -29 30 C-27.35 29.67 -25.7 29.34 -24 29 C-23.566875 27.576875 -23.566875 27.576875 -23.125 26.125 C-22 23 -22 23 -20 21 C-19.30251417 19.68252676 -18.63040043 18.35085807 -18 17 C-17.34 17.33 -16.68 17.66 -16 18 C-12.53028623 13.97652412 -12.53028623 13.97652412 -11 9 C-10.01 9 -9.02 9 -8 9 C-7.9175 8.38125 -7.835 7.7625 -7.75 7.125 C-7 5 -7 5 -5.125 3.9375 C-4.073125 3.4734375 -4.073125 3.4734375 -3 3 C-1.29078411 1.4587688 -1.29078411 1.4587688 0 0 Z " fill="#1D5C3E" transform="translate(416,64)"/>
<path d="M0 0 C0.33 0 0.66 0 1 0 C1.39925979 14.99878877 1.73130847 29.99829507 2 45 C2.01887268 46.03179382 2.03774536 47.06358765 2.05718994 48.12664795 C2.16257914 54.06859707 2.24228698 60.01000513 2.28710938 65.95272827 C2.30391972 67.80471489 2.32774645 69.65665227 2.35888672 71.50845337 C2.69110202 92.07290732 2.69110202 92.07290732 -3.63549805 98.71777344 C-4.08578369 99.1409082 -4.53606934 99.56404297 -5 100 C-5 98.35 -5 96.7 -5 95 C-4.01 95 -3.02 95 -2 95 C-0.85112234 86.23083223 -0.91833865 77.57034455 -0.98168945 68.74627686 C-1.09516202 52.11460311 -0.91854755 35.50155572 -0.5 18.875 C-0.47599121 17.92005646 -0.45198242 16.96511292 -0.42724609 15.98123169 C-0.29169113 10.65395623 -0.14904895 5.32691428 0 0 Z " fill="#86AE44" transform="translate(434,368)"/>
<path d="M0 0 C0.33 0 0.66 0 1 0 C0.96519531 0.69867188 0.93039063 1.39734375 0.89453125 2.1171875 C0.86746094 3.02726563 0.84039062 3.93734375 0.8125 4.875 C0.77769531 5.77992188 0.74289063 6.68484375 0.70703125 7.6171875 C0.80371094 8.40351563 0.90039062 9.18984375 1 10 C4.44426712 12.29617808 5.75838425 12.25901415 9.81665039 12.28710938 C11.6084951 12.30723083 11.6084951 12.30723083 13.4365387 12.32775879 C14.72720749 12.33303589 16.01787628 12.33831299 17.34765625 12.34375 C18.68380417 12.35738627 20.01994081 12.37217275 21.35606384 12.38806152 C26.31188344 12.44445886 31.26781369 12.4797172 36.22381592 12.51568604 C40.41472485 12.54689859 44.60541111 12.58605879 48.79614067 12.63594055 C50.76483095 12.65604246 52.73363134 12.66420417 54.70240784 12.67224121 C55.89381882 12.68565552 57.0852298 12.69906982 58.31274414 12.71289062 C59.36514786 12.72018188 60.41755157 12.72747314 61.50184631 12.73498535 C64 13 64 13 66 15 C57.8722326 15.09277517 49.74468728 15.16380244 41.61652088 15.20724869 C37.84205707 15.22810327 34.06795615 15.2563809 30.29370117 15.30175781 C26.6497155 15.3452932 23.00607836 15.36915313 19.36185265 15.37950897 C17.97317711 15.38688669 16.58452015 15.40129401 15.19599342 15.42292023 C13.24779569 15.45205017 11.29924553 15.45363471 9.35083008 15.45410156 C8.2427449 15.46298401 7.13465973 15.47186646 5.99299622 15.48101807 C2.27418214 14.8833505 0.60803834 13.6814308 -2 11 C-2.53302434 6.73580524 -2.33764674 3.65257304 0 0 Z " fill="#8DB054" transform="translate(156,162)"/>
<path d="M0 0 C1.2266613 0.00688843 1.2266613 0.00688843 2.47810364 0.01391602 C3.74990227 0.01790405 3.74990227 0.01790405 5.0473938 0.02197266 C14.67891429 0.09171391 24.28156237 0.59909049 33.89607239 1.13891602 C35.68836503 1.23573523 37.48068277 1.3320912 39.27302551 1.42797852 C43.58518055 1.65965255 47.89695376 1.89747308 52.20857239 2.13891602 C52.70357239 3.12891602 52.70357239 3.12891602 53.20857239 4.13891602 C40.34607392 4.21528279 27.50373156 3.97748476 14.64607239 3.63891602 C12.74829094 3.59054215 10.85050448 3.54236402 8.95271301 3.49438477 C4.37127227 3.37814227 -0.21009347 3.25928368 -4.79142761 3.13891602 C-4.79142761 6.10891602 -4.79142761 9.07891602 -4.79142761 12.13891602 C-5.12142761 12.13891602 -5.45142761 12.13891602 -5.79142761 12.13891602 C-5.98544394 10.32710196 -6.17147136 8.51443069 -6.35392761 6.70141602 C-6.45834167 5.69208008 -6.56275574 4.68274414 -6.67033386 3.64282227 C-6.7102948 2.8165332 -6.75025574 1.99024414 -6.79142761 1.13891602 C-4.96425665 -0.68825495 -2.43077248 0.00655076 0 0 Z " fill="#8EAE52" transform="translate(97.79142761230469,440.861083984375)"/>
<path d="M0 0 C0.33 0.99 0.66 1.98 1 3 C0.02365969 4.91901371 -0.95539913 6.83670935 -1.95043945 8.74609375 C-6.62214327 18.77846632 -5.39476625 31.13293807 -5.53173828 41.94213867 C-5.56540794 44.35615861 -5.61047522 46.76977795 -5.65625 49.18359375 C-5.6615271 49.9241954 -5.6668042 50.66479706 -5.67224121 51.42784119 C-5.74479381 55.15027411 -5.88193358 56.82290037 -8 60 C-10.5736899 39.96198581 -11.27418416 17.47498545 0 0 Z " fill="#94B15D" transform="translate(40,306)"/>
<path d="M0 0 C2.44029778 3.66044667 2.26882249 6.3638455 2.22705078 10.5925293 C2.22734283 11.36349945 2.22763489 12.1344696 2.22793579 12.92880249 C2.22654233 15.47738902 2.21098049 18.02568328 2.1953125 20.57421875 C2.19158242 22.34112895 2.18873543 24.10804122 2.18673706 25.87495422 C2.17910017 30.52582508 2.1594512 35.17657106 2.1373291 39.82739258 C2.11687188 44.57306224 2.10773561 49.31875208 2.09765625 54.06445312 C2.07620537 63.37635696 2.04206873 72.68816809 2 82 C1.67 82 1.34 82 1 82 C0.67 56.26 0.34 30.52 0 4 C-1.32 3.67 -2.64 3.34 -4 3 C-5.58333333 4.41666667 -5.58333333 4.41666667 -7 6 C-7.99 6 -8.98 6 -10 6 C-10.4021875 7.1446875 -10.4021875 7.1446875 -10.8125 8.3125 C-11.94424112 10.87380884 -12.91223401 12.19692938 -15 14 C-13.60173536 8.40694142 -10.75912508 4.28009079 -7 0 C-4.27584084 -1.36207958 -2.87220643 -0.86166193 0 0 Z " fill="#9AB46E" transform="translate(233,36)"/>
<path d="M0 0 C-3.65088317 2.16244618 -7.50732416 2.81705868 -11.625 3.5625 C-16.44771025 4.33996116 -16.44771025 4.33996116 -21 6 C-21.495 6.99 -21.99 7.98 -22.5 9 C-24 12 -24 12 -26 13 C-26.78605308 15.68182815 -27.43501284 18.27247579 -28 21 C-28.4021875 22.794375 -28.4021875 22.794375 -28.8125 24.625 C-29.0345171 28.62130772 -28.05828969 30.62440491 -26 34 C-25.236875 34 -24.47375 34 -23.6875 34 C-21.79166667 34 -19.89583333 34 -18 34 C-19.65 35.32 -21.3 36.64 -23 38 C-27.41806403 36.03641599 -29.40041025 33.59665209 -31.3359375 29.30859375 C-32.96143447 23.65760136 -31.69550304 18.03671127 -29.375 12.75 C-26.60121119 7.76726664 -22.57106057 4.42084926 -17.625 1.6875 C-11.85302931 0.17579339 -5.95071447 -0.15258242 0 0 Z " fill="#A3BE6D" transform="translate(60,253)"/>
<path d="M0 0 C3.98708318 7.35827545 4.28223425 18.11290103 2 26.125 C1.67 27.07375 1.34 28.0225 1 29 C-2.74262761 27.54319226 -4.01756221 25.78540687 -5.9375 22.3125 C-8.40119324 17.99320066 -11.04564191 13.99707271 -14 10 C-12.68 10 -11.36 10 -10 10 C-9.67 11.32 -9.34 12.64 -9 14 C-8.34 14 -7.68 14 -7 14 C-6.525625 14.495 -6.05125 14.99 -5.5625 15.5 C-4.00030058 17.34626591 -4.00030058 17.34626591 -1 17 C0.13480527 13.39006828 0.10015767 10.0157673 0.0625 6.25 C0.05347656 5.07953125 0.04445313 3.9090625 0.03515625 2.703125 C0.01775391 1.36507812 0.01775391 1.36507812 0 0 Z " fill="#8BAF50" transform="translate(379,56)"/>
<path d="M0 0 C5.01103283 2.1033151 8.84847702 4.60309949 11.24609375 9.59375 C12.06990266 12.40021862 12.59229686 15.10530772 13 18 C13.14953125 18.81210937 13.2990625 19.62421875 13.453125 20.4609375 C14.54453838 27.41276619 13.16415342 33.23424912 9 39 C6.8125 40.8125 6.8125 40.8125 5 42 C4.34 41.67 3.68 41.34 3 41 C3.40992188 40.49210937 3.81984375 39.98421875 4.2421875 39.4609375 C9.17351546 33.16110705 11.69636901 28.21715432 11 20 C9.49711692 13.17831979 7.21073628 8.88876093 1.3203125 4.84765625 C-4.47185737 1.47089332 -10.40832888 1.21972237 -17 1 C-11.67558217 -2.27953272 -5.88189579 -1.23438868 0 0 Z " fill="#92AF5E" transform="translate(395,308)"/>
<path d="M0 0 C1.65 0 3.3 0 5 0 C5 0.66 5 1.32 5 2 C5.99 1.67 6.98 1.34 8 1 C8.66 1.66 9.32 2.32 10 3 C11.61336295 3.70584629 13.22880803 4.40739512 14.85546875 5.08203125 C17.37356883 6.15990651 19.8449342 7.31085469 22.3125 8.5 C23.57513672 9.10328125 23.57513672 9.10328125 24.86328125 9.71875 C27 11 27 11 29 14 C29.99 14.33 30.98 14.66 32 15 C31.67 12.36 31.34 9.72 31 7 C32.84187025 9.76280538 33.72248277 11.80707826 34.6875 14.9375 C34.95949219 15.79214844 35.23148437 16.64679688 35.51171875 17.52734375 C36.02075548 20.10510574 35.84888744 21.54449337 35 24 C31.35792224 22.78597408 31.4584588 22.21256478 29.8125 18.9375 C25.61609819 12.3221197 18.85632032 9.94981881 11.94726562 6.87695312 C9.25674187 5.66527292 6.62981931 4.33745096 4 3 C3.21625 2.608125 2.4325 2.21625 1.625 1.8125 C1.08875 1.544375 0.5525 1.27625 0 1 C0 0.67 0 0.34 0 0 Z " fill="#7C9D47" transform="translate(345,83)"/>
<path d="M0 0 C0.66 0.33 1.32 0.66 2 1 C0.73253547 2.7732461 -0.53910235 4.54350975 -1.8125 6.3125 C-2.52019531 7.29863281 -3.22789063 8.28476563 -3.95703125 9.30078125 C-5.55137646 11.40726795 -7.12829873 13.16243309 -9 15 C-10.29947778 18.24869444 -9.83631305 20.65474779 -9 24 C-10.32 23.67 -11.64 23.34 -13 23 C-13.45375 23.825 -13.9075 24.65 -14.375 25.5 C-15.179375 26.7375 -15.179375 26.7375 -16 28 C-16.66 28 -17.32 28 -18 28 C-18.12117188 28.63808594 -18.24234375 29.27617187 -18.3671875 29.93359375 C-18.53476563 30.75988281 -18.70234375 31.58617187 -18.875 32.4375 C-19.03742188 33.26121094 -19.19984375 34.08492187 -19.3671875 34.93359375 C-19.57601562 35.61550781 -19.78484375 36.29742187 -20 37 C-20.99 37.495 -20.99 37.495 -22 38 C-19.50558618 22.77247378 -11.10544745 10.32662387 0 0 Z " fill="#96BA5B" transform="translate(119,180)"/>
<path d="M0 0 C0.99 0.33 1.98 0.66 3 1 C1.6918584 4.48082122 0.37776167 7.95936357 -0.9375 11.4375 C-1.31068359 12.43072266 -1.68386719 13.42394531 -2.06835938 14.44726562 C-2.60493164 15.86362305 -2.60493164 15.86362305 -3.15234375 17.30859375 C-3.6472229 18.62041626 -3.6472229 18.62041626 -4.15209961 19.95874023 C-5 22 -5 22 -6 23 C23.7 23.495 23.7 23.495 54 24 C54 24.33 54 24.66 54 25 C33.87 25.33 13.74 25.66 -7 26 C-8.12511704 21.49953186 -8.12511704 21.49953186 -6.85546875 18.06640625 C-6.59056641 17.33486328 -6.32566406 16.60332031 -6.05273438 15.84960938 C-5.76720703 15.09486328 -5.48167969 14.34011719 -5.1875 13.5625 C-4.91357422 12.81162109 -4.63964844 12.06074219 -4.35742188 11.28710938 C-2.96810207 7.49896402 -1.52291426 3.73671158 0 0 Z " fill="#80A943" transform="translate(113,251)"/>
<path d="M0 0 C0.33 0 0.66 0 1 0 C1.01030746 1.09358826 1.02061493 2.18717651 1.03123474 3.31390381 C1.12894107 13.61401485 1.23167261 23.91406511 1.33933926 34.214077 C1.39453132 39.50955888 1.44794545 44.80504631 1.49731445 50.10058594 C1.54501273 55.20993104 1.59735762 60.31920923 1.65294075 65.42847443 C1.67333952 67.37891222 1.69205668 69.32936834 1.70907402 71.27983856 C1.73317281 74.00921763 1.76322 76.73847066 1.79467773 79.46777344 C1.8004332 80.27625732 1.80618866 81.08474121 1.81211853 81.91772461 C1.85835426 85.4410585 2.05620302 88.60861968 3 92 C3.66 92 4.32 92 5 92 C5 93.65 5 95.3 5 97 C-0.06209604 90.92548476 -1.29743394 87.39460026 -1.13525391 79.46777344 C-1.12579239 78.60887512 -1.11633087 77.74997681 -1.10658264 76.86505127 C-1.07293809 74.02960774 -1.02481364 71.19460447 -0.9765625 68.359375 C-0.95039196 66.39212185 -0.92512523 64.42485649 -0.90072632 62.45758057 C-0.83410887 57.28219129 -0.7552086 52.10705916 -0.67376709 46.93188477 C-0.59281444 41.65000267 -0.52345458 36.36796983 -0.453125 31.0859375 C-0.31344226 20.72377762 -0.16078572 10.3618524 0 0 Z " fill="#8FAF5D" transform="translate(32,369)"/>
<path d="M0 0 C1.08381958 -0.009104 2.16763916 -0.01820801 3.28430176 -0.02758789 C4.69700348 -0.04202942 4.69700348 -0.04202942 6.13824463 -0.0567627 C8.37902832 0.04858398 8.37902832 0.04858398 10.37902832 1.04858398 C10.37902832 1.70858398 10.37902832 2.36858398 10.37902832 3.04858398 C-17.34097168 2.71858398 -45.06097168 2.38858398 -73.62097168 2.04858398 C-73.62097168 1.71858398 -73.62097168 1.38858398 -73.62097168 1.04858398 C-64.70136859 0.91716789 -55.78175213 0.78670923 -46.86211777 0.65743256 C-42.71922884 0.59735839 -38.57634503 0.53696926 -34.43347168 0.47583008 C-30.42640506 0.41670718 -26.41932664 0.35845113 -22.41223907 0.30076599 C-20.89263723 0.27874358 -19.37303969 0.25642236 -17.85344696 0.23377991 C-11.90240248 0.14525678 -5.95115535 0.07984896 0 0 Z " fill="#91AE5A" transform="translate(270.6209716796875,373.951416015625)"/>
<path d="M0 0 C0.23074219 0.86882812 0.46148437 1.73765625 0.69921875 2.6328125 C3.68919773 13.42228681 3.68919773 13.42228681 11.8125 20.625 C12.534375 21.07875 13.25625 21.5325 14 22 C14 23.32 14 24.64 14 26 C13.26394531 26.19335938 12.52789062 26.38671875 11.76953125 26.5859375 C10.79371094 26.84632813 9.81789062 27.10671875 8.8125 27.375 C7.84957031 27.63023437 6.88664063 27.88546875 5.89453125 28.1484375 C3.17789793 28.94766296 0.60862825 29.9031362 -2 31 C-2 30.34 -2 29.68 -2 29 C-1.34 29 -0.68 29 0 29 C0 28.34 0 27.68 0 27 C1.2375 26.67 2.475 26.34 3.75 26 C4.44609375 25.814375 5.1421875 25.62875 5.859375 25.4375 C8 25 8 25 12 25 C12 24.01 12 23.02 12 22 C11.2575 21.731875 10.515 21.46375 9.75 21.1875 C7 20 7 20 4.875 18.375 C2.9843199 16.70431817 2.9843199 16.70431817 0 17 C-0.66 16.34 -1.32 15.68 -2 15 C-1.67 14.34 -1.34 13.68 -1 13 C-1.08780403 10.95501575 -1.24241538 8.91255052 -1.4375 6.875 C-1.53933594 5.77929688 -1.64117187 4.68359375 -1.74609375 3.5546875 C-1.82988281 2.71164063 -1.91367188 1.86859375 -2 1 C-2.99 1.33 -3.98 1.66 -5 2 C-5.66 1.34 -6.32 0.68 -7 0 C-4.3333581 -1.33332095 -2.83319697 -0.67102033 0 0 Z " fill="#8FB559" transform="translate(140,172)"/>
<path d="M0 0 C1.2077558 3.62326739 0.54311128 4.64146369 -1 8 C-1.66 8 -2.32 8 -3 8 C-3 9.32 -3 10.64 -3 12 C-2.48953125 11.84015625 -1.9790625 11.6803125 -1.453125 11.515625 C8.19340245 9.48801095 17.29780012 10.64890006 26 15 C26 15.66 26 16.32 26 17 C25.07703125 16.6803125 24.1540625 16.360625 23.203125 16.03125 C17.19700973 14.31348894 10.94189022 14.5704703 4.7421875 14.43359375 C3.79085938 14.40394531 2.83953125 14.37429687 1.859375 14.34375 C0.99795898 14.32505859 0.13654297 14.30636719 -0.75097656 14.28710938 C-3 14 -3 14 -6 12 C-4.43358249 7.69235185 -2.31663844 3.93828536 0 0 Z " fill="#8CAE47" transform="translate(301,184)"/>
<path d="M0 0 C0.33 0 0.66 0 1 0 C0.125 7.75 0.125 7.75 -1 10 C-1.66 10 -2.32 10 -3 10 C-3.12375 10.7425 -3.2475 11.485 -3.375 12.25 C-3.95486701 14.80141485 -4.73708739 16.7267573 -6 19 C-6.99 19 -7.98 19 -9 19 C-9.19335938 19.68707031 -9.38671875 20.37414062 -9.5859375 21.08203125 C-9.84632813 21.98308594 -10.10671875 22.88414063 -10.375 23.8125 C-10.63023437 24.70582031 -10.88546875 25.59914063 -11.1484375 26.51953125 C-12 29 -12 29 -14 32 C-14.66 32 -15.32 32 -16 32 C-16.99 34.475 -16.99 34.475 -18 37 C-18.33 36.34 -18.66 35.68 -19 35 C-17.89347978 32.56305957 -16.72759684 30.25569277 -15.44921875 27.91015625 C-15.07521439 27.20982773 -14.70121002 26.50949921 -14.31587219 25.78794861 C-13.11386081 23.54204616 -11.90065012 21.30240166 -10.6875 19.0625 C-9.88015987 17.55571313 -9.07351036 16.048556 -8.26757812 14.54101562 C-2.39765988 3.59648982 -2.39765988 3.59648982 0 0 Z " fill="#A2BB70" transform="translate(217,50)"/>
<path d="M0 0 C4.03367305 3.51246811 5.02560321 7.87511917 6 13 C6.27431826 19.26868026 4.67671201 23.95765211 1 29 C-1.25 29.9375 -1.25 29.9375 -3 30 C-3.99 28.68 -4.98 27.36 -6 26 C-4.35 26 -2.7 26 -1 26 C-0.30093058 24.40084119 0.38389468 22.79544955 1.0625 21.1875 C1.44535156 20.29417969 1.82820313 19.40085937 2.22265625 18.48046875 C3.29461205 15.9080764 3.29461205 15.9080764 2 13 C2.020625 12.01 2.04125 11.02 2.0625 10 C2.26489372 6.81532057 2.26489372 6.81532057 0 4 C0 2.68 0 1.36 0 0 Z " fill="#92B05A" transform="translate(433,261)"/>
<path d="M0 0 C0.99 0.33 1.98 0.66 3 1 C2.113125 1.9075 1.22625 2.815 0.3125 3.75 C-3.82682287 8.60667625 -5.79117892 14.07664498 -8 20 C-8.54764339 21.4442129 -9.09584857 22.88821287 -9.64453125 24.33203125 C-11.11411442 28.21489213 -12.5617741 32.10542264 -14 36 C-15.44490842 32.18653918 -14.49383755 29.80556267 -13.125 26.0625 C-11.58395854 21.81268979 -11.58395854 21.81268979 -10.5078125 17.43359375 C-9.07160466 10.55084386 -5.28763847 4.53226154 0 0 Z " fill="#90AD57" transform="translate(135,203)"/>
<path d="M0 0 C1.28317658 2.1134673 2.01559731 3.50088598 1.9375 6 C1 8 1 8 -1.375 9.875 C-4.36450505 12.29507551 -5.4904481 14.5041956 -7 18 C-7.33 18 -7.66 18 -8 18 C-8.18872476 12.62134425 -8.17266925 8.03664236 -6 3 C-2.875 1.0625 -2.875 1.0625 0 0 Z " fill="#0E663A" transform="translate(396,111)"/>
<path d="M0 0 C-0.33 1.32 -0.66 2.64 -1 4 C-1.66 4 -2.32 4 -3 4 C-3 4.99 -3 5.98 -3 7 C-4.31266518 8.35368596 -5.64567325 9.68799596 -7 11 C-7 11.66 -7 12.32 -7 13 C-7.99 13.66 -8.98 14.32 -10 15 C-11.19232613 17.05003955 -11.19232613 17.05003955 -12 19 C-12.66 19 -13.32 19 -14 19 C-14 19.66 -14 20.32 -14 21 C-14.66 21 -15.32 21 -16 21 C-14.12484345 14.3517177 -11.10478019 7.75704312 -6 3 C-5.505 2.443125 -5.01 1.88625 -4.5 1.3125 C-3 0 -3 0 0 0 Z " fill="#8ABD44" transform="translate(206,81)"/>
<path d="M0 0 C5.97042715 8.95564073 4.78754601 22.94671072 2.76953125 33.109375 C1.39584819 38.26940276 -0.52923658 43.26437012 -3 48 C-3.99 48.495 -3.99 48.495 -5 49 C-4.85892253 47.54119891 -4.71197585 46.08296449 -4.5625 44.625 C-4.48128906 43.81289062 -4.40007812 43.00078125 -4.31640625 42.1640625 C-4 40 -4 40 -3 38 C-2.34 38 -1.68 38 -1 38 C-1 36.68 -1 35.36 -1 34 C-0.34 34 0.32 34 1 34 C1.2210949 31.04210873 1.42740245 28.08447236 1.625 25.125 C1.68945312 24.28324219 1.75390625 23.44148438 1.8203125 22.57421875 C1.871875 21.76855469 1.9234375 20.96289062 1.9765625 20.1328125 C2.05511475 19.01737061 2.05511475 19.01737061 2.13525391 17.87939453 C2.18822366 15.75187311 2.18822366 15.75187311 0 14 C-0.1953125 10.7421875 -0.1953125 10.7421875 -0.125 6.875 C-0.10695313 5.59367187 -0.08890625 4.31234375 -0.0703125 2.9921875 C-0.04710937 2.00476562 -0.02390625 1.01734375 0 0 Z " fill="#366652" transform="translate(458,30)"/>
<path d="M0 0 C0.33 0.66 0.66 1.32 1 2 C-6.72588165 13.22861256 -14.67516346 24.03587206 -24 34 C-24 29.3583056 -20.54446639 26.76350015 -17.5546875 23.47070312 C-14.76463249 20.28605463 -14 19.40540262 -14 15 C-12.68 14.67 -11.36 14.34 -10 14 C-10 13.01 -10 12.02 -10 11 C-8.3203125 9.0625 -8.3203125 9.0625 -6.125 7 C-3.69915419 4.704576 -1.86499904 2.79749856 0 0 Z " fill="#3A705A" transform="translate(442,36)"/>
<path d="M0 0 C1.32 0.33 2.64 0.66 4 1 C2.36036204 6.94615694 -0.62375462 12.03522078 -3.625 17.375 C-4.140625 18.30183594 -4.65625 19.22867188 -5.1875 20.18359375 C-6.45382811 22.45829425 -7.72475925 24.73028792 -9 27 C-10.03948258 23.88155225 -10.45196105 22.23905421 -10 19 C-8.80438366 17.48124411 -7.60015646 15.9657806 -6.3046875 14.53125 C-2.72352638 10.3282106 -1.35852033 5.22507819 0 0 Z " fill="#92AD5C" transform="translate(268,203)"/>
<path d="M0 0 C6.6 0.33 13.2 0.66 20 1 C20 1.66 20 2.32 20 3 C20.5775 3.268125 21.155 3.53625 21.75 3.8125 C24.14298096 5.07546217 26.02381537 6.13861448 28 8 C28.4609375 10.62890625 28.4609375 10.62890625 28.375 13.5625 C28.35566406 15.01849609 28.35566406 15.01849609 28.3359375 16.50390625 C28 19 28 19 26 21 C26.06960938 20.12988281 26.06960938 20.12988281 26.140625 19.2421875 C26.40188883 13.58769173 25.81677597 10.47108042 22 6 C18.92308234 3.94872156 18.06355001 3.72739128 14.55078125 3.5859375 C13.70322266 3.54726563 12.85566406 3.50859375 11.98242188 3.46875 C11.10134766 3.4378125 10.22027344 3.406875 9.3125 3.375 C8.41982422 3.33632813 7.52714844 3.29765625 6.60742188 3.2578125 C4.4051538 3.16359782 2.20289278 3.07798412 0 3 C0 2.01 0 1.02 0 0 Z " fill="#8BA959" transform="translate(292,374)"/>
<path d="M0 0 C0.31241455 2.71446979 0.51336592 5.33909361 0.625 8.0625 C0.68300781 9.20041992 0.68300781 9.20041992 0.7421875 10.36132812 C0.83673562 12.24047195 0.91946756 14.12020336 1 16 C0.505 14.515 0.505 14.515 0 13 C-0.66 13 -1.32 13 -2 13 C-2.495 7.06 -2.495 7.06 -3 1 C-15.54 1 -28.08 1 -41 1 C-41 0.67 -41 0.34 -41 0 C-35.48259702 -0.1674126 -29.96505413 -0.32799286 -24.44726562 -0.48217773 C-22.56928117 -0.53562556 -20.69134937 -0.59095705 -18.81347656 -0.64819336 C-16.11795404 -0.7300268 -13.42231625 -0.80513683 -10.7265625 -0.87890625 C-9.88380768 -0.90594131 -9.04105286 -0.93297638 -8.17276001 -0.96083069 C-2.22774341 -1.11387171 -2.22774341 -1.11387171 0 0 Z " fill="#8AAC49" transform="translate(377,442)"/>
<path d="M0 0 C2.74792483 3.40219265 6 7.48464588 6 12 C6.71542969 12.11214844 7.43085938 12.22429687 8.16796875 12.33984375 C11.19115998 13.04456005 13.56322688 14.13287798 16.3125 15.5625 C17.19550781 16.01753906 18.07851563 16.47257812 18.98828125 16.94140625 C19.65214844 17.29074219 20.31601562 17.64007813 21 18 C18.66682784 18.77772405 16.38564077 19.42415568 14 20 C13.34 19.01 12.68 18.02 12 17 C10.700625 16.814375 9.40125 16.62875 8.0625 16.4375 C5.90625 15.984375 5.90625 15.984375 4 15 C2.29973014 11.80624986 1.6422448 8.5403081 1 5 C0.81308594 4.06800781 0.62617188 3.13601563 0.43359375 2.17578125 C0.29050781 1.45777344 0.14742188 0.73976563 0 0 Z " fill="#91AF5B" transform="translate(391,273)"/>
<path d="M0 0 C0.66 0.33 1.32 0.66 2 1 C1.34 1.66 0.68 2.32 0 3 C-0.99 3 -1.98 3 -3 3 C-3 3.66 -3 4.32 -3 5 C-3.66 5 -4.32 5 -5 5 C-5.144375 5.928125 -5.28875 6.85625 -5.4375 7.8125 C-6 11 -6 11 -7 14 C-8.65 13.67 -10.3 13.34 -12 13 C-12 12.34 -12 11.68 -12 11 C-13.65 12.98 -15.3 14.96 -17 17 C-17 13.49272541 -16.021182 12.28048017 -13.76953125 9.69140625 C-9.76534911 5.86400919 -4.95834244 2.47917122 0 0 Z " fill="#98BF5E" transform="translate(59,289)"/>
<path d="M0 0 C2.08894757 3.13342135 3.49648861 6.22592861 4.98046875 9.671875 C5.84328368 11.64213437 6.7880882 13.57617639 7.75 15.5 C9.29016014 19.81244839 9.27697132 23.47613519 9 28 C6.10091902 23.65137853 4.60009189 18.89169998 2.8125 14 C2.43158203 12.989375 2.05066406 11.97875 1.65820312 10.9375 C1.30306641 9.968125 0.94792969 8.99875 0.58203125 8 C0.25436768 7.113125 -0.0732959 6.22625 -0.41088867 5.3125 C-1 3 -1 3 0 0 Z " fill="#94B456" transform="translate(347,234)"/>
<path d="M0 0 C1.13708622 3.83867406 0.59280131 5.31140749 -1 9 C-1.73613229 11.65304053 -2.3641366 14.32028997 -3 17 C-2.34 17 -1.68 17 -1 17 C-1 17.66 -1 18.32 -1 19 C-4.30350614 22.11997802 -5.32409833 23 -10 23 C-12.64632287 23.3121764 -12.64632287 23.3121764 -15 24 C-15.33 24.66 -15.66 25.32 -16 26 C-16.66 25.34 -17.32 24.68 -18 24 C-17.28714844 23.85949219 -16.57429688 23.71898437 -15.83984375 23.57421875 C-11.5109789 22.25167188 -8.14143339 20.98574345 -5.79199219 16.8984375 C-3.39045348 11.43152011 -1.61454046 5.74311497 0 0 Z " fill="#9DB866" transform="translate(79,264)"/>
<path d="M0 0 C0.33 0 0.66 0 1 0 C1.0994991 5.53176738 1.17176423 11.06300426 1.21972656 16.59545898 C1.2397382 18.47413213 1.26695637 20.3527438 1.30175781 22.23120117 C1.3507397 24.94465373 1.37307329 27.65727696 1.390625 30.37109375 C1.41127014 31.19959335 1.43191528 32.02809296 1.45318604 32.88169861 C1.45568581 39.5021364 -0.0050732 45.78498951 -4.63519287 50.75535583 C-5.08557922 51.16608841 -5.53596558 51.57682098 -6 52 C-6 50.35 -6 48.7 -6 47 C-5.01 47 -4.02 47 -3 47 C-1.42697607 40.87957603 -0.67882123 35.11881667 -0.5859375 28.80859375 C-0.56657135 27.97787857 -0.5472052 27.14716339 -0.5272522 26.29127502 C-0.46812385 23.67344998 -0.42134196 21.05557934 -0.375 18.4375 C-0.33675857 16.64776873 -0.2977034 14.85805464 -0.2578125 13.06835938 C-0.16247857 8.71238148 -0.07820581 4.35631769 0 0 Z " fill="#92B162" transform="translate(435,416)"/>
<path d="M0 0 C0.66 0 1.32 0 2 0 C2.33 1.32 2.66 2.64 3 4 C4.32 4.33 5.64 4.66 7 5 C7 5.99 7 6.98 7 8 C7.66 8 8.32 8 9 8 C9.66 8.66 10.32 9.32 11 10 C12.31747324 10.69748583 13.64914193 11.36959957 15 12 C14.67 13.32 14.34 14.64 14 16 C13.01 16 12.02 16 11 16 C10.67 16.66 10.34 17.32 10 18 C9.72027344 17.34773438 9.44054687 16.69546875 9.15234375 16.0234375 C6.29036523 9.78414028 3.5058481 6.10239663 -2 2 C-1.34 1.34 -0.68 0.68 0 0 Z " fill="#8EAE57" transform="translate(329,200)"/>
<path d="M0 0 C1.30388672 0.00902344 2.60777344 0.01804687 3.95117188 0.02734375 C7.15513832 0.05081603 10.35872264 0.08365273 13.5625 0.125 C13.5625 0.455 13.5625 0.785 13.5625 1.125 C12.78124756 1.13958252 11.99999512 1.15416504 11.19506836 1.16918945 C7.62956632 1.24400498 4.06496623 1.34055633 0.5 1.4375 C-0.72912109 1.46005859 -1.95824219 1.48261719 -3.22460938 1.50585938 C-13.68866128 1.66786439 -13.68866128 1.66786439 -22.33203125 6.984375 C-23.64745061 9.53154746 -23.93727329 11.52155395 -24.125 14.375 C-24.19074219 15.26703125 -24.25648438 16.1590625 -24.32421875 17.078125 C-24.36160156 17.75359375 -24.39898437 18.4290625 -24.4375 19.125 C-24.7675 19.125 -25.0975 19.125 -25.4375 19.125 C-26.05552575 8.3610515 -26.05552575 8.3610515 -23.875 4 C-16.98568388 -1.29947394 -8.25116858 -0.10829398 0 0 Z " fill="#92AE5E" transform="translate(172.4375,374.875)"/>
<path d="M0 0 C4.48566507 3.83655155 5.76162671 9.61821993 7.75 15 C8.17410156 16.10601562 8.59820312 17.21203125 9.03515625 18.3515625 C9.62876953 19.94097656 9.62876953 19.94097656 10.234375 21.5625 C10.59756836 22.53316406 10.96076172 23.50382812 11.33496094 24.50390625 C12 27 12 27 11 30 C7.35819654 23.08057343 3.82650463 15.85179399 3 8 C2.34 8 1.68 8 1 8 C0 2.25 0 2.25 0 0 Z " fill="#8FAE59" transform="translate(362,198)"/>
<path d="M0 0 C0 0.99 0 1.98 0 3 C-3.96 3.66 -7.92 4.32 -12 5 C-12 5.66 -12 6.32 -12 7 C-12.66 7 -13.32 7 -14 7 C-14 7.66 -14 8.32 -14 9 C-14.99 9 -15.98 9 -17 9 C-17.33 9.66 -17.66 10.32 -18 11 C-18.66 10.01 -19.32 9.02 -20 8 C-19.01 7.67 -18.02 7.34 -17 7 C-16.34 7.33 -15.68 7.66 -15 8 C-15 6.68 -15 5.36 -15 4 C-14.38125 3.896875 -13.7625 3.79375 -13.125 3.6875 C-10.63473516 3.12474627 -10.63473516 3.12474627 -9 0 C-5.77646698 -1.33387573 -3.32361268 -0.83090317 0 0 Z " fill="#8CB64A" transform="translate(152,194)"/>
<path d="M0 0 C0.66 0.33 1.32 0.66 2 1 C1.47792969 1.48726563 0.95585937 1.97453125 0.41796875 2.4765625 C-5.57704371 8.25109289 -10.66628962 14.46938385 -15.71484375 21.05859375 C-18 24 -18 24 -20 26 C-19.505 21.545 -19.505 21.545 -19 17 C-18.01 17.33 -17.02 17.66 -16 18 C-12.53028623 13.97652412 -12.53028623 13.97652412 -11 9 C-10.01 9 -9.02 9 -8 9 C-7.9175 8.38125 -7.835 7.7625 -7.75 7.125 C-7 5 -7 5 -5.125 3.9375 C-4.42375 3.628125 -3.7225 3.31875 -3 3 C-1.29078411 1.4587688 -1.29078411 1.4587688 0 0 Z " fill="#316650" transform="translate(416,64)"/>
<path d="M0 0 C1.29675077 3.89025232 0.36921999 5.52963546 -0.9375 9.375 C-2.31023345 13.42340034 -3.26499089 16.71196566 -3 21 C-1.68 19.68 -0.36 18.36 1 17 C0.52269162 18.4589426 0.04308958 19.91713496 -0.4375 21.375 C-0.70433594 22.18710938 -0.97117187 22.99921875 -1.24609375 23.8359375 C-2 26 -2 26 -3 28 C-3.99 28 -4.98 28 -6 28 C-6.57094568 18.29392341 -4.25640864 8.71550341 0 0 Z " fill="#4D7C63" transform="translate(392,105)"/>
<path d="M0 0 C1.32 0 2.64 0 4 0 C4.33 1.32 4.66 2.64 5 4 C5.66 4 6.32 4 7 4 C7.33 5.65 7.66 7.3 8 9 C8.66 9 9.32 9 10 9 C10 9.99 10 10.98 10 12 C10.66 12 11.32 12 12 12 C12 12.66 12 13.32 12 14 C12.99 14 13.98 14 15 14 C15.33 13.34 15.66 12.68 16 12 C16 13.98 16 15.96 16 18 C14.68 18 13.36 18 12 18 C10.25390625 15.83984375 10.25390625 15.83984375 8.5625 12.9375 C5.87825058 8.45989429 3.08597191 4.20814352 0 0 Z " fill="#839E4D" transform="translate(365,66)"/>
<path d="M0 0 C4.92307692 4.30769231 4.92307692 4.30769231 5.3125 7.8125 C5.1578125 8.8953125 5.1578125 8.8953125 5 10 C4.01 10 3.02 10 2 10 C-2.54066806 11.36220042 -4.53848469 15.22702161 -7 19 C-7.66 18.67 -8.32 18.34 -9 18 C-8.27683594 17.05640625 -8.27683594 17.05640625 -7.5390625 16.09375 C-3.59807124 10.7533047 -1.09412886 6.56477314 0 0 Z " fill="#206D48" transform="translate(442,4)"/>
<path d="M0 0 C4.79269169 4.27918901 7.83923932 8.4680193 8.25 14.9375 C8.1675 15.948125 8.085 16.95875 8 18 C7.67 18 7.34 18 7 18 C7 16.02 7 14.04 7 12 C6.34 12 5.68 12 5 12 C4.67 13.32 4.34 14.64 4 16 C3.01 15.67 2.02 15.34 1 15 C1 14.34 1 13.68 1 13 C0.34 12.67 -0.32 12.34 -1 12 C-0.01 11.34 0.98 10.68 2 10 C2.25015873 6.41642759 2.25015873 6.41642759 2 3 C1.34 3 0.68 3 0 3 C0 2.01 0 1.02 0 0 Z " fill="#8EBB4D" transform="translate(425,304)"/>
<path d="M0 0 C-1.57804154 5.60476823 -4.26416385 10.35050626 -7.125 15.375 C-7.59292969 16.20644531 -8.06085938 17.03789062 -8.54296875 17.89453125 C-9.69070549 19.93234954 -10.84313282 21.96735569 -12 24 C-13 22 -13 22 -12.109375 19.21484375 C-11.66078125 18.13332031 -11.2121875 17.05179688 -10.75 15.9375 C-10.31171875 14.85339844 -9.8734375 13.76929688 -9.421875 12.65234375 C-8 10 -8 10 -5 9 C-5.33 6.69 -5.66 4.38 -6 2 C-2.25 0 -2.25 0 0 0 Z " fill="#8DA85C" transform="translate(287,176)"/>
<path d="M0 0 C0.66 0.33 1.32 0.66 2 1 C-4.8607196 7.1913811 -10.55755232 9.51303333 -19.75 9.3125 C-20.88115234 9.31733398 -20.88115234 9.31733398 -22.03515625 9.32226562 C-25.86655972 9.28483628 -27.74522036 9.1698531 -31 7 C-23.74 7 -16.48 7 -9 7 C-8.34 5.68 -7.68 4.36 -7 3 C-3.5 1.1875 -3.5 1.1875 0 0 Z " fill="#92AD61" transform="translate(425,470)"/>
<path d="M0 0 C1.65 0 3.3 0 5 0 C4.67 1.32 4.34 2.64 4 4 C2.68 4 1.36 4 0 4 C-0.33 4.99 -0.66 5.98 -1 7 C-4.3 7 -7.6 7 -11 7 C-11.33 6.01 -11.66 5.02 -12 4 C-6.555 3.505 -6.555 3.505 -1 3 C-0.67 2.01 -0.34 1.02 0 0 Z " fill="#9DC243" transform="translate(292,370)"/>
<path d="M0 0 C1.73132484 5.67927013 1.00475584 11.65556971 -1.3125 17.0625 C-3.23748357 19.27266633 -4.21253382 19.44250676 -7 20 C-5.07443364 13.14381674 -2.7527517 6.56747868 0 0 Z " fill="#93B756" transform="translate(87,243)"/>
<path d="M0 0 C0.33 0.66 0.66 1.32 1 2 C-2.12339643 9.67834955 -7.21041676 16.537963 -15 20 C-15.99 19.67 -16.98 19.34 -18 19 C-14.375 16 -14.375 16 -11 16 C-11 15.01 -11 14.02 -11 13 C-10.38125 12.7525 -9.7625 12.505 -9.125 12.25 C-6.64931313 10.79371361 -6.04874998 9.62187494 -5 7 C-4.34 7 -3.68 7 -3 7 C-2.87625 6.030625 -2.7525 5.06125 -2.625 4.0625 C-2.41875 3.051875 -2.2125 2.04125 -2 1 C-1.34 0.67 -0.68 0.34 0 0 Z " fill="#96AF62" transform="translate(91,457)"/>
<path d="M0 0 C1.98 0.66 3.96 1.32 6 2 C5.896875 2.680625 5.79375 3.36125 5.6875 4.0625 C6.13555589 8.27422541 8.39300676 10.76919052 11 14 C8.125 13.3125 8.125 13.3125 5 12 C3.875 9.5625 3.875 9.5625 3 7 C0.98682781 5.19651922 0.98682781 5.19651922 -1 4 C-0.67 2.68 -0.34 1.36 0 0 Z " fill="#8DAA4D" transform="translate(343,43)"/>
<path d="M0 0 C0.70125 0.7425 1.4025 1.485 2.125 2.25 C4.90708948 5.09906471 4.90708948 5.09906471 8.3125 7.0625 C9.6428125 8.0215625 9.6428125 8.0215625 11 9 C11 10.32 11 11.64 11 13 C10.26394531 13.19335938 9.52789062 13.38671875 8.76953125 13.5859375 C7.30580078 13.97652344 7.30580078 13.97652344 5.8125 14.375 C4.84957031 14.63023437 3.88664063 14.88546875 2.89453125 15.1484375 C0.17789793 15.94766296 -2.39137175 16.9031362 -5 18 C-5 17.34 -5 16.68 -5 16 C-4.34 16 -3.68 16 -3 16 C-3 15.34 -3 14.68 -3 14 C-1.7625 13.67 -0.525 13.34 0.75 13 C1.79414063 12.7215625 1.79414063 12.7215625 2.859375 12.4375 C5 12 5 12 9 12 C9 11.01 9 10.02 9 9 C8.2575 8.773125 7.515 8.54625 6.75 8.3125 C3.4574253 6.7410439 2.02502891 5.00004284 0 2 C0 1.34 0 0.68 0 0 Z " fill="#92AD6A" transform="translate(143,185)"/>
<path d="M0 0 C2.54152079 2.54152079 2.26060808 4.19760983 2.2734375 7.66796875 C2.26570313 8.39628906 2.25796875 9.12460937 2.25 9.875 C2.25773437 10.59558594 2.26546875 11.31617188 2.2734375 12.05859375 C2.25945445 15.85499069 2.12233599 18.78280815 0 22 C-0.66 22 -1.32 22 -2 22 C-2 22.66 -2 23.32 -2 24 C-3.62626404 25.38232443 -5.2925002 26.71937515 -7 28 C-7.66 27.67 -8.32 27.34 -9 27 C-8.27683594 26.22076172 -8.27683594 26.22076172 -7.5390625 25.42578125 C-6.90742187 24.72839844 -6.27578125 24.03101563 -5.625 23.3125 C-4.99851562 22.62800781 -4.37203125 21.94351562 -3.7265625 21.23828125 C-0.07789388 16.5082199 0.23520558 12.5834984 0.125 6.6875 C0.10695313 5.43324219 0.08890625 4.17898438 0.0703125 2.88671875 C0.04710938 1.93410156 0.02390625 0.98148437 0 0 Z " fill="#8EB05E" transform="translate(105,323)"/>
<path d="M0 0 C0.33 0.66 0.66 1.32 1 2 C0.02131869 4.43931143 -1.01300766 6.72052024 -2.1875 9.0625 C-2.64479492 10.03799805 -2.64479492 10.03799805 -3.11132812 11.03320312 C-5.4439563 15.73269092 -5.4439563 15.73269092 -8.12890625 17.0234375 C-10 17 -10 17 -11.75 15.5625 C-12.1625 15.046875 -12.575 14.53125 -13 14 C-12.07832031 13.95875 -11.15664062 13.9175 -10.20703125 13.875 C-6.78985603 13.31185123 -6.78985603 13.31185123 -5.13671875 10.3125 C-4.65847656 9.219375 -4.18023437 8.12625 -3.6875 7 C-3.19636719 5.906875 -2.70523438 4.81375 -2.19921875 3.6875 C-1.80347656 2.800625 -1.40773437 1.91375 -1 1 C-0.67 0.67 -0.34 0.34 0 0 Z " fill="#89A65C" transform="translate(247,249)"/>
<path d="M0 0 C0.99 0.33 1.98 0.66 3 1 C0.36 7.93 -2.28 14.86 -5 22 C-6.31588844 18.05233467 -5.37227984 16.08543015 -4.1875 12.125 C-3.83042969 10.91070312 -3.47335938 9.69640625 -3.10546875 8.4453125 C-2.181333 5.56514382 -1.17089274 2.78683068 0 0 Z " fill="#8BAA58" transform="translate(113,251)"/>
<path d="M0 0 C9.19553997 -0.68823168 17.33385599 0.99807401 26 4 C26.66 4.66 27.32 5.32 28 6 C25.03 5.67 22.06 5.34 19 5 C19 4.34 19 3.68 19 3 C17.72125 3.20625 16.4425 3.4125 15.125 3.625 C12.9453125 3.9765625 12.9453125 3.9765625 11 4 C10.34 3.34 9.68 2.68 9 2 C6.79749008 1.53993654 6.79749008 1.53993654 4.375 1.375 C3.14910156 1.26285156 3.14910156 1.26285156 1.8984375 1.1484375 C1.27195312 1.09945312 0.64546875 1.05046875 0 1 C0 0.67 0 0.34 0 0 Z " fill="#97B563" transform="translate(311,168)"/>
<path d="M0 0 C1.1171875 3.734375 1.1171875 3.734375 0.0625 6.125 C-1.50828489 10.37535911 -1.15674126 14.51545848 -1 19 C-1.66 19.33 -2.32 19.66 -3 20 C-3 19.34 -3 18.68 -3 18 C-3.66 18 -4.32 18 -5 18 C-5.66 19.32 -6.32 20.64 -7 22 C-6.35983027 16.86243532 -4.80299667 12.41209819 -2.9375 7.625 C-2.65583984 6.88894531 -2.37417969 6.15289062 -2.08398438 5.39453125 C-1.39433382 3.5944264 -0.69786068 1.7969379 0 0 Z " fill="#98B663" transform="translate(95,221)"/>
<path d="M0 0 C1.84187025 2.76280538 2.72248277 4.80707826 3.6875 7.9375 C3.95949219 8.79214844 4.23148437 9.64679688 4.51171875 10.52734375 C5.02075548 13.10510574 4.84888744 14.54449337 4 17 C1 16 1 16 -0.6875 12.9375 C-1.120625 11.968125 -1.55375 10.99875 -2 10 C-1.01 9.67 -0.02 9.34 1 9 C0.67 6.03 0.34 3.06 0 0 Z " fill="#83995A" transform="translate(376,90)"/>
<path d="M0 0 C4.42607402 3.77035935 8.44999084 9.27895035 9.31640625 15.140625 C9.3125 17.0625 9.3125 17.0625 9 20 C6.70366176 16.55549263 6.45983515 14.06187717 6 10 C5.01 9.67 4.02 9.34 3 9 C0 2.88888889 0 2.88888889 0 0 Z " fill="#92B046" transform="translate(367,74)"/>
<path d="M0 0 C0.33 0 0.66 0 1 0 C0.125 7.75 0.125 7.75 -1 10 C-1.66 10 -2.32 10 -3 10 C-3.103125 10.763125 -3.20625 11.52625 -3.3125 12.3125 C-4.05790616 15.22636046 -4.84458939 16.02950397 -7 18 C-5.79662881 11.10796502 -3.67864914 5.93919307 0 0 Z " fill="#97B65D" transform="translate(217,50)"/>
<path d="M0 0 C0.66 0.33 1.32 0.66 2 1 C1.67 3.97 1.34 6.94 1 10 C-2.465 11.485 -2.465 11.485 -6 13 C-4.58707905 8.1725201 -2.57025846 4.2837641 0 0 Z " fill="#90B455" transform="translate(309,169)"/>
<path d="M0 0 C3.03115132 3.3198324 3.99048228 6.83443258 5.15625 11.07421875 C5.57390625 12.02748047 5.57390625 12.02748047 6 13 C6.99 13.33 7.98 13.66 9 14 C8.34 14 7.68 14 7 14 C6.67 15.32 6.34 16.64 6 18 C2.63438409 11.9394075 0.38669459 6.96050253 0 0 Z " fill="#91AF5B" transform="translate(324,52)"/>
<path d="M0 0 C1.2077558 3.62326739 0.54311128 4.64146369 -1 8 C-1.66 8 -2.32 8 -3 8 C-2.67 9.32 -2.34 10.64 -2 12 C1.3 12.33 4.6 12.66 8 13 C8 13.33 8 13.66 8 14 C6.22950311 14.05410687 4.45853151 14.09284119 2.6875 14.125 C1.20830078 14.15980469 1.20830078 14.15980469 -0.30078125 14.1953125 C-3 14 -3 14 -6 12 C-4.43358249 7.69235185 -2.31663844 3.93828536 0 0 Z " fill="#8EA067" transform="translate(301,184)"/>
<path d="M0 0 C0.33 0 0.66 0 1 0 C1 3.96 1 7.92 1 12 C0.01 12.495 0.01 12.495 -1 13 C-1 12.34 -1 11.68 -1 11 C-2.32 11 -3.64 11 -5 11 C-3.77782954 6.95743617 -2.37245704 3.50711041 0 0 Z " fill="#94B954" transform="translate(189,102)"/>
<path d="M0 0 C0.33 0.66 0.66 1.32 1 2 C0.00390625 4.1640625 0.00390625 4.1640625 -1.4375 6.625 C-1.91058594 7.44226563 -2.38367188 8.25953125 -2.87109375 9.1015625 C-3.24363281 9.72804687 -3.61617188 10.35453125 -4 11 C-5 8 -5 8 -5 7 C-5.66 7.99 -6.32 8.98 -7 10 C-7.84051229 7.64656559 -8.08353007 6.31555804 -7.4375 3.875 C-5.40004905 1.21745528 -3.16858749 0.82658804 0 0 Z " fill="#96BC53" transform="translate(304,144)"/>
<path d="M0 0 C1.9375 0.5625 1.9375 0.5625 4 2 C5.45026923 6.53209134 5.13441657 9.28629348 3.0625 13.4375 C2.39226744 14.63483071 1.7104474 15.82608476 1 17 C-0.13201694 13.60394919 0.28365351 12.42254433 1 9 C1.13679614 5.58009651 1.08682115 3.26046344 0 0 Z " fill="#97B361" transform="translate(309,119)"/>
<path d="M0 0 C2.04119788 1.61594832 4.04072937 3.2856382 6 5 C6 5.66 6 6.32 6 7 C6.66 7 7.32 7 8 7 C8 7.66 8 8.32 8 9 C7.38125 8.79375 6.7625 8.5875 6.125 8.375 C5.42375 8.25125 4.7225 8.1275 4 8 C3.34 8.66 2.68 9.32 2 10 C-1.07692308 4.58461538 -1.07692308 4.58461538 -0.6875 1.625 C-0.460625 1.08875 -0.23375 0.5525 0 0 Z " fill="#82A73C" transform="translate(339,36)"/>
<path d="M0 0 C0.58007812 0.15597656 1.16015625 0.31195313 1.7578125 0.47265625 C6.52516927 1.66056198 10.12820288 2.24917875 15 1 C12.35787411 2.76141726 9.7572236 4.23818698 6.9375 5.6875 C6.05964844 6.14511719 5.18179687 6.60273437 4.27734375 7.07421875 C3.52582031 7.37972656 2.77429688 7.68523437 2 8 C1.34 7.67 0.68 7.34 0 7 C1.32 6.01 2.64 5.02 4 4 C2.68 4 1.36 4 0 4 C0 2.68 0 1.36 0 0 Z " fill="#28795C" transform="translate(402,106)"/>
<path d="M0 0 C4.875 4.625 4.875 4.625 6 8 C6.61875 8.309375 7.2375 8.61875 7.875 8.9375 C10.40597375 10.20298687 11.44848558 11.67272837 13 14 C12.67 14.66 12.34 15.32 12 16 C9.98739086 14.0952092 7.99046064 12.17769837 6 10.25 C5.42765625 9.71117187 4.8553125 9.17234375 4.265625 8.6171875 C2.76625508 7.15351686 1.37572705 5.58044834 0 4 C0 2.68 0 1.36 0 0 Z " fill="#849F4E" transform="translate(352,49)"/>
<path d="M0 0 C2 2 2 2 2 5 C2.763125 5.28875 3.52625 5.5775 4.3125 5.875 C7 7 7 7 10 9 C10 9.66 10 10.32 10 11 C10.66 11.33 11.32 11.66 12 12 C8.6848818 11.38306096 6.56211749 10.20539241 3.875 8.1875 C3.19179688 7.68605469 2.50859375 7.18460937 1.8046875 6.66796875 C-0.10299843 4.90480448 -0.99957024 3.3773099 -2 1 C-1.34 0.67 -0.68 0.34 0 0 Z " fill="#95AE60" transform="translate(39,465)"/>
<path d="M0 0 C2.4375 0.75 2.4375 0.75 5 2 C5.625 4.0625 5.625 4.0625 6 6 C6.99 6.33 7.98 6.66 9 7 C9 7.66 9 8.32 9 9 C10.65 9.33 12.3 9.66 14 10 C14 10.66 14 11.32 14 12 C7.75503539 10.75100708 3.92489232 6.78159471 0 2 C0 1.34 0 0.68 0 0 Z " fill="#8FAE5B" transform="translate(380,465)"/>
<path d="M0 0 C1.43088528 2.86177057 0.59991697 4.93375773 0 8 C-1.32 8.33 -2.64 8.66 -4 9 C-4.103125 9.78375 -4.20625 10.5675 -4.3125 11.375 C-5 14 -5 14 -8 16 C-6.42986223 10.03347646 -3.24970218 5.17090975 0 0 Z " fill="#9BBA5E" transform="translate(171,135)"/>
<path d="M0 0 C-4.625 4 -4.625 4 -8 4 C-8.4021875 5.1446875 -8.4021875 5.1446875 -8.8125 6.3125 C-9.94424112 8.87380884 -10.91223401 10.19692938 -13 12 C-11.68292571 7.39024 -9.92504831 3.81142658 -7 0 C-3.86650268 -1.04449911 -3.01031744 -0.93423645 0 0 Z " fill="#9AB964" transform="translate(231,38)"/>
<path d="M0 0 C0.77923828 0.61488281 0.77923828 0.61488281 1.57421875 1.2421875 C5.2423777 4.07636576 8.51449706 6.59828033 13 8 C11.1875 9.0625 11.1875 9.0625 9 10 C8.01 9.67 7.02 9.34 6 9 C6 8.34 6 7.68 6 7 C5.38125 6.690625 4.7625 6.38125 4.125 6.0625 C2.75 5.375 1.375 4.6875 0 4 C0 2.68 0 1.36 0 0 Z " fill="#8DB054" transform="translate(365,345)"/>
<path d="M0 0 C0.70394612 1.31403276 1.36345658 2.6520257 2 4 C2.28875 4.598125 2.5775 5.19625 2.875 5.8125 C3.08539868 9.49447691 0.93960809 11.94364785 -1 15 C-1.33 15 -1.66 15 -2 15 C-2.19392201 9.47322267 -1.7479503 5.24385089 0 0 Z " fill="#06512D" transform="translate(390,114)"/>
<path d="M0 0 C1.67888441 0.97934924 3.34338239 1.98343919 5 3 C5.70898438 3.41507812 6.41796875 3.83015625 7.1484375 4.2578125 C9 6 9 6 9.4609375 8.62890625 C9.43257813 9.59699219 9.40421875 10.56507813 9.375 11.5625 C9.36210937 12.53316406 9.34921875 13.50382812 9.3359375 14.50390625 C9 17 9 17 7 19 C7.04640625 18.41992188 7.0928125 17.83984375 7.140625 17.2421875 C7.40188883 11.58769173 6.81677597 8.47108042 3 4 C2.01 3.34 1.02 2.68 0 2 C0 1.34 0 0.68 0 0 Z " fill="#93AF61" transform="translate(311,376)"/>
<path d="M0 0 C-2.28703308 1.19725883 -4.57884862 2.38297018 -6.875 3.5625 C-7.85146484 4.07586914 -7.85146484 4.07586914 -8.84765625 4.59960938 C-10.53529857 5.46082891 -12.26579593 6.23686703 -14 7 C-16 6 -16 6 -17 4 C-14.69 4 -12.38 4 -10 4 C-9.67 3.01 -9.34 2.02 -9 1 C-2.63157895 -1.31578947 -2.63157895 -1.31578947 0 0 Z " fill="#336E4F" transform="translate(433,100)"/>
<path d="M0 0 C1.65 0 3.3 0 5 0 C5 0.66 5 1.32 5 2 C5.99 1.67 6.98 1.34 8 1 C8.66 1.66 9.32 2.32 10 3 C11.31747324 3.69748583 12.64914193 4.36959957 14 5 C14 5.66 14 6.32 14 7 C4.22210581 3.99633316 4.22210581 3.99633316 0 1 C0 0.67 0 0.34 0 0 Z " fill="#88A652" transform="translate(345,83)"/>
<path d="M0 0 C0.66 0 1.32 0 2 0 C1.5188509 5.77378925 -0.18467181 9.95859836 -3 15 C-4.31625194 12.36749612 -3.74813658 11.19820944 -3.0625 8.375 C-2.86785156 7.55773437 -2.67320312 6.74046875 -2.47265625 5.8984375 C-2.31667969 5.27195312 -2.16070312 4.64546875 -2 4 C-1.34 4 -0.68 4 0 4 C0 2.68 0 1.36 0 0 Z " fill="#235F44" transform="translate(457,64)"/>
<path d="M0 0 C5.28 0 10.56 0 16 0 C12.59568053 2.26954631 10.83475798 2.36549949 6.8125 2.625 C5.72582031 2.69976562 4.63914063 2.77453125 3.51953125 2.8515625 C2.68808594 2.90054687 1.85664063 2.94953125 1 3 C0.67 2.01 0.34 1.02 0 0 Z " fill="#9BBA42" transform="translate(184,374)"/>
<path d="M0 0 C3.32901247 2.21934164 3.75023244 3.34683329 5 7 C5.763125 7 6.52625 7 7.3125 7 C9.20833333 7 11.10416667 7 13 7 C11.35 8.32 9.7 9.64 8 11 C3.98232708 8.93687066 1.94736847 7.09972309 0 3 C0 2.01 0 1.02 0 0 Z " fill="#A1B972" transform="translate(29,280)"/>
<path d="M0 0 C0.33 0.66 0.66 1.32 1 2 C-3.93654267 10.50765864 -3.93654267 10.50765864 -8.375 12.5625 C-9.24125 12.706875 -10.1075 12.85125 -11 13 C-10.62488281 12.56429687 -10.24976563 12.12859375 -9.86328125 11.6796875 C-6.54140223 7.81392401 -3.25357073 3.92342352 0 0 Z " fill="#2B7553" transform="translate(442,36)"/>
<path d="M0 0 C0.66 0 1.32 0 2 0 C0.59155282 3.21524305 -1.10344786 5.32183868 -3.625 7.75 C-4.57246094 8.67039062 -4.57246094 8.67039062 -5.5390625 9.609375 C-6.02117187 10.06828125 -6.50328125 10.5271875 -7 11 C-6.67 11.66 -6.34 12.32 -6 13 C-7.32 13 -8.64 13 -10 13 C-9.44243814 9.46368301 -8.35846524 8.11730658 -5.5625 5.9375 C-3.08722511 3.98931914 -1.79578076 2.69367114 0 0 Z " fill="#095431" transform="translate(439,37)"/>
<path d="M0 0 C2.0625 0.4375 2.0625 0.4375 4 1 C2.52307692 6.66153846 2.52307692 6.66153846 -0.125 8.375 C-0.74375 8.58125 -1.3625 8.7875 -2 9 C-1.125 1.125 -1.125 1.125 0 0 Z " fill="#8DB253" transform="translate(268,203)"/>
<path d="M0 0 C0.33 0.66 0.66 1.32 1 2 C0.360625 2.45375 -0.27875 2.9075 -0.9375 3.375 C-3.09702406 4.83921726 -3.09702406 4.83921726 -4 7 C-5.84765625 7.6328125 -5.84765625 7.6328125 -8.0625 8.125 C-8.79597656 8.29257812 -9.52945312 8.46015625 -10.28515625 8.6328125 C-10.85105469 8.75398438 -11.41695313 8.87515625 -12 9 C-8.32442148 4.99027798 -4.81033104 2.54664585 0 0 Z " fill="#316D53" transform="translate(414,35)"/>
<path d="M0 0 C2.4375 0.875 2.4375 0.875 4.4375 3.875 C4.6328125 6.57421875 4.6328125 6.57421875 4.5625 9.5625 C4.54445312 10.55636719 4.52640625 11.55023438 4.5078125 12.57421875 C4.47300781 13.71310547 4.47300781 13.71310547 4.4375 14.875 C4.1075 14.875 3.7775 14.875 3.4375 14.875 C3.38851562 14.17632812 3.33953125 13.47765625 3.2890625 12.7578125 C3.21429688 11.84773438 3.13953125 10.93765625 3.0625 10 C2.99289063 9.09507813 2.92328125 8.19015625 2.8515625 7.2578125 C2.64181868 4.69558097 2.64181868 4.69558097 0.4375 2.875 C-2.64597826 2.70818891 -2.64597826 2.70818891 -5.5625 2.875 C-3.71830214 0.44842386 -3.12817806 -0.15259405 0 0 Z " fill="#A0BB76" transform="translate(230.5625,35.125)"/>
<path d="M0 0 C0.33 0 0.66 0 1 0 C1.33 5.28 1.66 10.56 2 16 C1.01 16.33 0.02 16.66 -1 17 C-1.33 16.01 -1.66 15.02 -2 14 C-1.67 13.34 -1.34 12.68 -1 12 C-0.77141886 9.9625237 -0.58975722 7.91959697 -0.4375 5.875 C-0.35371094 4.77929688 -0.26992188 3.68359375 -0.18359375 2.5546875 C-0.12300781 1.71164062 -0.06242187 0.86859375 0 0 Z " fill="#89B547" transform="translate(59,325)"/>
<path d="M0 0 C1 3 1 3 -0.6875 6.625 C-2.63475967 9.84781653 -2.63475967 9.84781653 -5.25 10.9375 C-5.8275 10.958125 -6.405 10.97875 -7 11 C-7.99 9.68 -8.98 8.36 -10 7 C-8.906875 6.95875 -7.81375 6.9175 -6.6875 6.875 C-2.75003667 6.39434602 -2.75003667 6.39434602 -1.0625 2.9375 C-0.711875 1.968125 -0.36125 0.99875 0 0 Z " fill="#98AE6C" transform="translate(437,280)"/>
<path d="M0 0 C2.125 0.9375 2.125 0.9375 4 2 C3.67 3.32 3.34 4.64 3 6 C2.01 6 1.02 6 0 6 C-0.33 6.66 -0.66 7.32 -1 8 C-1.33 5.69 -1.66 3.38 -2 1 C-1.34 0.67 -0.68 0.34 0 0 Z " fill="#8FBA4F" transform="translate(340,210)"/>
<path d="M0 0 C5.32697239 1.45281065 8.36402802 5.08111378 12 9 C11.01 9.33 10.02 9.66 9 10 C5.84950652 8.18607951 4.38009621 6.33523252 3 3 C2.34 3 1.68 3 1 3 C0.67 2.01 0.34 1.02 0 0 Z " fill="#8FB15B" transform="translate(339,174)"/>
<path d="M0 0 C0 0.99 0 1.98 0 3 C-0.99 3 -1.98 3 -3 3 C-3 4.32 -3 5.64 -3 7 C-5.31 7 -7.62 7 -10 7 C-7.0094833 3.66442368 -4.06815373 1.84916079 0 0 Z " fill="#97B861" transform="translate(131,173)"/>
<path d="M0 0 C0.33 0.66 0.66 1.32 1 2 C1.66 2.33 2.32 2.66 3 3 C2.01 3.33 1.02 3.66 0 4 C-0.0825 4.78375 -0.165 5.5675 -0.25 6.375 C-1 9 -1 9 -3.0625 10.3125 C-4.0215625 10.6528125 -4.0215625 10.6528125 -5 11 C-3.77472971 6.94718288 -2.30119506 3.55639236 0 0 Z " fill="#94B458" transform="translate(177,124)"/>
<path d="M0 0 C3.7952131 1.49097658 5.61042731 3.75700849 8 7 C7.67 7.66 7.34 8.32 7 9 C5.1875 8.8125 5.1875 8.8125 3 8 C0.85802506 5.09303401 0 3.64478912 0 0 Z " fill="#8BA74C" transform="translate(359,65)"/>
<path d="M0 0 C0.66 1.32 1.32 2.64 2 4 C0.35 5.65 -1.3 7.3 -3 9 C-3.33 8.34 -3.66 7.68 -4 7 C-6.02463255 6.34786708 -6.02463255 6.34786708 -8 6 C-7.05125 5.566875 -6.1025 5.13375 -5.125 4.6875 C-1.79958063 3.20697799 -1.79958063 3.20697799 0 0 Z " fill="#91B455" transform="translate(317,395)"/>
<path d="M0 0 C0.66 0 1.32 0 2 0 C1.42365861 4.75481646 -0.55068521 7.97048212 -3 12 C-3.33 12 -3.66 12 -4 12 C-4.125 9.625 -4.125 9.625 -4 7 C-3.34 6.34 -2.68 5.68 -2 5 C-1.29289322 3.35008418 -0.62056011 1.68437744 0 0 Z " fill="#8FAF55" transform="translate(296,155)"/>
<path d="M0 0 C0.33 0.66 0.66 1.32 1 2 C0.34 2 -0.32 2 -1 2 C-1.2475 2.598125 -1.495 3.19625 -1.75 3.8125 C-3.16370012 6.28647521 -4.65055383 7.43370255 -7 9 C-6.67 6.36 -6.34 3.72 -6 1 C-5.01 1 -4.02 1 -3 1 C-2.01 0.67 -1.02 0.34 0 0 Z " fill="#27654F" transform="translate(425,55)"/>
<path d="M0 0 C0.66 0.33 1.32 0.66 2 1 C1.34 1.66 0.68 2.32 0 3 C-0.99 3 -1.98 3 -3 3 C-3 3.66 -3 4.32 -3 5 C-3.66 5 -4.32 5 -5 5 C-5.33 5.99 -5.66 6.98 -6 8 C-7.32 7.67 -8.64 7.34 -10 7 C-8.70982586 6.01886757 -7.41780894 5.04015801 -6.125 4.0625 C-5.04605469 3.24458984 -5.04605469 3.24458984 -3.9453125 2.41015625 C-2 1 -2 1 0 0 Z " fill="#9BB76B" transform="translate(59,289)"/>
<path d="M0 0 C0.99 0.33 1.98 0.66 3 1 C-5.8 7 -5.8 7 -10 7 C-9 4 -9 4 -7.1875 3.0859375 C-6.465625 2.85132813 -5.74375 2.61671875 -5 2.375 C-2.25730729 1.58884867 -2.25730729 1.58884867 0 0 Z " fill="#94B85B" transform="translate(46,281)"/>
<path d="M0 0 C3.3 0 6.6 0 10 0 C10.33 0.99 10.66 1.98 11 3 C10.34 3 9.68 3 9 3 C9 3.66 9 4.32 9 5 C5.35008834 3.68197635 3.2104799 2.40785992 0 0 Z " fill="#97B763" transform="translate(411,277)"/>
<path d="M0 0 C-1.78881736 1.00508801 -3.58114696 2.00392736 -5.375 3 C-6.37273438 3.556875 -7.37046875 4.11375 -8.3984375 4.6875 C-11 6 -11 6 -13 6 C-12.00155126 3.37907206 -11.44154671 2.22818739 -8.90625 0.91796875 C-8.1121875 0.67691406 -7.318125 0.43585938 -6.5 0.1875 C-5.7059375 -0.06644531 -4.911875 -0.32039063 -4.09375 -0.58203125 C-2 -1 -2 -1 0 0 Z " fill="#A0BE70" transform="translate(62,275)"/>
<path d="M0 0 C0.66 0 1.32 0 2 0 C1.5020163 3.73487777 1.12508244 5.81237635 -1 9 C-1.99 8.67 -2.98 8.34 -4 8 C-2.68 5.36 -1.36 2.72 0 0 Z " fill="#92B15A" transform="translate(64,265)"/>
<path d="M0 0 C0.75 1.75 0.75 1.75 1 4 C-0.31129922 5.35500919 -1.64691687 6.68671343 -3 8 C-3.79681318 10.64184541 -3.79681318 10.64184541 -4 13 C-4.66 12.67 -5.32 12.34 -6 12 C-4.68139111 7.38486888 -2.78644563 3.90102388 0 0 Z " fill="#0B5B37" transform="translate(401,92)"/>
<path d="M0 0 C1.0625 1.875 1.0625 1.875 2 4 C1.67 4.66 1.34 5.32 1 6 C0.34 6 -0.32 6 -1 6 C-1.12117188 6.63808594 -1.24234375 7.27617187 -1.3671875 7.93359375 C-1.53476563 8.75988281 -1.70234375 9.58617187 -1.875 10.4375 C-2.03742188 11.26121094 -2.19984375 12.08492187 -2.3671875 12.93359375 C-2.57601562 13.61550781 -2.78484375 14.29742187 -3 15 C-3.99 15.495 -3.99 15.495 -5 16 C-4.34309381 12.21760329 -3.279869 8.78158474 -1.9375 5.1875 C-1.57527344 4.21167969 -1.21304688 3.23585937 -0.83984375 2.23046875 C-0.42412109 1.12638672 -0.42412109 1.12638672 0 0 Z " fill="#A3B874" transform="translate(102,202)"/>
<path d="M0 0 C2.046875 3.71875 2.046875 3.71875 1.625 6.25 C1.41875 6.8275 1.2125 7.405 1 8 C-0.32 8 -1.64 8 -3 8 C-3.33 8.99 -3.66 9.98 -4 11 C-4.33 10.34 -4.66 9.68 -5 9 C-4.00390625 6.8359375 -4.00390625 6.8359375 -2.5625 4.375 C-2.08941406 3.55773437 -1.61632812 2.74046875 -1.12890625 1.8984375 C-0.75636719 1.27195313 -0.38382813 0.64546875 0 0 Z " fill="#99BF58" transform="translate(162,151)"/>
<path d="M0 0 C0.33 0.66 0.66 1.32 1 2 C1.66 2 2.32 2 3 2 C3.33 6.29 3.66 10.58 4 15 C2.25674553 12.3851183 1.58412043 10.9946567 0.875 8.0625 C0.70742188 7.39347656 0.53984375 6.72445313 0.3671875 6.03515625 C0 4 0 4 0 0 Z " fill="#095633" transform="translate(455,25)"/>
<path d="M0 0 C0.33 1.32 0.66 2.64 1 4 C0.01 4.495 0.01 4.495 -1 5 C-1.65555119 7.52733235 -1.65555119 7.52733235 -2 10 C-2.66 10 -3.32 10 -4 10 C-4.66 11.32 -5.32 12.64 -6 14 C-5.41162314 9.29298514 -3.44104424 3.44104424 0 0 Z " fill="#86AA4C" transform="translate(336,9)"/>
<path d="M0 0 C1.43861294 0.08746284 2.87597508 0.19565348 4.3125 0.3125 C5.11300781 0.37050781 5.91351563 0.42851562 6.73828125 0.48828125 C9.36272334 1.08206694 10.30820672 1.95780294 12 4 C9.33333333 4 6.66666667 4 4 4 C3.67 3.34 3.34 2.68 3 2 C2.01 1.34 1.02 0.68 0 0 Z " fill="#91B54E" transform="translate(400,288)"/>
<path d="M0 0 C2.97 0 5.94 0 9 0 C9.33 1.32 9.66 2.64 10 4 C8.5625 6.25 8.5625 6.25 7 8 C7 5.69 7 3.38 7 1 C4.69 1 2.38 1 0 1 C0 0.67 0 0.34 0 0 Z " fill="#9DB170" transform="translate(60,254)"/>
<path d="M0 0 C2.10388569 -0.05402274 4.20816714 -0.09280256 6.3125 -0.125 C8.07013672 -0.15980469 8.07013672 -0.15980469 9.86328125 -0.1953125 C13 0 13 0 16 2 C16 2.66 16 3.32 16 4 C14.5459375 3.5359375 14.5459375 3.5359375 13.0625 3.0625 C8.76335509 1.82032903 4.44657366 1.38315147 0 1 C0 0.67 0 0.34 0 0 Z " fill="#98B065" transform="translate(311,197)"/>
<path d="M0 0 C0.66 0.33 1.32 0.66 2 1 C0.625 3.5 0.625 3.5 -1 6 C-1.66 6 -2.32 6 -3 6 C-3.66 7.65 -4.32 9.3 -5 11 C-5.33 10.34 -5.66 9.68 -6 9 C-5.29296875 7.08984375 -5.29296875 7.08984375 -4.1875 4.9375 C-3.83042969 4.22464844 -3.47335938 3.51179688 -3.10546875 2.77734375 C-2 1 -2 1 0 0 Z " fill="#97B365" transform="translate(204,76)"/>
<path d="M0 0 C4.78504172 2.48454089 7.86077669 4.47951843 11 9 C10.01 9.33 9.02 9.66 8 10 C7.67 9.01 7.34 8.02 7 7 C5.34051852 5.98812105 3.67419438 4.9873454 2 4 C2 3.34 2 2.68 2 2 C1.34 2 0.68 2 0 2 C0 1.34 0 0.68 0 0 Z " fill="#89A457" transform="translate(363,37)"/>
<path d="M0 0 C1.52299523 2.93720508 2.80100302 5.9168649 4 9 C3.01 8.34 2.02 7.68 1 7 C0.34 7.66 -0.32 8.32 -1 9 C-1.625 5.625 -1.625 5.625 -2 2 C-1.34 1.34 -0.68 0.68 0 0 Z " fill="#134D35" transform="translate(444,0)"/>
<path d="M0 0 C0.33 1.32 0.66 2.64 1 4 C-3.75 8 -3.75 8 -6 8 C-5.25 5.5625 -5.25 5.5625 -4 3 C-1.875 2.1875 -1.875 2.1875 0 2 C0 1.34 0 0.68 0 0 Z " fill="#88C23C" transform="translate(434,277)"/>
<path d="M0 0 C0.33 0 0.66 0 1 0 C0.67 3.96 0.34 7.92 0 12 C-0.66 11.67 -1.32 11.34 -2 11 C-2.28571429 3.57142857 -2.28571429 3.57142857 0 0 Z " fill="#93B15C" transform="translate(156,162)"/>
<path d="M0 0 C0.33 0 0.66 0 1 0 C1 2.31 1 4.62 1 7 C0.01 7.33 -0.98 7.66 -2 8 C-2 8.66 -2 9.32 -2 10 C-2.66 10 -3.32 10 -4 10 C-2.8905928 6.51329166 -1.73662334 3.22515763 0 0 Z " fill="#98B75F" transform="translate(194,92)"/>
<path d="M0 0 C1 3 1 3 0.5 5.9375 C0.03154544 8.8067842 0.06784834 10.30711744 1 13 C-0.32 13.33 -1.64 13.66 -3 14 C-2.58846263 9.02906176 -2.20399168 4.55491614 0 0 Z " fill="#316C50" transform="translate(389,58)"/>
<path d="M0 0 C0.33 0.66 0.66 1.32 1 2 C0.36328125 3.875 0.36328125 3.875 -0.6875 6 C-1.18830078 7.051875 -1.18830078 7.051875 -1.69921875 8.125 C-3.21910635 10.31582897 -4.55687434 11.01246289 -7 12 C-5.44298069 7.32894208 -2.91552627 3.91294315 0 0 Z " fill="#045931" transform="translate(443,37)"/>
<path d="M0 0 C3.33557632 2.9905167 5.15083921 5.93184627 7 10 C5.68 9.67 4.36 9.34 3 9 C2.67 7.02 2.34 5.04 2 3 C1.34 3 0.68 3 0 3 C0 2.01 0 1.02 0 0 Z " fill="#90AC5A" transform="translate(425,304)"/>
<path d="M0 0 C0.66 1.32 1.32 2.64 2 4 C1.01 4.33 0.02 4.66 -1 5 C-1.99 6.485 -1.99 6.485 -3 8 C-3.66 8 -4.32 8 -5 8 C-5 8.99 -5 9.98 -5 11 C-5.66 10.67 -6.32 10.34 -7 10 C-4.93992341 6.39486597 -2.6486859 3.19668988 0 0 Z " fill="#8CB74E" transform="translate(47,299)"/>
<path d="M0 0 C1.37432457 3.81756824 0.67975039 7.07255329 0 11 C-1.32 11.33 -2.64 11.66 -4 12 C-3.52309796 10.37433394 -3.04340334 8.74948689 -2.5625 7.125 C-2.29566406 6.22007812 -2.02882813 5.31515625 -1.75390625 4.3828125 C-1 2 -1 2 0 0 Z " fill="#A3BF78" transform="translate(84,251)"/>
<path d="M0 0 C0.33 0.66 0.66 1.32 1 2 C0.00390625 4.1640625 0.00390625 4.1640625 -1.4375 6.625 C-1.91058594 7.44226563 -2.38367188 8.25953125 -2.87109375 9.1015625 C-3.24363281 9.72804687 -3.61617187 10.35453125 -4 11 C-5 8 -5 8 -3.6875 4.375 C-2 1 -2 1 0 0 Z " fill="#91B05F" transform="translate(257,230)"/>
<path d="M0 0 C-0.8125 2.9375 -0.8125 2.9375 -2 6 C-2.99 6.33 -3.98 6.66 -5 7 C-5.33 5.35 -5.66 3.7 -6 2 C-2.25 0 -2.25 0 0 0 Z " fill="#8DB152" transform="translate(287,176)"/>
<path d="M0 0 C3.15111212 2.52952288 3.58798017 4.76756266 4.1875 8.6875 C4.42533203 10.17830078 4.42533203 10.17830078 4.66796875 11.69921875 C4.77753906 12.45847656 4.88710938 13.21773438 5 14 C2.96470413 11.96470413 2.3615728 10.76582618 1.375 8.125 C1.11460937 7.44695312 0.85421875 6.76890625 0.5859375 6.0703125 C0 4 0 4 0 0 Z " fill="#9BB371" transform="translate(398,255)"/>
<path d="M0 0 C2.94586829 4.41880243 3.0985616 6.67767339 3 12 C0.52075165 8.28112748 -0.08484002 5.36460914 -1 1 C-0.67 0.67 -0.34 0.34 0 0 Z " fill="#9AB565" transform="translate(347,234)"/>
<path d="M0 0 C1.70840281 1.63412443 2.93453047 2.86906094 4 5 C4.04022391 7.3329866 4.04320247 9.66706666 4 12 C2.09681116 9.14521674 1.5380901 7.58058692 0.875 4.3125 C0.70742188 3.50425781 0.53984375 2.69601563 0.3671875 1.86328125 C0.24601562 1.24839844 0.12484375 0.63351563 0 0 Z " fill="#85A248" transform="translate(372,82)"/>
<path d="M0 0 C0.99 0.33 1.98 0.66 3 1 C3.33 4.63 3.66 8.26 4 12 C2.09681116 9.14521674 1.5380901 7.58058692 0.875 4.3125 C0.70742188 3.50425781 0.53984375 2.69601563 0.3671875 1.86328125 C0.24601562 1.24839844 0.12484375 0.63351563 0 0 Z " fill="#92B058" transform="translate(342,223)"/>
<path d="M0 0 C0.66 1.32 1.32 2.64 2 4 C1.01 5.485 1.01 5.485 0 7 C-0.66 7 -1.32 7 -2 7 C-2.33 7.99 -2.66 8.98 -3 10 C-3.33 9.34 -3.66 8.68 -4 8 C-3.22265625 6.0546875 -3.22265625 6.0546875 -2.0625 3.875 C-1.49208984 2.78832031 -1.49208984 2.78832031 -0.91015625 1.6796875 C-0.60980469 1.12539062 -0.30945313 0.57109375 0 0 Z " fill="#9AB45E" transform="translate(182,114)"/>
<path d="M0 0 C3.3 1.65 6.6 3.3 10 5 C9.01 5.66 8.02 6.32 7 7 C4.0625 5.75 4.0625 5.75 1 4 C0.67 2.68 0.34 1.36 0 0 Z " fill="#93B05E" transform="translate(68,348)"/>
<path d="M0 0 C0.33 0 0.66 0 1 0 C1.99 3.63 2.98 7.26 4 11 C3.01 10.67 2.02 10.34 1 10 C-0.60725635 6.78548731 -0.05748185 3.56387464 0 0 Z " fill="#8DAD58" transform="translate(361,334)"/>
<path d="M0 0 C0.33 0 0.66 0 1 0 C0.979375 0.78375 0.95875 1.5675 0.9375 2.375 C0.81315937 4.98114961 0.81315937 4.98114961 2 7 C0.02 7.99 0.02 7.99 -2 9 C-2.25 3.375 -2.25 3.375 0 0 Z " fill="#8EB451" transform="translate(197,87)"/>
<path d="M0 0 C0.66 0.66 1.32 1.32 2 2 C-2.625 6.875 -2.625 6.875 -6 8 C-4.55746343 4.63408134 -2.66735273 2.48952921 0 0 Z " fill="#065833" transform="translate(400,46)"/>
<path d="M0 0 C3.37462715 0.54723683 5.08235 1.0549 8 3 C7.67 3.66 7.34 4.32 7 5 C4.0625 4.1875 4.0625 4.1875 1 3 C0.67 2.01 0.34 1.02 0 0 Z " fill="#9BB86B" transform="translate(422,255)"/>
<path d="M0 0 C1 3 1 3 0.25 5.625 C-1 8 -1 8 -4 9 C-2.94124926 5.59687262 -1.99097846 2.98646769 0 0 Z " fill="#829E4C" transform="translate(301,184)"/>
<path d="M0 0 C-5.75 4 -5.75 4 -8 4 C-8 3.01 -8 2.02 -8 1 C-2.25 -1.125 -2.25 -1.125 0 0 Z " fill="#055732" transform="translate(408,110)"/>
<path d="M0 0 C0.66 0 1.32 0 2 0 C2 0.66 2 1.32 2 2 C2.99 2.33 3.98 2.66 5 3 C4.34 3 3.68 3 3 3 C2.67 4.32 2.34 5.64 2 7 C0 4 0 4 0 0 Z " fill="#89AE4F" transform="translate(328,63)"/>
<path d="M0 0 C4.875 4.75 4.875 4.75 6 7 C4.02 6.34 2.04 5.68 0 5 C0 3.35 0 1.7 0 0 Z " fill="#94AF56" transform="translate(348,50)"/>
<path d="M0 0 C0.66 0.66 1.32 1.32 2 2 C1.34 3.32 0.68 4.64 0 6 C-1.32 5.67 -2.64 5.34 -4 5 C-2.68 3.35 -1.36 1.7 0 0 Z " fill="#0C5C3A" transform="translate(435,48)"/>
<path d="M0 0 C0.66 0.33 1.32 0.66 2 1 C0.35 2.98 -1.3 4.96 -3 7 C-3.99 6.67 -4.98 6.34 -6 6 C-6 5.34 -6 4.68 -6 4 C-5.38125 3.896875 -4.7625 3.79375 -4.125 3.6875 C-1.63473516 3.12474627 -1.63473516 3.12474627 0 0 Z " fill="#37815B" transform="translate(434,47)"/>
</svg>
