<svg version="1.1" id="Layer_1" xmlns="http://www.w3.org/2000/svg" xmlns:xlink="http://www.w3.org/1999/xlink" x="0px" y="0px"
	 width="100%" viewBox="0 0 496 496" enable-background="new 0 0 496 496" xml:space="preserve">
<path fill="#000000" opacity="1.000000" stroke="none" 
	d="
M118.999390,319.366150 
	C104.172691,319.366089 89.844734,319.461395 75.519684,319.299835 
	C71.760300,319.257416 70.171700,320.201965 70.200111,324.317078 
	C70.250694,331.644196 66.312279,335.701538 58.854374,336.096008 
	C52.376118,336.438690 45.851624,336.434204 39.372646,336.098724 
	C31.816549,335.707520 27.673477,331.386353 27.859957,323.806488 
	C28.215511,309.354095 26.407249,294.829742 29.126209,280.457886 
	C29.475468,278.611725 28.430317,277.640350 27.429899,276.578827 
	C25.031284,274.033691 22.408092,271.684845 20.158718,269.017975 
	C16.582403,264.777863 16.925680,259.172363 20.727072,255.472855 
	C24.423233,251.875748 30.306219,251.661163 34.372505,255.061401 
	C35.774067,256.233398 36.943645,257.682495 38.343334,258.857117 
	C39.718430,260.011139 40.720715,261.684174 42.762489,262.184418 
	C44.990055,260.299622 44.810638,257.405945 45.486252,254.956085 
	C47.076408,249.189987 48.211235,243.299866 49.724335,237.510635 
	C52.792130,225.772995 61.031296,219.037827 73.196075,218.916931 
	C94.017967,218.709976 114.844643,218.709702 135.666733,218.901398 
	C147.939590,219.014389 156.305145,226.044968 159.268784,237.992966 
	C161.223297,245.872696 163.181458,253.751541 165.220306,261.962280 
	C168.367737,261.090912 169.866577,258.818146 171.707809,257.076111 
	C177.194244,251.885193 183.335968,251.217545 187.607117,255.439178 
	C191.972824,259.754303 191.308075,266.199402 185.926224,271.715881 
	C185.344574,272.312103 184.813766,272.978668 184.156464,273.476807 
	C180.368958,276.347198 178.665390,279.802704 180.368317,284.624603 
	C181.996445,289.234589 180.622910,294.220978 181.644119,298.920807 
	C187.278900,298.794495 192.276398,293.658844 192.724701,287.070282 
	C193.210312,279.933624 193.589264,272.750610 193.342575,265.611023 
	C192.761215,248.786499 193.100861,231.965790 193.138245,215.144867 
	C193.144791,212.196426 192.321350,210.831345 189.506882,209.664520 
	C179.067184,205.336395 173.630249,193.201202 176.796509,182.229507 
	C177.565018,179.566422 179.695709,179.066788 181.875320,179.136765 
	C185.562561,179.255203 186.911209,177.730789 186.748154,174.073837 
	C186.606125,170.888397 185.896729,166.313324 190.617462,166.379059 
	C195.407364,166.445740 194.089233,171.084900 194.349976,174.229416 
	C194.506638,176.118515 193.792572,178.620422 196.816833,178.794052 
	C200.206070,178.988647 199.674225,176.314590 199.809708,174.221222 
	C199.841934,173.723389 199.812729,173.221848 199.822266,172.722214 
	C199.877747,169.813705 199.908188,166.430527 203.669037,166.267166 
	C207.622025,166.095490 207.821960,169.736649 207.746445,172.467072 
	C207.624817,176.864502 208.761612,179.484604 213.748001,179.391281 
	C215.744171,179.353928 216.886612,180.857132 217.289017,182.953445 
	C219.702316,195.525650 215.554810,204.290588 203.900787,209.962921 
	C200.624603,211.557541 200.929901,214.019241 200.927002,216.608826 
	C200.903824,237.266083 200.947647,257.923431 200.918121,278.580658 
	C200.913864,281.568542 200.806870,284.578125 200.440094,287.539581 
	C199.297516,296.765076 194.379837,303.412048 185.724335,306.648254 
	C181.958191,308.056427 180.924423,310.045410 181.157791,313.655365 
	C181.372253,316.972778 181.303864,320.320740 181.160614,323.646637 
	C180.817657,331.609863 177.051147,335.687500 169.136246,336.092682 
	C162.822723,336.415863 156.467087,336.408478 150.152664,336.094757 
	C142.543854,335.716736 138.865463,331.759888 138.736649,323.864441 
	C138.678864,320.321564 137.385941,319.172607 133.989655,319.310822 
	C129.166763,319.507141 124.330040,319.363800 118.999390,319.366150 
M44.607510,271.048767 
	C38.026051,276.139954 35.455181,283.089142 35.363617,291.151520 
	C35.308773,295.980164 35.656334,300.834656 35.266159,305.632263 
	C34.868549,310.521301 36.679466,311.889832 41.456997,311.784180 
	C57.763321,311.423553 74.078827,311.376373 90.390671,311.389832 
	C116.530426,311.411407 142.670212,311.552460 168.809540,311.715485 
	C171.822739,311.734283 173.007889,310.485565 172.982529,307.560944 
	C172.932007,301.733368 173.041824,295.904602 173.032425,290.076447 
	C173.009674,275.949402 163.776260,266.428650 149.696411,266.381470 
	C119.555946,266.280487 89.414917,266.350342 59.274113,266.343628 
	C54.142368,266.342499 49.404640,267.615021 44.607510,271.048767 
M100.607323,255.863281 
	C100.631584,247.555679 100.538689,239.245316 100.735855,230.941818 
	C100.818565,227.458435 99.543251,226.235565 96.094986,226.322556 
	C88.954597,226.502686 81.803268,226.246063 74.662659,226.421677 
	C68.642220,226.569748 62.711613,227.958527 59.632095,233.615143 
	C55.497593,241.209595 54.695820,249.846222 52.811615,258.650848 
	C68.152008,258.650848 82.745323,258.652100 97.338638,258.648895 
	C98.771645,258.648590 99.954300,258.214325 100.607323,255.863281 
M114.701149,226.380310 
	C109.706467,225.555496 107.890129,227.486038 108.203804,232.662628 
	C108.636368,239.801132 108.444641,246.988647 108.261063,254.148529 
	C108.170563,257.678314 109.562820,258.779938 112.968735,258.739532 
	C124.463821,258.603210 135.961945,258.742981 147.458084,258.661041 
	C150.194138,258.641571 153.026688,259.251587 156.184525,258.034729 
	C154.666580,251.719772 153.101593,245.627350 151.752869,239.487396 
	C150.223846,232.526672 146.047653,228.412628 139.082291,227.087494 
	C131.311508,225.609100 123.460655,226.710602 114.701149,226.380310 
M184.264648,191.358932 
	C185.201859,199.090912 190.722229,204.099335 197.773514,203.615005 
	C204.423981,203.158234 209.657028,197.682922 209.778931,191.282593 
	C209.833313,188.427124 208.914917,186.895462 205.849106,186.939514 
	C199.885620,187.025208 193.920593,187.010330 187.956192,187.022202 
	C185.595123,187.026901 184.130463,187.936050 184.264648,191.358932 
M55.296722,327.983948 
	C55.960869,327.983337 56.625717,327.962585 57.289047,327.985565 
	C60.602112,328.100128 62.603745,327.029907 62.709061,323.209290 
	C62.825661,318.979431 60.114838,319.355438 57.402336,319.361816 
	C51.591019,319.375488 45.779545,319.377838 39.968330,319.347076 
	C37.508591,319.334045 35.270004,319.294678 35.319530,322.835602 
	C35.364365,326.041168 36.460602,327.939667 39.898258,327.943207 
	C44.713261,327.948181 49.528248,327.968872 55.296722,327.983948 
M167.192856,328.002197 
	C167.524796,327.997955 167.857925,327.973297 168.188492,327.992554 
	C172.347504,328.234436 173.154114,325.604828 173.184219,322.236877 
	C173.219955,318.239594 170.192215,319.454224 168.160126,319.406219 
	C162.353760,319.268982 156.541443,319.405731 150.733002,319.324982 
	C148.080765,319.288147 146.271820,319.708557 146.255524,323.042664 
	C146.239349,326.353760 147.366989,328.040802 150.821106,328.000031 
	C155.965836,327.939301 161.111954,327.995728 167.192856,328.002197 
M26.634951,265.009064 
	C28.157370,266.506653 29.655451,268.030151 31.210585,269.492950 
	C32.285072,270.503662 33.456253,270.858246 34.660168,269.631348 
	C35.824165,268.445099 35.621658,267.247803 34.589211,266.155212 
	C33.123386,264.603973 31.630186,263.071686 30.057310,261.631073 
	C29.069416,260.726257 27.850754,259.959381 26.535141,261.003540 
	C25.302879,261.981567 25.302664,263.231323 26.634951,265.009064 
M181.110565,260.627747 
	C177.281998,260.818237 175.686478,264.104431 173.536331,266.412018 
	C171.962585,268.100983 173.514450,269.633636 175.246582,270.013062 
	C177.788910,270.569855 182.406448,263.880219 181.110565,260.627747 
z"/>
<path fill="#000000" opacity="1.000000" stroke="none" 
	d="
M86.984352,283.113861 
	C90.406639,278.789459 93.598114,274.749725 96.810471,270.726654 
	C98.177071,269.015167 99.613388,267.179657 102.149384,267.883606 
	C104.661751,268.580963 105.240578,270.766449 105.182510,273.023132 
	C105.098892,276.273010 106.954529,276.897522 109.651619,276.813904 
	C111.134567,276.767853 112.681580,276.779419 114.102577,277.143799 
	C117.516441,278.019196 118.707230,281.024719 116.287880,283.552551 
	C108.136223,292.069763 99.753769,300.366760 91.415909,308.704346 
	C90.162628,309.957611 88.579720,310.522797 86.909233,309.368347 
	C85.022118,308.064209 84.447609,306.297791 85.385201,304.160034 
	C86.968727,300.549500 88.590431,296.955719 90.208626,293.326782 
	C82.630844,290.791779 82.219681,289.483551 86.984352,283.113861 
z"/>
<path fill="#000000" opacity="1.000000" stroke="none" 
	d="
M144.261978,306.222534 
	C137.306076,305.723114 136.536896,304.539337 136.817825,295.485443 
	C136.996979,289.711578 138.045074,288.693726 144.025604,288.664673 
	C150.005112,288.635651 155.988846,288.796814 161.963181,288.619965 
	C166.037415,288.499329 167.730103,290.463837 167.872040,294.244476 
	C167.928085,295.737305 167.974884,297.234161 167.930908,298.726410 
	C167.743530,305.082184 166.641129,306.153931 160.177795,306.202789 
	C155.028900,306.241699 149.879532,306.218903 144.261978,306.222534 
M154.206116,298.610291 
	C155.882248,298.210815 158.013443,299.442169 159.882660,296.798187 
	C154.551804,296.216125 149.941879,295.897186 145.353943,297.410767 
	C147.893173,299.158203 150.686890,298.359863 154.206116,298.610291 
z"/>
<path fill="#000000" opacity="1.000000" stroke="none" 
	d="
M42.920704,305.318237 
	C39.223610,300.757050 40.624939,295.911346 41.259224,291.263428 
	C41.532246,289.262817 43.597092,288.678314 45.582371,288.681183 
	C52.712612,288.691437 59.842899,288.697571 66.973122,288.682434 
	C69.789246,288.676453 71.286987,290.155090 71.609680,292.834473 
	C71.826744,294.636871 71.974136,296.468903 71.913452,298.279663 
	C71.680725,305.223755 70.641830,306.330811 63.601440,306.169250 
	C56.835239,306.013977 50.028351,306.996277 42.920704,305.318237 
M53.814571,296.331207 
	C52.199539,296.585938 50.290489,295.775177 48.372623,298.188568 
	C53.753365,298.779999 58.382339,298.834137 64.448349,298.066772 
	C60.457840,295.549103 57.471340,296.645569 53.814571,296.331207 
z"/>
</svg>