<svg version="1.1" id="Layer_1" xmlns="http://www.w3.org/2000/svg" xmlns:xlink="http://www.w3.org/1999/xlink" x="0px" y="0px"
	 width="100%" viewBox="0 0 486 483" enable-background="new 0 0 486 483" xml:space="preserve">
<path fill="#000101" opacity="1.000000" stroke="none" 
	d="
M487.000000,191.000000 
	C487.000000,288.999969 487.000000,386.499969 487.000000,483.999939 
	C325.000061,483.999969 163.000122,483.999969 1.000139,484.000000 
	C1.000093,323.000092 1.000093,162.000198 1.000046,1.000226 
	C162.999863,1.000150 324.999725,1.000150 486.999786,1.000075 
	C487.000000,64.166664 487.000000,127.333336 487.000000,191.000000 
M139.500000,3.000233 
	C94.074577,3.000233 48.649158,3.000233 3.328953,3.000233 
	C3.328953,163.002838 3.328953,322.402527 3.328953,481.684814 
	C164.037323,481.684814 324.436859,481.684814 484.810486,481.684814 
	C484.810486,417.910309 484.810486,354.450989 484.810486,290.992401 
	C475.752136,290.978790 473.721985,288.980255 473.702484,280.237091 
	C473.697296,277.903839 473.813782,275.562531 473.648254,273.241058 
	C473.576691,272.237732 472.962280,270.440063 472.541412,270.424377 
	C468.618591,270.277954 469.780884,267.679871 470.863403,266.184967 
	C472.147644,264.432037 473.431854,262.679077 475.446106,259.929688 
	C475.737732,259.874542 477.488525,259.543427 479.472290,259.168274 
	C479.658813,261.129547 479.826111,262.888733 479.999878,264.716003 
	C481.655457,264.716003 483.212616,264.716003 484.712036,264.716003 
	C484.712036,177.361023 484.712036,90.289452 484.712036,3.000233 
	C369.782898,3.000233 255.141449,3.000233 139.500000,3.000233 
M484.913513,271.016815 
	C483.333466,270.679962 481.753418,270.343079 479.759796,269.918030 
	C479.759796,274.597137 479.532257,278.564636 479.897430,282.476807 
	C480.008087,283.662079 481.758453,284.694275 482.757812,285.796570 
	C483.512054,284.639160 484.812744,283.528503 484.916504,282.315460 
	C485.210815,278.874512 485.015839,275.391754 484.913513,271.016815 
z"/>
<path fill="#FFFFFF" opacity="1.000000" stroke="none" 
	d="
M140.000000,3.000233 
	C255.141449,3.000233 369.782898,3.000233 484.712036,3.000233 
	C484.712036,90.289452 484.712036,177.361023 484.712036,264.716003 
	C483.212616,264.716003 481.655457,264.716003 479.999878,264.716003 
	C479.826111,262.888733 479.658813,261.129547 479.472290,259.168274 
	C477.488525,259.543427 475.737732,259.874542 475.446106,259.929688 
	C473.431854,262.679077 472.147644,264.432037 470.863403,266.184967 
	C469.780884,267.679871 468.618591,270.277954 472.541412,270.424377 
	C472.962280,270.440063 473.576691,272.237732 473.648254,273.241058 
	C473.813782,275.562531 473.697296,277.903839 473.702484,280.237091 
	C473.721985,288.980255 475.752136,290.978790 484.810486,290.992401 
	C484.810486,354.450989 484.810486,417.910309 484.810486,481.684814 
	C324.436859,481.684814 164.037323,481.684814 3.328953,481.684814 
	C3.328953,322.402527 3.328953,163.002838 3.328953,3.000233 
	C48.649158,3.000233 94.074577,3.000233 140.000000,3.000233 
M184.051926,190.215820 
	C184.706360,189.840363 185.890015,189.521439 185.937073,189.081070 
	C186.883774,180.222122 184.497253,173.083359 175.851822,168.840912 
	C171.003983,166.461990 166.484085,163.443237 165.538177,156.335526 
	C164.002762,159.432999 162.865784,161.446701 161.977417,163.564682 
	C156.586456,176.417618 161.033875,187.312714 173.703766,193.009048 
	C177.571365,194.747925 181.170181,197.084656 185.273697,199.359100 
	C184.514709,196.919357 183.752335,194.468765 183.272476,190.836166 
	C183.392365,190.449219 183.512268,190.062271 184.051926,190.215820 
M5.222938,308.499908 
	C5.225607,317.494690 5.037863,326.494598 5.278304,335.483002 
	C5.591129,347.177399 17.884312,353.907471 27.453876,347.733215 
	C32.698429,344.349396 34.396084,339.128632 34.061432,333.082794 
	C79.979050,333.082794 125.513489,333.082794 171.083862,333.082794 
	C171.163284,334.053070 171.210342,334.714661 171.272522,335.374817 
	C172.142593,344.611206 178.015152,350.303802 186.304916,349.949066 
	C194.565170,349.595612 199.991669,343.383179 200.007996,334.116852 
	C200.039703,316.127167 200.094910,298.136932 199.982529,280.147858 
	C199.916962,269.653900 193.289291,260.781097 183.723999,257.185669 
	C181.929657,256.511230 180.044128,254.560043 179.339157,252.753693 
	C174.814438,241.159821 170.761383,229.382065 166.249283,217.783005 
	C162.229691,207.450043 154.514023,201.489334 143.451874,200.177826 
	C142.021835,200.008270 139.725266,200.366974 139.109177,201.313522 
	C136.739471,204.954208 134.890076,208.933548 132.542145,213.360718 
	C134.741226,213.360718 136.044357,213.355667 137.347458,213.361511 
	C147.616455,213.407547 150.987778,215.683441 154.595688,225.050385 
	C155.847488,228.300308 157.072159,231.561157 158.265884,234.832855 
	C160.210770,240.163315 162.120041,245.506775 164.145615,251.125687 
	C122.811996,251.125687 82.223694,251.125687 41.017086,251.125687 
	C44.109329,242.691208 47.265068,234.709518 49.947468,226.571808 
	C52.151527,219.885269 55.595169,214.682358 62.425430,213.340912 
	C60.019337,209.366837 57.759541,205.634399 55.372486,201.691788 
	C47.234467,204.574081 41.734509,210.291306 38.716480,218.600830 
	C34.466713,230.301727 30.183760,241.991974 25.720585,253.612122 
	C25.176392,255.028931 23.636902,256.535980 22.210979,257.066284 
	C11.554367,261.029572 5.337531,269.569397 5.240394,281.015106 
	C5.165475,289.842804 5.223840,298.671570 5.222938,308.499908 
M138.021866,185.551285 
	C142.736115,176.501862 142.279007,175.770691 131.903961,175.770187 
	C122.297089,175.769730 112.690224,175.770096 102.573387,175.770096 
	C102.573387,173.481445 102.573402,171.687073 102.573387,169.892715 
	C102.573280,159.898376 102.625946,149.903412 102.508469,139.910461 
	C102.493210,138.613159 101.600334,137.326187 101.113968,136.034424 
	C99.879410,136.867371 98.129921,137.415070 97.486984,138.575745 
	C86.627838,158.179047 75.881279,177.844971 65.176414,197.533234 
	C63.129673,201.297562 64.509056,203.518265 69.085243,203.590851 
	C78.244431,203.736160 87.407516,203.635666 96.568993,203.636551 
	C98.492271,203.636734 100.415543,203.636581 102.536591,203.636581 
	C102.536591,215.713058 102.451729,227.034378 102.628899,238.351593 
	C102.655212,240.032303 103.916725,241.693695 104.606796,243.364014 
	C105.845062,242.230240 107.489548,241.321213 108.260025,239.928635 
	C118.142876,222.066101 127.900795,204.134445 138.021866,185.551285 
M221.856171,166.852295 
	C219.910934,162.329636 217.965683,157.806976 216.020432,153.284317 
	C214.874512,159.766083 210.975067,163.619324 206.093079,166.739929 
	C202.875061,168.796890 199.453644,170.560440 196.365173,172.790359 
	C188.880798,178.194214 185.903275,190.273544 189.740295,198.842560 
	C198.866074,185.172165 200.691422,183.167786 204.827667,182.839615 
	C198.111145,191.193634 191.213684,199.108276 189.261383,209.417221 
	C195.016968,206.321518 200.469681,203.028107 206.216324,200.370255 
	C219.652161,194.156174 225.673141,181.959732 221.856171,166.852295 
M419.931061,263.751862 
	C420.343262,261.562195 420.755493,259.372528 421.164001,257.202515 
	C418.836670,257.202515 417.048828,257.202515 415.315460,257.202515 
	C413.535614,264.921661 411.808167,272.413605 410.080719,279.905548 
	C409.764862,279.879517 409.449005,279.853485 409.133148,279.827484 
	C407.176331,272.300720 405.219482,264.773956 403.273651,257.289551 
	C401.262604,257.289551 399.536346,257.289551 397.774933,257.289551 
	C395.815613,264.799805 393.929169,272.030670 392.042725,279.261505 
	C391.599792,279.223419 391.156860,279.185303 390.713928,279.147217 
	C389.094666,271.804474 387.475433,264.461761 385.899536,257.315613 
	C383.576630,257.315613 381.687592,257.315613 379.629486,257.315613 
	C381.870056,267.413513 384.022827,277.151917 386.200287,286.884827 
	C386.487000,288.166290 386.900269,289.419403 387.254150,290.682983 
	C389.734924,290.682983 392.146210,290.682983 394.435181,290.682983 
	C396.251251,283.763397 397.975922,277.192108 399.700592,270.620789 
	C400.136292,270.661652 400.572021,270.702515 401.007751,270.743378 
	C402.835419,277.403656 404.663086,284.063934 406.523285,290.842712 
	C408.985992,290.842712 411.271423,290.842712 413.734192,290.842712 
	C415.765228,281.991760 417.766449,273.270630 419.931061,263.751862 
M228.320404,258.524567 
	C227.826904,258.012909 227.339783,257.063080 226.838943,257.055786 
	C220.071564,256.957153 213.302261,256.989594 206.512421,256.989594 
	C206.512421,268.636230 206.512421,279.700287 206.512421,290.738251 
	C214.100708,290.738251 221.372910,290.738251 228.849426,290.738251 
	C228.748947,289.002014 228.665421,287.558685 228.554871,285.648438 
	C223.252136,285.648438 218.181168,285.648438 213.027695,285.648438 
	C213.027695,282.240936 213.027695,279.320160 213.027695,275.986389 
	C217.495239,275.986389 221.753708,275.986389 226.356354,275.986389 
	C226.237564,274.010895 226.145264,272.475983 226.038239,270.696289 
	C221.484268,270.696289 217.363144,270.696289 213.024902,270.696289 
	C213.024902,267.811035 213.024902,265.200500 213.024902,262.201019 
	C217.207825,262.201019 221.173950,262.103760 225.132126,262.239410 
	C227.319412,262.314362 228.770340,261.972687 228.320404,258.524567 
M426.440033,278.845459 
	C423.662659,282.404419 423.755829,286.022888 426.911926,289.113373 
	C430.169159,292.302917 434.765411,291.502625 439.051331,287.863281 
	C440.161682,288.689789 441.129822,289.923126 442.301849,290.163727 
	C444.100464,290.532928 446.039276,290.219238 447.918579,290.195343 
	C447.377380,288.643677 446.819946,287.097412 446.300140,285.538605 
	C445.902710,284.346771 445.307648,283.154205 445.232330,281.935272 
	C445.068420,279.282257 445.227234,276.611237 445.169922,273.949371 
	C445.035248,267.696320 442.101715,264.545410 435.837891,265.142151 
	C432.566589,265.453796 429.444763,267.414368 426.284668,268.701965 
	C425.928772,268.846954 425.763428,269.459686 425.348541,270.107025 
	C426.199371,271.207214 427.044464,272.299927 427.574188,272.984894 
	C430.423004,271.934631 432.667664,270.712341 435.033203,270.397186 
	C436.264038,270.233215 437.708160,271.670197 439.055939,272.384003 
	C438.028259,273.468170 437.194275,275.016022 435.933685,275.542603 
	C433.064606,276.741119 429.986145,277.438324 426.440033,278.845459 
M254.207275,281.896759 
	C253.203018,279.146759 254.752731,278.941345 256.912048,278.989838 
	C261.317322,279.088745 265.726349,279.019440 270.015350,279.019440 
	C271.214539,271.066101 268.882019,266.893433 262.823914,265.349426 
	C256.841827,263.824768 250.497589,266.802246 248.368942,272.133453 
	C245.683578,278.858978 248.082932,286.908661 253.572327,289.590454 
	C259.877319,292.670624 266.224243,291.000305 270.076660,284.986145 
	C268.760071,284.142181 267.443481,283.298218 266.226440,282.518036 
	C261.099518,286.826477 258.712799,286.808960 254.207275,281.896759 
M348.535278,265.725494 
	C342.684418,268.158661 340.396790,271.568604 340.334717,277.949280 
	C340.277679,283.811615 342.813904,288.085510 347.475616,289.982574 
	C352.486877,292.021912 358.451538,290.939697 361.818878,287.380310 
	C365.425293,283.568176 366.203979,275.957886 363.496368,270.986145 
	C360.958008,266.325165 356.183167,264.453583 348.535278,265.725494 
M288.134613,285.665771 
	C284.358978,285.911163 281.553009,284.053741 281.589874,280.463562 
	C281.622131,277.322937 282.490936,273.251465 284.587341,271.389099 
	C286.080261,270.062836 290.223297,271.719788 293.183655,272.045380 
	C293.206635,272.554230 293.229584,273.063080 293.252533,273.571899 
	C294.557159,272.621857 295.861755,271.671783 297.154572,270.730286 
	C293.693695,265.407013 288.795319,263.774902 282.892181,265.792694 
	C276.992004,267.809540 274.204834,272.888916 274.990051,280.193787 
	C275.625702,286.107452 279.683044,290.193817 285.678253,290.958557 
	C291.242340,291.668243 295.182037,289.282745 297.326385,283.690338 
	C296.105896,283.015015 294.842133,282.315765 293.842438,281.762604 
	C292.033630,283.089996 290.472961,284.235321 288.134613,285.665771 
M299.680847,268.362640 
	C303.617920,270.769531 304.269073,274.384125 303.732880,278.632782 
	C303.466461,280.743622 303.101257,283.344055 304.052734,284.985901 
	C305.398315,287.307922 307.623505,289.707092 310.030304,290.649780 
	C312.121613,291.468903 314.987335,290.310974 317.944031,289.977966 
	C317.185822,287.790222 316.720734,286.448212 316.271515,285.152008 
	C310.440796,286.140930 309.875885,285.704742 309.815552,280.276367 
	C309.779388,277.020355 309.808929,273.763611 309.808929,270.402283 
	C312.521576,270.238007 314.598724,270.112213 316.756592,269.981537 
	C316.756592,268.219482 316.756592,266.811218 316.756592,265.172577 
	C314.350891,265.022552 312.124298,264.883698 309.953644,264.748352 
	C309.823151,262.740845 309.716736,261.104065 309.586517,259.100861 
	C307.492157,259.509705 305.624268,259.874329 303.791534,260.232086 
	C303.704254,261.839996 303.632629,263.159332 303.641449,262.996887 
	C301.777893,265.129456 300.726715,266.332367 299.680847,268.362640 
M460.261993,282.999786 
	C460.261993,278.879059 460.261993,274.758362 460.261993,270.411194 
	C462.748199,270.262573 464.844360,270.137238 466.993835,270.008728 
	C466.993835,268.246399 466.993835,266.692383 466.993835,265.161407 
	C464.565887,265.005371 462.462189,264.870178 460.425659,264.739319 
	C460.192902,262.643982 460.000580,260.912842 459.793884,259.052216 
	C457.681244,259.528687 455.950806,259.918945 454.153992,260.324158 
	C454.074066,261.848389 454.005859,263.149506 453.928497,264.625000 
	C452.639008,264.871094 451.408569,265.105927 448.775757,265.608368 
	C450.470612,268.022095 451.680450,269.745148 452.890320,271.468201 
	C454.039703,274.494141 453.985565,278.139709 454.050934,281.783142 
	C454.185974,289.311127 458.796478,292.581635 466.022614,290.296814 
	C466.744904,290.068451 467.389832,289.595398 468.255280,289.138397 
	C467.694061,287.652374 467.235962,286.439362 467.204712,286.356689 
	C464.424561,285.314972 462.488434,284.589508 460.261993,282.999786 
M234.106613,255.830734 
	C234.084488,264.943939 233.967972,274.058197 234.072281,283.169952 
	C234.145981,289.607544 237.457809,291.909546 244.180954,290.084686 
	C243.894638,288.751038 243.833801,286.287750 243.264786,286.164154 
	C238.956787,285.228424 240.241043,281.955780 240.207855,279.388123 
	C240.103699,271.329376 240.169540,263.268433 240.169540,255.122253 
	C237.987808,255.122253 236.358688,255.122253 234.106613,255.830734 
M324.387451,264.985596 
	C323.608978,265.552246 322.163361,266.106598 322.152649,266.687378 
	C322.004028,274.752228 322.052063,282.820709 322.052063,291.083618 
	C324.486572,290.972168 326.237732,290.891968 328.171021,290.803467 
	C328.171021,286.441315 328.096954,282.469513 328.187714,278.501526 
	C328.338226,271.922119 330.124054,270.252045 336.946930,270.231415 
	C337.130493,268.679596 337.315948,267.111755 337.659607,264.206390 
	C334.004242,265.434601 331.230408,266.366608 328.842194,267.169037 
	C327.651306,266.440277 326.462006,265.712494 324.387451,264.985596 
M5.189113,246.989777 
	C3.248338,251.263397 3.403853,255.106781 7.373146,258.591400 
	C12.414937,252.773651 22.660740,252.261429 22.278521,241.782089 
	C16.366804,242.162796 9.831885,239.836212 5.189113,246.989777 
M201.046936,253.220337 
	C200.925812,243.333893 195.194809,239.927216 182.993164,242.294708 
	C182.651199,252.839432 193.337494,252.659622 198.354691,259.175262 
	C199.502014,256.893524 200.219696,255.466248 201.046936,253.220337 
z"/>
<path fill="#F3F5F3" opacity="1.000000" stroke="none" 
	d="
M484.963531,271.471130 
	C485.015839,275.391754 485.210815,278.874512 484.916504,282.315460 
	C484.812744,283.528503 483.512054,284.639160 482.757812,285.796570 
	C481.758453,284.694275 480.008087,283.662079 479.897430,282.476807 
	C479.532257,278.564636 479.759796,274.597137 479.759796,269.918030 
	C481.753418,270.343079 483.333466,270.679962 484.963531,271.471130 
z"/>
<path fill="#040404" opacity="1.000000" stroke="none" 
	d="
M5.222940,307.999878 
	C5.223840,298.671570 5.165475,289.842804 5.240394,281.015106 
	C5.337531,269.569397 11.554367,261.029572 22.210979,257.066284 
	C23.636902,256.535980 25.176392,255.028931 25.720585,253.612122 
	C30.183760,241.991974 34.466713,230.301727 38.716480,218.600830 
	C41.734509,210.291306 47.234467,204.574081 55.372486,201.691788 
	C57.759541,205.634399 60.019337,209.366837 62.425430,213.340912 
	C55.595169,214.682358 52.151527,219.885269 49.947468,226.571808 
	C47.265068,234.709518 44.109329,242.691208 41.017086,251.125687 
	C82.223694,251.125687 122.811996,251.125687 164.145615,251.125687 
	C162.120041,245.506775 160.210770,240.163315 158.265884,234.832855 
	C157.072159,231.561157 155.847488,228.300308 154.595688,225.050385 
	C150.987778,215.683441 147.616455,213.407547 137.347458,213.361511 
	C136.044357,213.355667 134.741226,213.360718 132.542145,213.360718 
	C134.890076,208.933548 136.739471,204.954208 139.109177,201.313522 
	C139.725266,200.366974 142.021835,200.008270 143.451874,200.177826 
	C154.514023,201.489334 162.229691,207.450043 166.249283,217.783005 
	C170.761383,229.382065 174.814438,241.159821 179.339157,252.753693 
	C180.044128,254.560043 181.929657,256.511230 183.723999,257.185669 
	C193.289291,260.781097 199.916962,269.653900 199.982529,280.147858 
	C200.094910,298.136932 200.039703,316.127167 200.007996,334.116852 
	C199.991669,343.383179 194.565170,349.595612 186.304916,349.949066 
	C178.015152,350.303802 172.142593,344.611206 171.272522,335.374817 
	C171.210342,334.714661 171.163284,334.053070 171.083862,333.082794 
	C125.513489,333.082794 79.979050,333.082794 34.061432,333.082794 
	C34.396084,339.128632 32.698429,344.349396 27.453876,347.733215 
	C17.884312,353.907471 5.591129,347.177399 5.278304,335.483002 
	C5.037863,326.494598 5.225607,317.494690 5.222940,307.999878 
M98.499931,313.183533 
	C110.980751,313.183197 123.461716,313.216858 135.942337,313.166901 
	C141.408737,313.145020 144.070648,310.907501 144.058167,306.597961 
	C144.045883,302.363403 141.183792,299.905670 135.973969,299.898132 
	C113.508545,299.865570 91.042999,299.861908 68.577599,299.901428 
	C63.348614,299.910614 60.711189,302.356628 60.808090,306.804565 
	C60.901207,311.079163 63.272335,313.124207 68.544563,313.162109 
	C78.195908,313.231445 87.848091,313.182922 98.499931,313.183533 
M174.692627,290.005157 
	C181.714111,289.467560 186.163040,285.752167 186.866730,279.838287 
	C187.481628,274.670563 184.159515,269.473480 179.168854,267.795746 
	C172.951584,265.705658 166.304398,269.020355 164.385193,275.167816 
	C162.334808,281.735504 166.041580,287.504059 174.692627,290.005157 
M33.469368,267.764404 
	C24.216522,265.813263 16.692801,272.335632 18.548363,280.699524 
	C19.741581,286.077942 24.117485,289.821045 29.431467,290.008820 
	C34.467041,290.186737 39.417507,286.696045 40.825573,281.974457 
	C42.524868,276.276337 40.332718,271.629761 33.469368,267.764404 
z"/>
<path fill="#050505" opacity="1.000000" stroke="none" 
	d="
M137.856140,185.885803 
	C127.900795,204.134445 118.142876,222.066101 108.260025,239.928635 
	C107.489548,241.321213 105.845062,242.230240 104.606796,243.364014 
	C103.916725,241.693695 102.655212,240.032303 102.628899,238.351593 
	C102.451729,227.034378 102.536591,215.713058 102.536591,203.636581 
	C100.415543,203.636581 98.492271,203.636734 96.568993,203.636551 
	C87.407516,203.635666 78.244431,203.736160 69.085243,203.590851 
	C64.509056,203.518265 63.129673,201.297562 65.176414,197.533234 
	C75.881279,177.844971 86.627838,158.179047 97.486984,138.575745 
	C98.129921,137.415070 99.879410,136.867371 101.113968,136.034424 
	C101.600334,137.326187 102.493210,138.613159 102.508469,139.910461 
	C102.625946,149.903412 102.573280,159.898376 102.573387,169.892715 
	C102.573402,171.687073 102.573387,173.481445 102.573387,175.770096 
	C112.690224,175.770096 122.297089,175.769730 131.903961,175.770187 
	C142.279007,175.770691 142.736115,176.501862 137.856140,185.885803 
z"/>
<path fill="#076C3D" opacity="1.000000" stroke="none" 
	d="
M221.921051,167.266479 
	C225.673141,181.959732 219.652161,194.156174 206.216324,200.370255 
	C200.469681,203.028107 195.016968,206.321518 189.261383,209.417221 
	C191.213684,199.108276 198.111145,191.193634 204.827667,182.839615 
	C200.691422,183.167786 198.866074,185.172165 189.740295,198.842560 
	C185.903275,190.273544 188.880798,178.194214 196.365173,172.790359 
	C199.453644,170.560440 202.875061,168.796890 206.093079,166.739929 
	C210.975067,163.619324 214.874512,159.766083 216.020432,153.284317 
	C217.965683,157.806976 219.910934,162.329636 221.921051,167.266479 
M206.359756,181.240829 
	C206.552612,180.599182 206.745483,179.957550 206.938354,179.315918 
	C206.609802,179.138702 206.281265,178.961502 205.952713,178.784286 
	C205.235321,179.921570 204.517929,181.058853 203.800537,182.196136 
	C204.462830,182.104584 205.125122,182.013046 206.359756,181.240829 
z"/>
<path fill="#0E0A0E" opacity="1.000000" stroke="none" 
	d="
M419.849365,264.150696 
	C417.766449,273.270630 415.765228,281.991760 413.734192,290.842712 
	C411.271423,290.842712 408.985992,290.842712 406.523285,290.842712 
	C404.663086,284.063934 402.835419,277.403656 401.007751,270.743378 
	C400.572021,270.702515 400.136292,270.661652 399.700592,270.620789 
	C397.975922,277.192108 396.251251,283.763397 394.435181,290.682983 
	C392.146210,290.682983 389.734924,290.682983 387.254150,290.682983 
	C386.900269,289.419403 386.487000,288.166290 386.200287,286.884827 
	C384.022827,277.151917 381.870056,267.413513 379.629486,257.315613 
	C381.687592,257.315613 383.576630,257.315613 385.899536,257.315613 
	C387.475433,264.461761 389.094666,271.804474 390.713928,279.147217 
	C391.156860,279.185303 391.599792,279.223419 392.042725,279.261505 
	C393.929169,272.030670 395.815613,264.799805 397.774933,257.289551 
	C399.536346,257.289551 401.262604,257.289551 403.273651,257.289551 
	C405.219482,264.773956 407.176331,272.300720 409.133148,279.827484 
	C409.449005,279.853485 409.764862,279.879517 410.080719,279.905548 
	C411.808167,272.413605 413.535614,264.921661 415.315460,257.202515 
	C417.048828,257.202515 418.836670,257.202515 421.164001,257.202515 
	C420.755493,259.372528 420.343262,261.562195 419.849365,264.150696 
z"/>
<path fill="#8ABF48" opacity="1.000000" stroke="none" 
	d="
M182.989960,192.018158 
	C183.752335,194.468765 184.514709,196.919357 185.273697,199.359100 
	C181.170181,197.084656 177.571365,194.747925 173.703766,193.009048 
	C161.033875,187.312714 156.586456,176.417618 161.977417,163.564682 
	C162.865784,161.446701 164.002762,159.432999 165.538177,156.335526 
	C166.484085,163.443237 171.003983,166.461990 175.851822,168.840912 
	C184.497253,173.083359 186.883774,180.222122 185.937073,189.081070 
	C185.890015,189.521439 184.706360,189.840363 183.820984,189.679260 
	C180.270508,185.234848 176.950958,181.327011 173.505264,177.175751 
	C172.953186,176.585358 172.527283,176.238403 172.027069,175.649872 
	C171.688889,175.214569 171.425003,175.020813 171.031769,174.588531 
	C170.654999,174.357864 170.407578,174.365738 170.160156,174.373596 
	C170.291229,174.726288 170.422302,175.078995 170.663605,175.654724 
	C170.975449,176.145386 171.224243,176.357788 171.606125,176.775696 
	C172.081100,177.399185 172.470139,177.761902 172.965027,178.445557 
	C176.377228,183.183716 179.683594,187.600937 182.989960,192.018158 
z"/>
<path fill="#0B090B" opacity="1.000000" stroke="none" 
	d="
M228.325241,258.930908 
	C228.770340,261.972687 227.319412,262.314362 225.132126,262.239410 
	C221.173950,262.103760 217.207825,262.201019 213.024902,262.201019 
	C213.024902,265.200500 213.024902,267.811035 213.024902,270.696289 
	C217.363144,270.696289 221.484268,270.696289 226.038239,270.696289 
	C226.145264,272.475983 226.237564,274.010895 226.356354,275.986389 
	C221.753708,275.986389 217.495239,275.986389 213.027695,275.986389 
	C213.027695,279.320160 213.027695,282.240936 213.027695,285.648438 
	C218.181168,285.648438 223.252136,285.648438 228.554871,285.648438 
	C228.665421,287.558685 228.748947,289.002014 228.849426,290.738251 
	C221.372910,290.738251 214.100708,290.738251 206.512421,290.738251 
	C206.512421,279.700287 206.512421,268.636230 206.512421,256.989594 
	C213.302261,256.989594 220.071564,256.957153 226.838943,257.055786 
	C227.339783,257.063080 227.826904,258.012909 228.325241,258.930908 
z"/>
<path fill="#0E0A0B" opacity="1.000000" stroke="none" 
	d="
M426.716400,278.592346 
	C429.986145,277.438324 433.064606,276.741119 435.933685,275.542603 
	C437.194275,275.016022 438.028259,273.468170 439.055939,272.384003 
	C437.708160,271.670197 436.264038,270.233215 435.033203,270.397186 
	C432.667664,270.712341 430.423004,271.934631 427.574188,272.984894 
	C427.044464,272.299927 426.199371,271.207214 425.348541,270.107025 
	C425.763428,269.459686 425.928772,268.846954 426.284668,268.701965 
	C429.444763,267.414368 432.566589,265.453796 435.837891,265.142151 
	C442.101715,264.545410 445.035248,267.696320 445.169922,273.949371 
	C445.227234,276.611237 445.068420,279.282257 445.232330,281.935272 
	C445.307648,283.154205 445.902710,284.346771 446.300140,285.538605 
	C446.819946,287.097412 447.377380,288.643677 447.918579,290.195374 
	C446.039276,290.219238 444.100464,290.532928 442.301849,290.163727 
	C441.129822,289.923126 440.161682,288.689789 439.051331,287.863281 
	C434.765411,291.502625 430.169159,292.302917 426.911926,289.113373 
	C423.755829,286.022888 423.662659,282.404419 426.716400,278.592346 
M437.481232,285.039673 
	C438.181610,282.959839 438.881958,280.880005 439.582336,278.800171 
	C435.907410,280.108582 430.497772,278.073517 430.931030,283.477417 
	C431.211426,286.974426 434.361359,286.153992 437.481232,285.039673 
z"/>
<path fill="#0B090B" opacity="1.000000" stroke="none" 
	d="
M254.382751,282.293396 
	C258.712799,286.808960 261.099518,286.826477 266.226440,282.518036 
	C267.443481,283.298218 268.760071,284.142181 270.076660,284.986145 
	C266.224243,291.000305 259.877319,292.670624 253.572327,289.590454 
	C248.082932,286.908661 245.683578,278.858978 248.368942,272.133453 
	C250.497589,266.802246 256.841827,263.824768 262.823914,265.349426 
	C268.882019,266.893433 271.214539,271.066101 270.015350,279.019440 
	C265.726349,279.019440 261.317322,279.088745 256.912048,278.989838 
	C254.752731,278.941345 253.203018,279.146759 254.382751,282.293396 
M263.497711,274.979919 
	C264.192810,272.087189 263.688232,270.900085 260.984680,270.451385 
	C257.629700,269.894592 254.854431,270.704590 254.014099,274.999939 
	C257.101440,274.999939 259.893616,274.999939 263.497711,274.979919 
z"/>
<path fill="#0E0A0E" opacity="1.000000" stroke="none" 
	d="
M348.909424,265.570374 
	C356.183167,264.453583 360.958008,266.325165 363.496368,270.986145 
	C366.203979,275.957886 365.425293,283.568176 361.818878,287.380310 
	C358.451538,290.939697 352.486877,292.021912 347.475616,289.982574 
	C342.813904,288.085510 340.277679,283.811615 340.334717,277.949280 
	C340.396790,271.568604 342.684418,268.158661 348.909424,265.570374 
M352.508942,285.807739 
	C358.351379,284.227386 360.855499,277.576324 357.460602,272.656036 
	C355.296143,269.519043 350.343964,269.450562 348.071381,272.526154 
	C344.990753,276.695374 346.876434,283.484406 352.508942,285.807739 
z"/>
<path fill="#0E0A0E" opacity="1.000000" stroke="none" 
	d="
M288.523438,285.523193 
	C290.472961,284.235321 292.033630,283.089996 293.842438,281.762604 
	C294.842133,282.315765 296.105896,283.015015 297.326385,283.690338 
	C295.182037,289.282745 291.242340,291.668243 285.678253,290.958557 
	C279.683044,290.193817 275.625702,286.107452 274.990051,280.193787 
	C274.204834,272.888916 276.992004,267.809540 282.892181,265.792694 
	C288.795319,263.774902 293.693695,265.407013 297.154572,270.730286 
	C295.861755,271.671783 294.557159,272.621857 293.252533,273.571899 
	C293.229584,273.063080 293.206635,272.554230 293.183655,272.045380 
	C290.223297,271.719788 286.080261,270.062836 284.587341,271.389099 
	C282.490936,273.251465 281.622131,277.322937 281.589874,280.463562 
	C281.553009,284.053741 284.358978,285.911163 288.523438,285.523193 
z"/>
<path fill="#050A13" opacity="1.000000" stroke="none" 
	d="
M299.678192,267.948975 
	C300.726715,266.332367 301.777893,265.129456 303.641449,262.996887 
	C303.632629,263.159332 303.704254,261.839996 303.791534,260.232086 
	C305.624268,259.874329 307.492157,259.509705 309.586517,259.100861 
	C309.716736,261.104065 309.823151,262.740845 309.953644,264.748352 
	C312.124298,264.883698 314.350891,265.022552 316.756592,265.172577 
	C316.756592,266.811218 316.756592,268.219482 316.756592,269.981537 
	C314.598724,270.112213 312.521576,270.238007 309.808929,270.402283 
	C309.808929,273.763611 309.779388,277.020355 309.815552,280.276367 
	C309.875885,285.704742 310.440796,286.140930 316.271515,285.152008 
	C316.720734,286.448212 317.185822,287.790222 317.944031,289.977966 
	C314.987335,290.310974 312.121613,291.468903 310.030304,290.649780 
	C307.623505,289.707092 305.398315,287.307922 304.052734,284.985901 
	C303.101257,283.344055 303.466461,280.743622 303.732880,278.632782 
	C304.269073,274.384125 303.617920,270.769531 299.678192,267.948975 
z"/>
<path fill="#110405" opacity="1.000000" stroke="none" 
	d="
M460.407166,283.431885 
	C462.488434,284.589508 464.424561,285.314972 467.204712,286.356689 
	C467.235962,286.439362 467.694061,287.652374 468.255280,289.138397 
	C467.389832,289.595398 466.744904,290.068451 466.022614,290.296814 
	C458.796478,292.581635 454.185974,289.311127 454.050934,281.783142 
	C453.985565,278.139709 454.039703,274.494141 452.890320,271.468201 
	C451.680450,269.745148 450.470612,268.022095 448.775757,265.608368 
	C451.408569,265.105927 452.639008,264.871094 453.928497,264.625000 
	C454.005859,263.149506 454.074066,261.848389 454.153992,260.324158 
	C455.950806,259.918945 457.681244,259.528687 459.793884,259.052216 
	C460.000580,260.912842 460.192902,262.643982 460.425659,264.739319 
	C462.462189,264.870178 464.565887,265.005371 466.993835,265.161407 
	C466.993835,266.692383 466.993835,268.246399 466.993835,270.008728 
	C464.844360,270.137238 462.748199,270.262573 460.261993,270.411194 
	C460.261993,274.758362 460.261993,278.879059 460.407166,283.431885 
z"/>
<path fill="#110405" opacity="1.000000" stroke="none" 
	d="
M234.418091,255.476501 
	C236.358688,255.122253 237.987808,255.122253 240.169540,255.122253 
	C240.169540,263.268433 240.103699,271.329376 240.207855,279.388123 
	C240.241043,281.955780 238.956787,285.228424 243.264786,286.164154 
	C243.833801,286.287750 243.894638,288.751038 244.180954,290.084686 
	C237.457809,291.909546 234.145981,289.607544 234.072281,283.169952 
	C233.967972,274.058197 234.084488,264.943939 234.418091,255.476501 
z"/>
<path fill="#110405" opacity="1.000000" stroke="none" 
	d="
M324.830078,264.985168 
	C326.462006,265.712494 327.651306,266.440277 328.842194,267.169037 
	C331.230408,266.366608 334.004242,265.434601 337.659607,264.206390 
	C337.315948,267.111755 337.130493,268.679596 336.946930,270.231415 
	C330.124054,270.252045 328.338226,271.922119 328.187714,278.501526 
	C328.096954,282.469513 328.171021,286.441315 328.171021,290.803467 
	C326.237732,290.891968 324.486572,290.972168 322.052063,291.083618 
	C322.052063,282.820709 322.004028,274.752228 322.152649,266.687378 
	C322.163361,266.106598 323.608978,265.552246 324.830078,264.985168 
z"/>
<path fill="#0B090B" opacity="1.000000" stroke="none" 
	d="
M5.386229,246.657471 
	C9.831885,239.836212 16.366804,242.162796 22.278521,241.782089 
	C22.660740,252.261429 12.414937,252.773651 7.373146,258.591400 
	C3.403853,255.106781 3.248338,251.263397 5.386229,246.657471 
z"/>
<path fill="#0B090B" opacity="1.000000" stroke="none" 
	d="
M200.992157,253.629654 
	C200.219696,255.466248 199.502014,256.893524 198.354691,259.175262 
	C193.337494,252.659622 182.651199,252.839432 182.993164,242.294708 
	C195.194809,239.927216 200.925812,243.333893 200.992157,253.629654 
z"/>
<path fill="#F3F5F3" opacity="1.000000" stroke="none" 
	d="
M183.131226,191.427155 
	C179.683594,187.600937 176.377228,183.183716 173.165894,178.277649 
	C173.384415,177.665588 173.507919,177.542389 173.631424,177.419174 
	C176.950958,181.327011 180.270508,185.234848 183.611115,189.408997 
	C183.512268,190.062271 183.392365,190.449219 183.131226,191.427155 
z"/>
<path fill="#FFFFFF" opacity="1.000000" stroke="none" 
	d="
M97.999924,313.183533 
	C87.848091,313.182922 78.195908,313.231445 68.544563,313.162109 
	C63.272335,313.124207 60.901207,311.079163 60.808090,306.804565 
	C60.711189,302.356628 63.348614,299.910614 68.577599,299.901428 
	C91.042999,299.861908 113.508545,299.865570 135.973969,299.898132 
	C141.183792,299.905670 144.045883,302.363403 144.058167,306.597961 
	C144.070648,310.907501 141.408737,313.145020 135.942337,313.166901 
	C123.461716,313.216858 110.980751,313.183197 97.999924,313.183533 
z"/>
<path fill="#F8F8F8" opacity="1.000000" stroke="none" 
	d="
M174.289276,289.979034 
	C166.041580,287.504059 162.334808,281.735504 164.385193,275.167816 
	C166.304398,269.020355 172.951584,265.705658 179.168854,267.795746 
	C184.159515,269.473480 187.481628,274.670563 186.866730,279.838287 
	C186.163040,285.752167 181.714111,289.467560 174.289276,289.979034 
z"/>
<path fill="#F8F8F8" opacity="1.000000" stroke="none" 
	d="
M33.843998,267.867279 
	C40.332718,271.629761 42.524868,276.276337 40.825573,281.974457 
	C39.417507,286.696045 34.467041,290.186737 29.431467,290.008820 
	C24.117485,289.821045 19.741581,286.077942 18.548363,280.699524 
	C16.692801,272.335632 24.216522,265.813263 33.843998,267.867279 
z"/>
<path fill="#FFFFFF" opacity="1.000000" stroke="none" 
	d="
M206.073578,181.581161 
	C205.125122,182.013046 204.462830,182.104584 203.800537,182.196136 
	C204.517929,181.058853 205.235321,179.921570 205.952713,178.784286 
	C206.281265,178.961502 206.609802,179.138702 206.938354,179.315918 
	C206.745483,179.957550 206.552612,180.599182 206.073578,181.581161 
z"/>
<path fill="#F3F5F3" opacity="1.000000" stroke="none" 
	d="
M172.101379,175.891449 
	C172.527283,176.238403 172.953186,176.585358 173.505264,177.175751 
	C173.507919,177.542389 173.384415,177.665588 173.060043,177.956726 
	C172.470139,177.761902 172.081100,177.399185 171.754379,176.622574 
	C171.816696,176.208694 172.101379,175.891449 172.101379,175.891449 
z"/>
<path fill="#F3F5F3" opacity="1.000000" stroke="none" 
	d="
M171.668442,176.361816 
	C171.224243,176.357788 170.975449,176.145386 170.818176,175.506226 
	C170.862534,175.134689 171.161118,174.827057 171.161118,174.827057 
	C171.425003,175.020813 171.688889,175.214569 172.027069,175.649872 
	C172.101379,175.891449 171.816696,176.208694 171.668442,176.361816 
z"/>
<path fill="#F3F5F3" opacity="1.000000" stroke="none" 
	d="
M170.707947,175.283188 
	C170.422302,175.078995 170.291229,174.726288 170.160156,174.373596 
	C170.407578,174.365738 170.654999,174.357864 171.031769,174.588531 
	C171.161118,174.827057 170.862534,175.134689 170.707947,175.283188 
z"/>
<path fill="#F3F5F3" opacity="1.000000" stroke="none" 
	d="
M437.147430,285.281250 
	C434.361359,286.153992 431.211426,286.974426 430.931030,283.477417 
	C430.497772,278.073517 435.907410,280.108582 439.582336,278.800171 
	C438.881958,280.880005 438.181610,282.959839 437.147430,285.281250 
z"/>
<path fill="#F3F5F3" opacity="1.000000" stroke="none" 
	d="
M263.091736,274.989929 
	C259.893616,274.999939 257.101440,274.999939 254.014099,274.999939 
	C254.854431,270.704590 257.629700,269.894592 260.984680,270.451385 
	C263.688232,270.900085 264.192810,272.087189 263.091736,274.989929 
z"/>
<path fill="#F3F5F3" opacity="1.000000" stroke="none" 
	d="
M352.123291,285.766785 
	C346.876434,283.484406 344.990753,276.695374 348.071381,272.526154 
	C350.343964,269.450562 355.296143,269.519043 357.460602,272.656036 
	C360.855499,277.576324 358.351379,284.227386 352.123291,285.766785 
z"/>
</svg>