<?xml version="1.0" encoding="UTF-8"?>
<svg version="1.1" xmlns="http://www.w3.org/2000/svg" width="384" height="100">
<path d="M0 0 C4.16118253 0.80022741 6.40925752 1.25216869 9.0859375 4.640625 C11.6569752 9.15305851 12.97936183 13.80146225 14.4609375 18.7578125 C16.31819419 22.67030755 18.31847027 23.84665242 22 26 C24.11457422 30.22914844 23.18585828 35.77899806 23.18530273 40.43115234 C23.18749158 42.49207127 23.20565983 44.5524569 23.22460938 46.61328125 C23.22654297 47.90621094 23.22847656 49.19914062 23.23046875 50.53125 C23.23457764 51.72298828 23.23868652 52.91472656 23.24291992 54.14257812 C23 57 23 57 21 59 C17.5 59.3125 17.5 59.3125 14 59 C12 56 12 56 12 53 C-5.49 53 -22.98 53 -41 53 C-41.495 55.475 -41.495 55.475 -42 58 C-44.82883747 59.41441874 -46.87376745 59.31900332 -50 59 C-53.06261621 55.94142181 -53.38402528 53.55256949 -53.3984375 49.31640625 C-53.40230469 48.22392578 -53.40617187 47.13144531 -53.41015625 46.00585938 C-53.39855469 44.86955078 -53.38695312 43.73324219 -53.375 42.5625 C-53.38660156 41.43005859 -53.39820313 40.29761719 -53.41015625 39.13085938 C-53.40628906 38.03708984 -53.40242188 36.94332031 -53.3984375 35.81640625 C-53.39505371 34.82068604 -53.39166992 33.82496582 -53.38818359 32.79907227 C-52.93498652 29.53120786 -51.96875469 27.63021148 -50 25 C-48.7625 24.6596875 -48.7625 24.6596875 -47.5 24.3125 C-44.85809888 23.26409061 -44.85809888 23.26409061 -44.15234375 20.9765625 C-43.6626417 19.23718364 -43.19356355 17.49190364 -42.7421875 15.7421875 C-41.36636966 10.65890263 -39.70085099 5.65082596 -35.875 1.9375 C-34 1 -34 1 -32 1 C-31.34 2.65 -30.68 4.3 -30 6 C-31.32 7.32 -32.64 8.64 -34 10 C-35.32 13.63 -36.64 17.26 -38 21 C-22.49 21 -6.98 21 9 21 C5.84396713 8.34004006 5.84396713 8.34004006 0.1875 6.1875 C-0.864375 6.125625 -1.91625 6.06375 -3 6 C-2.01 4.02 -1.02 2.04 0 0 Z M-45 27 C-47.28728734 28.83883881 -47.28728734 28.83883881 -47.125 31.625 C-47.08375 32.40875 -47.0425 33.1925 -47 34 C-44.67145537 35.19838209 -44.67145537 35.19838209 -42 36 C-41.01 35.34 -40.02 34.68 -39 34 C-38.58333333 31.5 -38.58333333 31.5 -39 29 C-39.66 28.34 -40.32 27.68 -41 27 C-42.32 27 -43.64 27 -45 27 Z M12 27 C10.21030974 29.42672567 10.21030974 29.42672567 9 32 C9.99 33.32 10.98 34.64 12 36 C13.65 35.67 15.3 35.34 17 35 C17.67801034 32.09926819 17.67801034 32.09926819 18 29 C17.34 28.34 16.68 27.68 16 27 C14.68 27 13.36 27 12 27 Z M-30 40 C-30.59070014 41.94603274 -30.59070014 41.94603274 -31 44 C-29.89732294 45.32887035 -29.89732294 45.32887035 -27.13256836 45.11352539 C-25.88096924 45.10828857 -24.62937012 45.10305176 -23.33984375 45.09765625 C-22.67537735 45.0962413 -22.01091095 45.09482635 -21.3263092 45.09336853 C-19.19666101 45.08775518 -17.06711661 45.07520054 -14.9375 45.0625 C-13.49674631 45.05748671 -12.05599097 45.05292351 -10.61523438 45.04882812 C-7.07678898 45.03778145 -3.53840461 45.02050792 0 45 C0.59070014 43.05396726 0.59070014 43.05396726 1 41 C-0.10267706 39.67112965 -0.10267706 39.67112965 -2.86743164 39.88647461 C-4.11903076 39.89171143 -5.37062988 39.89694824 -6.66015625 39.90234375 C-7.32462265 39.9037587 -7.98908905 39.90517365 -8.6736908 39.90663147 C-10.80333899 39.91224482 -12.93288339 39.92479946 -15.0625 39.9375 C-16.50325369 39.94251329 -17.94400903 39.94707649 -19.38476562 39.95117188 C-22.92321102 39.96221855 -26.46159539 39.97949208 -30 40 Z " fill="#090909" transform="translate(53,41)"/>
<path d="M0 0 C1.98 0 3.96 0 6 0 C8.12536981 5.88563949 9.5157626 11.92811972 11 18 C12.65 12.06 14.3 6.12 16 0 C17.65 0 19.3 0 21 0 C23.14779635 5.62518091 25.12270561 11.27872186 27 17 C28.32 11.39 29.64 5.78 31 0 C32.98 0 34.96 0 37 0 C36.37666455 3.14616546 35.75101862 6.29186743 35.125 9.4375 C34.95097656 10.31599609 34.77695312 11.19449219 34.59765625 12.09960938 C33.4715451 17.75101906 32.26943924 23.37901453 31 29 C28.36 29 25.72 29 23 29 C21.68 24.05 20.36 19.1 19 14 C17.31626595 17.3674681 16.31781585 20.15015766 15.375 23.75 C15.11460937 24.73484375 14.85421875 25.7196875 14.5859375 26.734375 C14.29589844 27.85585937 14.29589844 27.85585937 14 29 C11.69 29 9.38 29 7 29 C4.84534251 23.18041108 3.65771271 17.18059721 2.375 11.125 C2.14554688 10.05507813 1.91609375 8.98515625 1.6796875 7.8828125 C1.1167647 5.25583942 0.55696566 2.62824138 0 0 Z " fill="#121212" transform="translate(248,50)"/>
<path d="M0 0 C0.66 0.33 1.32 0.66 2 1 C2 5.95 2 10.9 2 16 C6.62 16 11.24 16 16 16 C15.16418736 21.01487586 14.68547806 23.07318479 12.27734375 27.1796875 C11.73916016 28.1078125 11.20097656 29.0359375 10.64648438 29.9921875 C9.80053711 31.41917969 9.80053711 31.41917969 8.9375 32.875 C8.08575195 34.33679687 8.08575195 34.33679687 7.21679688 35.828125 C5.81937591 38.2237038 4.41363019 40.61396262 3 43 C2.34 42.67 1.68 42.34 1 42 C1 37.05 1 32.1 1 27 C-3.62 27 -8.24 27 -13 27 C-13.33 26.34 -13.66 25.68 -14 25 C-12.93603516 22.58569336 -12.93603516 22.58569336 -11.2890625 19.58984375 C-10.70382813 18.51798828 -10.11859375 17.44613281 -9.515625 16.34179688 C-8.89171875 15.21837891 -8.2678125 14.09496094 -7.625 12.9375 C-7.00882813 11.81021484 -6.39265625 10.68292969 -5.7578125 9.52148438 C-1.17507719 1.17507719 -1.17507719 1.17507719 0 0 Z " fill="#101010" transform="translate(37,16)"/>
<path d="M0 0 C6.6 0 13.2 0 20 0 C20 1.65 20 3.3 20 5 C15.38 5 10.76 5 6 5 C6 6.98 6 8.96 6 11 C9.96 11 13.92 11 18 11 C18 12.65 18 14.3 18 16 C14.37 16.33 10.74 16.66 7 17 C6.67 19.31 6.34 21.62 6 24 C10.62 24 15.24 24 20 24 C20 25.65 20 27.3 20 29 C13.4 29 6.8 29 0 29 C0 19.43 0 9.86 0 0 Z " fill="#121212" transform="translate(97,50)"/>
<path d="M0 0 C2.99150243 3.14107755 4.23820039 5.72939381 4.5 10 C4.26560922 14.21903405 2.81028506 16.80994669 0 20 C-3.2702056 22.24242669 -5.77506867 22.09605477 -9.5625 21.5 C-13.00266929 20.59408875 -13.97379135 20.02684789 -16.5625 17.375 C-18.28633842 13.32772719 -18.84413413 10.32403399 -18 6 C-16.1955099 2.25221286 -14.90382971 0.49299802 -11.25 -1.5 C-7.04762956 -2.14651853 -3.85132869 -1.8519155 0 0 Z M-10.125 4.625 C-12.23118579 6.90039486 -12.23118579 6.90039486 -12.5 10 C-11.90092877 13.5944274 -10.7822335 14.73943528 -8 17 C-4.27385847 15.88145414 -4.27385847 15.88145414 -2 13 C-1.5930421 9.25598728 -1.50095274 7.63212653 -3.875 4.625 C-6.73611465 2.4370888 -7.26388535 2.4370888 -10.125 4.625 Z " fill="#141414" transform="translate(232,58)"/>
<path d="M0 0 C1.99301736 1.58066894 2.86543351 2.73086702 4 5 C4.22858114 7.0374763 4.41024278 9.08040303 4.5625 11.125 C4.68818359 12.76855469 4.68818359 12.76855469 4.81640625 14.4453125 C4.87699219 15.28835937 4.93757813 16.13140625 5 17 C5.33 17 5.66 17 6 17 C6 18.65 6 20.3 6 22 C3.125 22.125 3.125 22.125 0 22 C-0.66 21.34 -1.32 20.68 -2 20 C-2.70125 20.53625 -3.4025 21.0725 -4.125 21.625 C-7 23 -7 23 -10.1875 22.375 C-13 21 -13 21 -15 18 C-15.4375 15.5625 -15.4375 15.5625 -15 13 C-11.44046857 9.22473939 -7.89364471 8.15144581 -3 7 C-3 6.34 -3 5.68 -3 5 C-6.12290635 5.48578543 -8.99580359 5.9986012 -12 7 C-12.66 5.68 -13.32 4.36 -14 3 C-9.22944515 -0.91867006 -6.04689511 -1.54388811 0 0 Z M-9 14 C-8.67 15.32 -8.34 16.64 -8 18 C-4.70924004 17.62095792 -4.70924004 17.62095792 -2 16 C-1.95936168 14.33382885 -1.957279 12.66611905 -2 11 C-4.37220987 11 -6.92877733 12.94235438 -9 14 Z " fill="#171717" transform="translate(302,57)"/>
<path d="M0 0 C2.86970265 4.03551935 3 5.94342379 3 11 C-1.95 11 -6.9 11 -12 11 C-10.52083333 14.95833333 -10.52083333 14.95833333 -8.25 15.875 C-5.17969854 16.0455723 -2.84159626 15.09788947 0 14 C0.66 15.32 1.32 16.64 2 18 C-1.21769378 20.84642142 -3.69494787 21.83117443 -8 22 C-11.84255931 20.82769377 -14.26058429 19.83482419 -16.9375 16.8125 C-18.32978162 13.12704866 -18.67112738 9.85332688 -18 6 C-16.1955099 2.25221286 -14.90382971 0.49299802 -11.25 -1.5 C-7.08725511 -2.14042229 -3.79380045 -1.91783731 0 0 Z M-9 3 C-10.8354799 4.33378575 -10.8354799 4.33378575 -12 6 C-11.67 6.66 -11.34 7.32 -11 8 C-8.36 8 -5.72 8 -3 8 C-3.33 6.68 -3.66 5.36 -4 4 C-6.34533951 3.23043864 -6.34533951 3.23043864 -9 3 Z " fill="#121212" transform="translate(151,58)"/>
<path d="M0 0 C0.53625 0.474375 1.0725 0.94875 1.625 1.4375 C0.965 2.7575 0.305 4.0775 -0.375 5.4375 C-2.43909569 4.92147608 -4.43554677 4.41548299 -6.4375 3.6875 C-8.43509642 3.22485818 -8.43509642 3.22485818 -10.125 4.5 C-11.91955588 7.28156161 -11.7803137 9.19499038 -11.375 12.4375 C-9.99993901 14.31640434 -9.99993901 14.31640434 -8.375 15.4375 C-7.6325 15.1075 -6.89 14.7775 -6.125 14.4375 C-3.375 13.4375 -3.375 13.4375 0.625 13.4375 C0.955 14.4275 1.285 15.4175 1.625 16.4375 C-0.52120227 18.99643347 -1.98998044 20.30916015 -5.1875 21.375 C-9.33741767 21.45637093 -11.77445244 20.47554579 -15.375 18.4375 C-18.35756006 15.07009348 -18.91786483 11.92339098 -18.72265625 7.43359375 C-18.12387596 3.99565301 -16.68638541 1.99218913 -14.375 -0.5625 C-9.25756616 -3.12121692 -4.83721744 -3.1823799 0 0 Z " fill="#181818" transform="translate(175.375,58.5625)"/>
<path d="M0 0 C1.98 0 3.96 0 6 0 C6 1.65 6 3.3 6 5 C7.98 5 9.96 5 12 5 C11.67 6.65 11.34 8.3 11 10 C9.35 10 7.7 10 6 10 C6 13.96 6 17.92 6 22 C7.65 22 9.3 22 11 22 C11.66 23.32 12.32 24.64 13 26 C6.73316195 28.33470437 6.73316195 28.33470437 3.125 26.6875 C1 25 1 25 0 24 C-0.07271741 21.64686445 -0.08370868 19.29166332 -0.0625 16.9375 C-0.05347656 15.64714844 -0.04445313 14.35679688 -0.03515625 13.02734375 C-0.02355469 12.02832031 -0.01195312 11.02929688 0 10 C-1.32 9.67 -2.64 9.34 -4 9 C-4 7.68 -4 6.36 -4 5 C-2.68 5 -1.36 5 0 5 C0 3.35 0 1.7 0 0 Z " fill="#1B1B1B" transform="translate(330,52)"/>
<path d="M0 0 C1.98 0 3.96 0 6 0 C6 1.65 6 3.3 6 5 C7.98 5 9.96 5 12 5 C11.67 6.65 11.34 8.3 11 10 C9.35 10 7.7 10 6 10 C6 13.96 6 17.92 6 22 C7.65 22 9.3 22 11 22 C11.66 23.32 12.32 24.64 13 26 C6.73316195 28.33470437 6.73316195 28.33470437 3.125 26.6875 C1 25 1 25 0 24 C-0.07271741 21.64686445 -0.08370868 19.29166332 -0.0625 16.9375 C-0.05347656 15.64714844 -0.04445313 14.35679688 -0.03515625 13.02734375 C-0.02355469 12.02832031 -0.01195312 11.02929688 0 10 C-1.32 9.67 -2.64 9.34 -4 9 C-4 7.68 -4 6.36 -4 5 C-2.68 5 -1.36 5 0 5 C0 3.35 0 1.7 0 0 Z " fill="#1B1B1B" transform="translate(313,52)"/>
<path d="M0 0 C1.98 0 3.96 0 6 0 C6 1.65 6 3.3 6 5 C7.98 5 9.96 5 12 5 C11.67 6.65 11.34 8.3 11 10 C9.35 10 7.7 10 6 10 C6 13.96 6 17.92 6 22 C7.65 22 9.3 22 11 22 C11.66 23.32 12.32 24.64 13 26 C6.73316195 28.33470437 6.73316195 28.33470437 3.125 26.6875 C1 25 1 25 0 24 C-0.07271741 21.64686445 -0.08370868 19.29166332 -0.0625 16.9375 C-0.05347656 15.64714844 -0.04445312 14.35679688 -0.03515625 13.02734375 C-0.02355469 12.02832031 -0.01195312 11.02929688 0 10 C-1.32 9.67 -2.64 9.34 -4 9 C-4 7.68 -4 6.36 -4 5 C-2.68 5 -1.36 5 0 5 C0 3.35 0 1.7 0 0 Z " fill="#1B1B1B" transform="translate(182,52)"/>
<path d="M0 0 C3.57044691 4.02503962 3.51878694 7.17049758 3.33203125 12.37890625 C2.85107897 16.1756001 1.98808581 17.58107339 -1 20 C-4.26101199 21.84089387 -7.59019087 23.45548715 -11 25 C-11.66 25.33 -12.32 25.66 -13 26 C-11.80055631 19.46969546 -8.92533226 16.33271206 -4 12 C-4.47050781 12.40992188 -4.94101563 12.81984375 -5.42578125 13.2421875 C-6.35970703 14.05042969 -6.35970703 14.05042969 -7.3125 14.875 C-8.23482422 15.67550781 -8.23482422 15.67550781 -9.17578125 16.4921875 C-11 18 -11 18 -14 20 C-14.4375 16.875 -14.4375 16.875 -14 13 C-11.31849059 9.64432579 -8.18719847 7.4484972 -4.1875 5.9375 C-1.72779896 5.16209725 -1.72779896 5.16209725 -0.6875 2.375 C-0.460625 1.59125 -0.23375 0.8075 0 0 Z M-2 9 C-2.33 9.66 -2.66 10.32 -3 11 C-2.34 11 -1.68 11 -1 11 C-1.33 10.34 -1.66 9.68 -2 9 Z " fill="#7EB144" transform="translate(86,11)"/>
<path d="M0 0 C1.65 0 3.3 0 5 0 C5.33 8.58 5.66 17.16 6 26 C6.66 26 7.32 26 8 26 C8.33 27.65 8.66 29.3 9 31 C7.3125 31.6875 7.3125 31.6875 5 32 C2.3125 30.8125 2.3125 30.8125 0 29 C-1.14652422 25.82308082 -1.12894636 22.74730172 -1.1328125 19.39453125 C-1.13410156 18.32912109 -1.13539062 17.26371094 -1.13671875 16.16601562 C-1.13285156 15.05935547 -1.12898438 13.95269531 -1.125 12.8125 C-1.12886719 11.69423828 -1.13273437 10.57597656 -1.13671875 9.42382812 C-1.13542969 8.36228516 -1.13414063 7.30074219 -1.1328125 6.20703125 C-1.13168457 5.2322583 -1.13055664 4.25748535 -1.12939453 3.25317383 C-1 1 -1 1 0 0 Z " fill="#1B1B1B" transform="translate(122,48)"/>
<path d="M0 0 C4.66666667 0 9.33333333 0 14 0 C13.67 1.65 13.34 3.3 13 5 C12.195625 5.12375 11.39125 5.2475 10.5625 5.375 C9.2940625 5.684375 9.2940625 5.684375 8 6 C6.5192152 8.9615696 6.64685963 11.83506295 6.4375 15.125 C6.35371094 16.40632813 6.26992187 17.68765625 6.18359375 19.0078125 C6.09271484 20.48894531 6.09271484 20.48894531 6 22 C4.02 22 2.04 22 0 22 C0 14.74 0 7.48 0 0 Z " fill="#121212" transform="translate(198,57)"/>
<path d="M0 0 C0.25523438 0.57492188 0.51046875 1.14984375 0.7734375 1.7421875 C2.54837721 5.00943321 5.02691275 7.47808931 7.5390625 10.1953125 C9 12 9 12 9 14 C8.21625 14.433125 7.4325 14.86625 6.625 15.3125 C3.58313785 17.26798281 3.01018099 18.60211849 2 22 C-0.57216446 21.6452187 -1.79677287 21.1957002 -3.6875 19.375 C-5.47651453 16.13773562 -5.87456692 13.70027593 -6 10 C-4.6551394 5.96541819 -3.35407832 2.71520626 0 0 Z M0 10 C1 12 1 12 1 12 Z M3 14 C4 16 4 16 4 16 Z " fill="#139B51" transform="translate(69,4)"/>
<path d="M0 0 C0.25523438 0.57492188 0.51046875 1.14984375 0.7734375 1.7421875 C2.54837721 5.00943321 5.02691275 7.47808931 7.5390625 10.1953125 C9 12 9 12 9 14 C7.35 14.66 5.7 15.32 4 16 C3.15841464 14.73461631 2.32700252 13.46246221 1.5 12.1875 C0.80390625 11.12595703 0.80390625 11.12595703 0.09375 10.04296875 C-1 8 -1 8 -1 5 C-1.66 5 -2.32 5 -3 5 C-1.125 1.125 -1.125 1.125 0 0 Z " fill="#0A984B" transform="translate(69,4)"/>
<path d="M0 0 C2.875 -0.125 2.875 -0.125 6 0 C6.66 0.66 7.32 1.32 8 2 C7.625 4.625 7.625 4.625 7 7 C1.125 3.375 1.125 3.375 0 0 Z " fill="#272727" transform="translate(69,58)"/>
<path d="M0 0 C0.78375 0.04125 1.5675 0.0825 2.375 0.125 C2.1875 1.9375 2.1875 1.9375 1.375 4.125 C-1.1875 5.875 -1.1875 5.875 -3.625 7.125 C-4.25 4.75 -4.25 4.75 -4.625 2.125 C-2.625 0.125 -2.625 0.125 0 0 Z " fill="#1C1C1C" transform="translate(4.625,57.875)"/>
<path d="M0 0 C-1.28650706 0.69710731 -2.57940665 1.38242876 -3.875 2.0625 C-4.95394531 2.63677734 -4.95394531 2.63677734 -6.0546875 3.22265625 C-6.69664063 3.47917969 -7.33859375 3.73570313 -8 4 C-8.66 3.67 -9.32 3.34 -10 3 C-3.375 -1.125 -3.375 -1.125 0 0 Z " fill="#84B44F" transform="translate(85,34)"/>
<path d="M0 0 C0.66 0.33 1.32 0.66 2 1 C1.01 1 0.02 1 -1 1 C-0.67 0.67 -0.34 0.34 0 0 Z " fill="#86B550" transform="translate(86,31)"/>
<path d="" fill="#8AB857" transform="translate(0,0)"/>
<path d="" fill="#83B44C" transform="translate(0,0)"/>
<path d="" fill="#98C069" transform="translate(0,0)"/>
</svg>
