<?xml version="1.0" encoding="UTF-8"?>
<svg xmlns="http://www.w3.org/2000/svg" xmlns:xlink="http://www.w3.org/1999/xlink" width="384px" height="100px" viewBox="0 0 384 100" version="1.1">
<g id="surface1">
<path style=" stroke:none;fill-rule:nonzero;fill:rgb(0%,0%,0%);fill-opacity:1;" d="M 92.128906 64.386719 C 80.648438 64.386719 69.558594 64.40625 58.46875 64.375 C 55.554688 64.367188 54.328125 64.558594 54.347656 65.386719 C 54.386719 66.863281 51.339844 67.683594 45.566406 67.761719 C 40.550781 67.832031 35.496094 67.828125 30.480469 67.761719 C 24.632812 67.683594 21.425781 66.8125 21.570312 65.285156 C 21.84375 62.371094 20.445312 59.441406 22.550781 56.542969 C 22.820312 56.171875 22.011719 55.976562 21.234375 55.761719 C 19.378906 55.25 17.347656 54.773438 15.605469 54.238281 C 12.839844 53.382812 13.105469 52.253906 16.046875 51.507812 C 18.910156 50.78125 23.460938 50.738281 26.609375 51.421875 C 27.695312 51.660156 28.601562 51.953125 29.683594 52.1875 C 30.75 52.421875 31.527344 52.757812 33.105469 52.859375 C 34.832031 52.480469 34.691406 51.894531 35.214844 51.402344 C 36.445312 50.238281 37.324219 49.050781 38.496094 47.886719 C 40.871094 45.519531 47.25 44.160156 56.667969 44.136719 C 72.789062 44.09375 88.910156 44.09375 105.03125 44.132812 C 114.535156 44.15625 121.011719 45.574219 123.304688 47.984375 C 124.816406 49.570312 126.335938 51.160156 127.914062 52.816406 C 130.347656 52.640625 131.507812 52.179688 132.933594 51.828125 C 137.183594 50.785156 141.9375 50.648438 145.246094 51.5 C 148.625 52.371094 148.109375 53.667969 143.941406 54.78125 C 143.492188 54.902344 143.082031 55.035156 142.574219 55.136719 C 139.640625 55.714844 138.320312 56.410156 139.640625 57.382812 C 140.902344 58.3125 139.835938 59.320312 140.628906 60.265625 C 144.988281 60.242188 148.859375 59.207031 149.207031 57.878906 C 149.582031 56.4375 149.875 54.988281 149.683594 53.550781 C 149.234375 50.160156 149.496094 46.765625 149.527344 43.375 C 149.53125 42.78125 148.894531 42.507812 146.714844 42.269531 C 138.632812 41.398438 134.421875 38.953125 136.875 36.738281 C 137.46875 36.203125 139.121094 36.101562 140.808594 36.117188 C 143.660156 36.140625 144.707031 35.832031 144.578125 35.09375 C 144.46875 34.453125 143.921875 33.53125 147.574219 33.542969 C 151.28125 33.558594 150.261719 34.492188 150.464844 35.125 C 150.585938 35.507812 150.03125 36.011719 152.375 36.046875 C 155 36.085938 154.585938 35.546875 154.691406 35.125 C 154.714844 35.023438 154.695312 34.921875 154.699219 34.824219 C 154.742188 34.238281 154.769531 33.554688 157.679688 33.523438 C 160.738281 33.488281 160.894531 34.222656 160.835938 34.773438 C 160.742188 35.65625 161.621094 36.1875 165.480469 36.167969 C 167.027344 36.160156 167.914062 36.464844 168.222656 36.886719 C 170.09375 39.421875 166.882812 41.1875 157.859375 42.332031 C 155.324219 42.652344 155.558594 43.148438 155.554688 43.671875 C 155.539062 47.835938 155.574219 52 155.550781 56.164062 C 155.546875 56.769531 155.464844 57.375 155.179688 57.972656 C 154.292969 59.832031 150.488281 61.171875 143.785156 61.824219 C 140.871094 62.109375 140.070312 62.507812 140.25 63.238281 C 140.417969 63.90625 140.363281 64.582031 140.253906 65.25 C 139.988281 66.855469 137.070312 67.679688 130.945312 67.761719 C 126.054688 67.824219 121.136719 67.824219 116.246094 67.761719 C 110.355469 67.683594 107.507812 66.886719 107.410156 65.296875 C 107.363281 64.582031 106.363281 64.347656 103.734375 64.378906 C 100 64.417969 96.253906 64.386719 92.128906 64.386719 M 34.535156 54.648438 C 29.441406 55.671875 27.449219 57.074219 27.378906 58.699219 C 27.335938 59.671875 27.605469 60.652344 27.304688 61.621094 C 26.996094 62.605469 28.398438 62.882812 32.097656 62.859375 C 44.71875 62.785156 57.351562 62.777344 69.980469 62.78125 C 90.21875 62.785156 110.453125 62.8125 130.691406 62.847656 C 133.023438 62.851562 133.941406 62.597656 133.921875 62.007812 C 133.882812 60.832031 133.96875 59.65625 133.960938 58.484375 C 133.941406 55.636719 126.792969 53.714844 115.894531 53.707031 C 92.558594 53.6875 69.222656 53.699219 45.890625 53.699219 C 41.917969 53.699219 38.25 53.953125 34.535156 54.648438 M 77.890625 51.585938 C 77.910156 49.910156 77.835938 48.234375 77.988281 46.5625 C 78.054688 45.859375 77.066406 45.613281 74.394531 45.628906 C 68.867188 45.664062 63.332031 45.613281 57.804688 45.648438 C 53.140625 45.679688 48.550781 45.960938 46.167969 47.101562 C 42.964844 48.632812 42.34375 50.371094 40.886719 52.148438 C 52.761719 52.148438 64.0625 52.148438 75.359375 52.148438 C 76.46875 52.148438 77.382812 52.058594 77.890625 51.585938 M 88.800781 45.640625 C 84.933594 45.476562 83.527344 45.863281 83.769531 46.90625 C 84.105469 48.347656 83.957031 49.796875 83.816406 51.238281 C 83.746094 51.953125 84.824219 52.171875 87.460938 52.164062 C 96.359375 52.136719 105.261719 52.164062 114.160156 52.148438 C 116.28125 52.144531 118.472656 52.269531 120.917969 52.023438 C 119.742188 50.75 118.53125 49.523438 117.484375 48.285156 C 116.300781 46.878906 113.070312 46.050781 107.675781 45.785156 C 101.660156 45.484375 95.582031 45.707031 88.800781 45.640625 M 142.65625 38.582031 C 143.382812 40.140625 147.65625 41.148438 153.113281 41.050781 C 158.265625 40.960938 162.316406 39.855469 162.410156 38.566406 C 162.453125 37.988281 161.742188 37.679688 159.367188 37.6875 C 154.75 37.707031 150.132812 37.703125 145.515625 37.707031 C 143.6875 37.707031 142.550781 37.890625 142.65625 38.582031 M 42.808594 66.125 C 43.324219 66.125 43.839844 66.121094 44.351562 66.125 C 46.917969 66.148438 48.46875 65.933594 48.550781 65.164062 C 48.640625 64.308594 46.539062 64.386719 44.441406 64.386719 C 39.941406 64.390625 35.441406 64.390625 30.941406 64.382812 C 29.039062 64.382812 27.304688 64.375 27.34375 65.085938 C 27.378906 65.734375 28.226562 66.117188 30.890625 66.117188 C 34.617188 66.117188 38.34375 66.121094 42.808594 66.125 M 129.441406 66.128906 C 129.695312 66.128906 129.953125 66.125 130.210938 66.128906 C 133.429688 66.175781 134.054688 65.644531 134.078125 64.96875 C 134.105469 64.160156 131.761719 64.40625 130.1875 64.394531 C 125.691406 64.367188 121.195312 64.394531 116.695312 64.378906 C 114.644531 64.371094 113.242188 64.457031 113.230469 65.128906 C 113.21875 65.796875 114.089844 66.136719 116.765625 66.128906 C 120.746094 66.117188 124.730469 66.128906 129.441406 66.128906 M 20.621094 53.429688 C 21.800781 53.730469 22.960938 54.039062 24.164062 54.332031 C 24.996094 54.535156 25.902344 54.609375 26.832031 54.359375 C 27.734375 54.121094 27.578125 53.878906 26.777344 53.660156 C 25.644531 53.347656 24.488281 53.039062 23.269531 52.75 C 22.503906 52.566406 21.5625 52.410156 20.542969 52.621094 C 19.589844 52.820312 19.589844 53.070312 20.621094 53.429688 M 140.214844 52.546875 C 137.25 52.585938 136.015625 53.246094 134.351562 53.710938 C 133.132812 54.050781 134.332031 54.363281 135.675781 54.4375 C 137.644531 54.550781 141.21875 53.203125 140.214844 52.546875 Z M 140.214844 52.546875 "/>
<path style=" stroke:none;fill-rule:nonzero;fill:rgb(0%,0%,0%);fill-opacity:1;" d="M 67.34375 57.078125 C 69.992188 56.207031 72.464844 55.394531 74.949219 54.582031 C 76.007812 54.238281 77.121094 53.867188 79.082031 54.007812 C 81.027344 54.148438 81.476562 54.589844 81.429688 55.046875 C 81.367188 55.699219 82.804688 55.824219 84.890625 55.808594 C 86.039062 55.800781 87.238281 55.800781 88.335938 55.875 C 90.980469 56.050781 91.902344 56.660156 90.03125 57.167969 C 83.71875 58.886719 77.230469 60.558594 70.773438 62.238281 C 69.804688 62.492188 68.578125 62.605469 67.285156 62.371094 C 65.824219 62.109375 65.378906 61.753906 66.105469 61.324219 C 67.332031 60.59375 68.585938 59.871094 69.839844 59.136719 C 63.972656 58.628906 63.652344 58.363281 67.34375 57.078125 Z M 67.34375 57.078125 "/>
<path style=" stroke:none;fill-rule:nonzero;fill:rgb(0%,0%,0%);fill-opacity:1;" d="M 111.6875 61.738281 C 106.300781 61.636719 105.707031 61.398438 105.921875 59.574219 C 106.0625 58.410156 106.875 58.203125 111.503906 58.199219 C 116.132812 58.191406 120.765625 58.226562 125.390625 58.191406 C 128.546875 58.164062 129.855469 58.5625 129.964844 59.324219 C 130.007812 59.625 130.046875 59.925781 130.011719 60.226562 C 129.867188 61.507812 129.011719 61.722656 124.007812 61.734375 C 120.023438 61.742188 116.035156 61.738281 111.6875 61.738281 M 119.386719 60.203125 C 120.683594 60.125 122.332031 60.371094 123.78125 59.839844 C 119.652344 59.722656 116.085938 59.65625 112.53125 59.960938 C 114.496094 60.3125 116.660156 60.152344 119.386719 60.203125 Z M 119.386719 60.203125 "/>
<path style=" stroke:none;fill-rule:nonzero;fill:rgb(0%,0%,0%);fill-opacity:1;" d="M 33.230469 61.554688 C 30.367188 60.636719 31.453125 59.660156 31.941406 58.722656 C 32.152344 58.320312 33.753906 58.203125 35.289062 58.203125 C 40.808594 58.203125 46.328125 58.207031 51.851562 58.203125 C 54.03125 58.199219 55.191406 58.5 55.441406 59.039062 C 55.609375 59.402344 55.722656 59.773438 55.675781 60.136719 C 55.496094 61.535156 54.691406 61.761719 49.238281 61.726562 C 44 61.695312 38.730469 61.894531 33.230469 61.554688 M 41.664062 59.746094 C 40.414062 59.796875 38.933594 59.632812 37.449219 60.117188 C 41.617188 60.238281 45.199219 60.25 49.894531 60.09375 C 46.804688 59.585938 44.492188 59.808594 41.664062 59.746094 Z M 41.664062 59.746094 "/>
</g>
</svg>
