<?xml version="1.0" encoding="UTF-8"?>
<svg version="1.1" xmlns="http://www.w3.org/2000/svg" width="490" height="488">
<path d="M0 0 C7.58972293 0.31105422 14.13468816 1.13579745 19.70141602 6.70092773 C25.12572471 13.31414763 27.92143043 20.60450948 30.75 28.5625 C31.22116232 29.85145853 31.69381178 31.13987445 32.16796875 32.42773438 C35.58920398 41.75528341 35.58920398 41.75528341 36.86230469 45.61279297 C38.02830498 49.46843148 38.02830498 49.46843148 40.83056641 52.14599609 C42.16935253 52.74165545 43.51562094 53.32065674 44.8671875 53.88671875 C49.70739197 56.41319911 53.14752789 60.76216339 55.06933594 65.80712891 C56.62741712 71.53515634 56.32532644 77.48801683 56.3359375 83.37890625 C56.3459227 85.30705421 56.3459227 85.30705421 56.35610962 87.27415466 C56.36803242 89.98480595 56.3717953 92.69533023 56.37060547 95.40600586 C56.37040179 98.86832811 56.39777505 102.32983407 56.43214989 105.79196262 C56.45980085 109.11262241 56.45856821 112.4331329 56.4609375 115.75390625 C56.47530853 116.99153214 56.48967957 118.22915802 56.50448608 119.50428772 C56.44788428 130.15798008 56.44788428 130.15798008 52 135 C49.25503569 137.54889543 47.34376328 138.89215383 43.56640625 139.1953125 C38.98832304 138.96402746 36.62152857 138.50499197 33 135.5625 C32.34 134.716875 31.68 133.87125 31 133 C30.34 132.34 29.68 131.68 29 131 C28.01 127.535 28.01 127.535 27 124 C-33.39 123.505 -33.39 123.505 -95 123 C-95 124.98 -95 126.96 -95 129 C-97.08208818 132.7923749 -99.10873795 136.00178435 -103 138 C-107.37014846 139.07791425 -110.90307001 139.31642211 -115.25 138.0625 C-119.82151684 134.63386237 -122.56806203 130.78881061 -123.45678711 125.05075073 C-123.62704556 121.54356434 -123.64065302 118.0696219 -123.59375 114.55859375 C-123.59379028 113.27694839 -123.59383057 111.99530304 -123.59387207 110.67481995 C-123.59222683 107.97403307 -123.57367721 105.27408431 -123.54199219 102.57348633 C-123.5022758 99.12814078 -123.49795635 95.68388774 -123.50545502 92.23835659 C-123.50927816 88.92830482 -123.4884275 85.61859176 -123.46875 82.30859375 C-123.46854858 81.0792662 -123.46834717 79.84993866 -123.46813965 78.58335876 C-123.35504456 70.37498194 -122.55339212 64.39653689 -116.9375 58.0625 C-116.17759766 57.18271484 -116.17759766 57.18271484 -115.40234375 56.28515625 C-114 55 -114 55 -112 55 C-111.67 54.34 -111.34 53.68 -111 53 C-110.22914062 52.79503906 -109.45828125 52.59007812 -108.6640625 52.37890625 C-104.61715725 50.28424708 -103.90197703 47.07355686 -102.375 42.9375 C-102.07360107 42.16325684 -101.77220215 41.38901367 -101.46166992 40.59130859 C-99.7458373 36.14146724 -98.11761209 31.66381972 -96.67578125 27.1171875 C-95.83286418 24.47637216 -94.92532182 21.86308109 -94 19.25 C-93.690625 18.36828125 -93.38125 17.4865625 -93.0625 16.578125 C-90.40281069 10.12446711 -86.84461889 6.64325584 -81 3 C-77.5 1.625 -77.5 1.625 -75 1 C-73.5393715 3.64738916 -73 4.89448334 -73 8 C-72.34 8 -71.68 8 -71 8 C-69.375 9.3125 -69.375 9.3125 -68 11 C-68 11.99 -68 12.98 -68 14 C-69.794375 14.556875 -69.794375 14.556875 -71.625 15.125 C-78.20981328 18.42899962 -79.6043329 25.50160831 -82 32 C-83.98 36.95 -85.96 41.9 -88 47 C-34.54 46.505 -34.54 46.505 20 46 C16.24547803 30.44061616 16.24547803 30.44061616 5.875 15.6875 C1.62618113 14.6714781 -2.64950618 14.32100731 -7 14 C-6.44010697 10.00987629 -5.24330232 7.4744948 -2.9375 4.1875 C-2.38964844 3.39730469 -1.84179688 2.60710937 -1.27734375 1.79296875 C-0.85582031 1.20128906 -0.43429688 0.60960937 0 0 Z M-109 69 C-109.56270114 73.34083735 -109.51859598 75.27710864 -106.9375 78.875 C-103.42309156 81.41733802 -101.32499429 82 -97 82 C-94.11982918 80.78392788 -92.54761501 79.69696456 -90.625 77.25 C-89.65754184 73.76715062 -90.02530851 71.47233843 -91 68 C-93.32005578 65.06322053 -95.82400443 63.22946255 -99.5625 62.5 C-104.06661561 63.42392115 -106.46822165 65.20233248 -109 69 Z M25 67 C23.44975536 70.10048928 23.71007985 72.57894218 24 76 C25.79562405 78.75329021 27.05254922 80.52627461 30 82 C32.87306228 82.50095023 32.87306228 82.50095023 36 82 C39.97945568 78.92496607 42.16681832 75.99909009 43 71 C41.46837889 67.34112734 39.49429707 64.89690412 36 63 C30.91104609 62.24207069 28.6389218 63.46504739 25 67 Z M-10.28149414 91.91479492 C-11.55283707 91.92198044 -12.82417999 91.92916595 -14.13404846 91.93656921 C-15.51775831 91.95049978 -16.90146107 91.96515025 -18.28515625 91.98046875 C-19.33316312 91.9909043 -19.33316312 91.9909043 -20.40234184 92.00155067 C-24.09522768 92.03887666 -27.78796724 92.08286032 -31.48071289 92.13208008 C-35.29618344 92.18156685 -39.1114441 92.20765822 -42.92716312 92.22851086 C-45.86215342 92.24885846 -48.79673079 92.28672304 -51.73147392 92.3293705 C-53.13842653 92.34672203 -54.54547765 92.35740812 -55.95253181 92.36131859 C-57.9178092 92.36838498 -59.88293192 92.40267878 -61.84790039 92.43823242 C-63.5252401 92.4560804 -63.5252401 92.4560804 -65.23646545 92.47428894 C-68.10275183 92.75779774 -68.10275183 92.75779774 -69.93138123 94.86714172 C-71.31518376 97.03280105 -71.31518376 97.03280105 -70.25 99.6875 C-69.1977169 101.89755147 -69.1977169 101.89755147 -68 103 C-65.86356794 103.11005547 -63.72345974 103.14913578 -61.58422852 103.16113281 C-60.5793338 103.16858017 -60.5793338 103.16858017 -59.55413818 103.17617798 C-57.32905058 103.19083146 -55.10403425 103.19760651 -52.87890625 103.203125 C-51.33812964 103.20887344 -49.79735307 103.2146312 -48.25657654 103.22039795 C-45.02252874 103.23091674 -41.78850587 103.23675377 -38.55444336 103.24023438 C-34.40345194 103.24572376 -30.25278779 103.26975725 -26.10189915 103.29820633 C-22.91838101 103.31679765 -19.73494229 103.3220364 -16.55137444 103.32357025 C-15.02070258 103.32660482 -13.49003238 103.33466029 -11.95941353 103.34775543 C-9.82107511 103.3647451 -7.68354388 103.36295381 -5.54516602 103.35644531 C-4.32684586 103.36009094 -3.1085257 103.36373657 -1.85328674 103.36749268 C-0.91170212 103.24622009 0.02988251 103.12494751 1 103 C3.29637779 100.24104365 3.29637779 100.24104365 2.75 97.4375 C2.16191948 94.84999433 2.16191948 94.84999433 0 93 C-3.398407 91.78440387 -6.70099801 91.88945138 -10.28149414 91.91479492 Z " fill="#010101" transform="translate(125,194)"/>
<path d="M0 0 C1.65 0 3.3 0 5 0 C6.53297297 3.06594594 6.12131455 6.27111853 6.09765625 9.6328125 C6.0962413 10.38464813 6.09482635 11.13648376 6.09336853 11.91110229 C6.08776465 14.3157751 6.07521157 16.72035527 6.0625 19.125 C6.0574855 20.75390491 6.0529225 22.38281127 6.04882812 24.01171875 C6.03779397 28.00784827 6.02052679 32.00390842 6 36 C6.99443115 35.99476318 7.9888623 35.98952637 9.01342773 35.98413086 C12.69033921 35.96607959 16.36724675 35.95456754 20.04418945 35.94506836 C21.63794614 35.94002843 23.23169819 35.9331965 24.82543945 35.92456055 C27.11150253 35.91248001 29.39750467 35.90676845 31.68359375 35.90234375 C32.40026718 35.89718246 33.11694061 35.89202118 33.85533142 35.88670349 C35.57063672 35.88650737 37.28581266 35.93807993 39 36 C40 37 40 37 40.2734375 39.640625 C39.94950366 43.62038366 38.5758394 46.36148277 36.625 49.75 C36.27066895 50.38977783 35.91633789 51.02955566 35.55126953 51.6887207 C34.37931166 53.7993089 33.19001926 55.89955 32 58 C30.28702783 61.05991899 28.58126889 64.12383961 26.875 67.1875 C26.44815918 67.95030273 26.02131836 68.71310547 25.58154297 69.49902344 C23.19342617 73.78339558 20.91028132 78.09460956 18.75 82.5 C11.68024862 96.87983425 11.68024862 96.87983425 7 100 C6.01 99.67 5.02 99.34 4 99 C4 87.12 4 75.24 4 63 C3.01 63.33 2.02 63.66 1 64 C-3.31392506 64.07530886 -7.62245661 63.90565528 -11.93383789 63.75805664 C-14.05793556 63.68765129 -16.18205438 63.63342016 -18.30664062 63.58007812 C-19.65367742 63.53744487 -21.00068443 63.49385758 -22.34765625 63.44921875 C-23.57492432 63.41143311 -24.80219238 63.37364746 -26.06665039 63.3347168 C-29 63 -29 63 -31 61 C-31 55.17521512 -28.73410152 51.55270145 -25.6640625 46.71484375 C-23.99679351 43.99476876 -22.58106849 41.24388262 -21.1875 38.375 C-17.79769198 31.47179721 -14.01667764 24.81504829 -10.21289062 18.13476562 C-8.10822741 14.43042279 -6.02411332 10.71452967 -3.9375 7 C-3.17586993 5.64578345 -2.41415966 4.29161201 -1.65234375 2.9375 C-1.10707031 1.968125 -0.56179687 0.99875 0 0 Z " fill="#020202" transform="translate(87,136)"/>
<path d="M0 0 C5.89545615 5.17356356 8.79866077 14.43156287 10 22 C10.23475308 30.35444782 7.72675224 37.55080406 2.34765625 43.97265625 C-2.41514621 48.55421041 -7.86899822 50.98409748 -13.94921875 53.4453125 C-17.33413281 55.17027511 -19.38225667 57.27968751 -22 60 C-22.99 60.33 -23.98 60.66 -25 61 C-25.33 61.66 -25.66 62.32 -26 63 C-27.19876651 57.55106131 -26.91360308 54.77830905 -24 50 C-24.66 50 -25.32 50 -26 50 C-26.66 48.68 -27.32 47.36 -28 46 C-28.33 47.98 -28.66 49.96 -29 52 C-29.99 51.34 -30.98 50.68 -32 50 C-32 49.34 -32 48.68 -32 48 C-33.08667969 47.57267578 -33.08667969 47.57267578 -34.1953125 47.13671875 C-42.52299165 43.76157302 -50.95698401 40.11676951 -55.16015625 31.66796875 C-57.41840431 24.49409235 -56.90749216 16.97959308 -53.625 10.25 C-51.38752784 6.19376392 -51.38752784 6.19376392 -49 5 C-48.1028125 6.7634375 -48.1028125 6.7634375 -47.1875 8.5625 C-44.83454391 12.39869488 -42.36791974 14.23979859 -38.5 16.5 C-32.25585149 20.1690684 -29.26841542 24.19475373 -27 31 C-26.525625 29.80375 -26.05125 28.6075 -25.5625 27.375 C-22.55322775 21.3564555 -17.26838127 18.80648549 -11.5546875 15.6484375 C-5.09397507 11.831713 -3.22763458 8.04091644 -1 1 C-0.67 0.67 -0.34 0.34 0 0 Z M-29 41 C-29 42.32 -29 43.64 -29 45 C-28.67 43.68 -28.34 42.36 -28 41 C-28.33 41 -28.66 41 -29 41 Z M-22 44 C-21 46 -21 46 -21 46 Z " fill="#056437" transform="translate(213,152)"/>
<path d="M0 0 C6.875 1.875 6.875 1.875 8 3 C8.56274765 5.68544346 9.08061023 8.36253387 9.5625 11.0625 C9.77036133 12.20041992 9.77036133 12.20041992 9.98242188 13.36132812 C10.32511827 15.24024975 10.6630073 17.12004701 11 19 C11.18175781 18.45472656 11.36351562 17.90945313 11.55078125 17.34765625 C13.3671875 11.8984375 15.18359375 6.44921875 17 1 C19.8125 0.75 19.8125 0.75 23 1 C26.48969767 4.35010976 27.15525285 8.7032927 28.1875 13.25 C28.36474609 13.99507812 28.54199219 14.74015625 28.72460938 15.5078125 C29.15834193 17.33652271 29.58034597 19.16800779 30 21 C30.18175781 19.58847656 30.18175781 19.58847656 30.3671875 18.1484375 C30.53476562 16.90320313 30.70234375 15.65796875 30.875 14.375 C31.03742188 13.14523438 31.19984375 11.91546875 31.3671875 10.6484375 C31.95483689 7.26038483 32.81988122 4.22301349 34 1 C36.33294775 0.95758277 38.66702567 0.95907063 41 1 C42 2 42 2 42.140625 4.7265625 C42.00727302 7.83070024 41.55542155 10.38465828 40.75 13.375 C40.48058594 14.39851563 40.21117187 15.42203125 39.93359375 16.4765625 C39.62550781 17.63929688 39.31742187 18.80203125 39 20 C38.26226929 22.91454161 37.53755187 25.83228233 36.8125 28.75 C36.4650647 30.14068022 36.11742685 31.53130986 35.76953125 32.921875 C35.51558594 33.93765625 35.26164062 34.9534375 35 36 C31.90226756 36.84062397 29.21667249 37.08935201 26 37 C23.90429574 31.30601106 22.54981916 26.04801071 22 20 C21.34 20.33 20.68 20.66 20 21 C19.20058692 23.52369457 18.5063892 25.99718906 17.875 28.5625 C17.69324219 29.27341797 17.51148438 29.98433594 17.32421875 30.71679688 C16.87555535 32.47602969 16.43684043 34.23779417 16 36 C8.25 37 8.25 37 6 37 C3.64914109 28.63444356 1.50888438 20.23317367 -0.375 11.75 C-0.56674805 10.92846436 -0.75849609 10.10692871 -0.95605469 9.26049805 C-1.40251363 7.19249506 -1.71191253 5.09594074 -2 3 C-1.34 2.01 -0.68 1.02 0 0 Z " fill="#060306" transform="translate(378,242)"/>
<path d="M0 0 C0.391875 0.556875 0.78375 1.11375 1.1875 1.6875 C4.65749634 6.11473671 8.38122888 9.29775266 13.0625 12.375 C17.39756922 15.38761507 20.51397333 17.82287482 22 23 C22.57768322 26.99857255 22.8674416 30.96359675 23 35 C22.34 35 21.68 35 21 35 C21.185625 35.86625 21.37125 36.7325 21.5625 37.625 C22.00667933 41.05152628 21.71954492 43.64212371 21 47 C20.01 46.34 19.02 45.68 18 45 C18 44.34 18 43.68 18 43 C16.91332031 42.57267578 16.91332031 42.57267578 15.8046875 42.13671875 C7.47700835 38.76157302 -0.95698401 35.11676951 -5.16015625 26.66796875 C-7.42685836 19.46723599 -6.91177037 11.97758065 -3.5625 5.25 C-1.3605948 1.3605948 -1.3605948 1.3605948 0 0 Z " fill="#86BA44" transform="translate(163,157)"/>
<path d="M0 0 C0.91644287 0.00523682 1.83288574 0.01047363 2.77709961 0.01586914 C3.76645508 0.0190918 4.75581055 0.02231445 5.77514648 0.02563477 C6.81606445 0.03401367 7.85698242 0.04239258 8.92944336 0.05102539 C10.49662109 0.05779297 10.49662109 0.05779297 12.09545898 0.06469727 C14.68600996 0.07652627 17.27644895 0.0930085 19.86694336 0.11352539 C20.92944336 1.92602539 20.92944336 1.92602539 21.86694336 4.11352539 C21.53694336 5.10352539 21.20694336 6.09352539 20.86694336 7.11352539 C15.91694336 7.11352539 10.96694336 7.11352539 5.86694336 7.11352539 C5.86694336 9.42352539 5.86694336 11.73352539 5.86694336 14.11352539 C10.15694336 14.11352539 14.44694336 14.11352539 18.86694336 14.11352539 C19.19694336 15.43352539 19.52694336 16.75352539 19.86694336 18.11352539 C18.75366211 19.85180664 18.75366211 19.85180664 16.86694336 21.11352539 C14.38647461 21.40649414 14.38647461 21.40649414 11.67944336 21.30102539 C10.32786133 21.26041992 10.32786133 21.26041992 8.94897461 21.21899414 C8.2619043 21.18418945 7.57483398 21.14938477 6.86694336 21.11352539 C6.53694336 23.75352539 6.20694336 26.39352539 5.86694336 29.11352539 C7.47375977 29.09612305 7.47375977 29.09612305 9.11303711 29.07836914 C10.51017079 29.0689924 11.90730635 29.05989208 13.30444336 29.05102539 C14.01149414 29.04264648 14.71854492 29.03426758 15.44702148 29.02563477 C17.25387895 29.01698951 19.06081939 29.06132528 20.86694336 29.11352539 C21.86694336 30.11352539 21.86694336 30.11352539 21.92944336 32.67602539 C21.90881836 33.48040039 21.88819336 34.28477539 21.86694336 35.11352539 C18.88886177 35.97269404 16.23195419 36.24203049 13.13647461 36.24633789 C11.8090625 36.24827148 11.8090625 36.24827148 10.45483398 36.25024414 C9.53895508 36.24637695 8.62307617 36.24250977 7.67944336 36.23852539 C6.75196289 36.24239258 5.82448242 36.24625977 4.86889648 36.25024414 C3.98782227 36.24895508 3.10674805 36.24766602 2.19897461 36.24633789 C0.98818237 36.244646 0.98818237 36.244646 -0.24707031 36.24291992 C-2.13305664 36.11352539 -2.13305664 36.11352539 -3.13305664 35.11352539 C-3.23392876 32.60428386 -3.27277696 30.12316155 -3.26586914 27.61352539 C-3.26682587 26.86264648 -3.26778259 26.11176758 -3.26876831 25.33813477 C-3.26945002 23.74763912 -3.26759636 22.15714072 -3.26342773 20.56665039 C-3.25807931 18.12387884 -3.26337298 15.68129118 -3.26977539 13.23852539 C-3.26911461 11.69685832 -3.26783344 10.15519136 -3.26586914 8.61352539 C-3.26789337 7.87811523 -3.2699176 7.14270508 -3.27200317 6.38500977 C-3.24309495 0.17260377 -3.24309495 0.17260377 0 0 Z " fill="#130D0B" transform="translate(206.133056640625,242.886474609375)"/>
<path d="M0 0 C3.75060012 3.65283566 4.47822633 6.79766062 4.5859375 11.98046875 C4.43952913 16.73264057 3.80625731 20.0064828 0.4609375 23.48046875 C-3.84030099 25.85746897 -8.31351515 25.85573531 -13.1015625 25.66796875 C-17.42580488 24.3226489 -19.62717615 21.57009752 -22.2265625 17.98046875 C-23.73992773 13.16521575 -23.40582816 9.09614776 -21.6640625 4.48046875 C-19.42226185 1.03770347 -17.61052643 -0.62538647 -13.7265625 -1.95703125 C-8.84978119 -2.39052292 -4.28346381 -2.70120473 0 0 Z M-12.5390625 6.29296875 C-14.57117871 9.98772549 -14.25229611 12.59887196 -13.9140625 16.79296875 C-12.08703023 19.04215955 -12.08703023 19.04215955 -9.4140625 19.04296875 C-6.74109477 19.04215955 -6.74109477 19.04215955 -4.9140625 16.79296875 C-4.41854663 13.75649361 -4.44645718 10.83240331 -4.9140625 7.79296875 C-6.62441713 5.63155331 -6.62441713 5.63155331 -8.9140625 4.79296875 C-11.03770731 4.56687538 -11.03770731 4.56687538 -12.5390625 6.29296875 Z " fill="#060205" transform="translate(359.9140625,253.20703125)"/>
<path d="M0 0 C4.36406996 1.28775835 6.37880807 2.07823133 8.9375 5.875 C9.94624877 8.84190815 10.27329405 10.90266742 10 14 C4.60539047 16.27141454 -0.26157749 16.20413361 -6 16 C-5.67 17.32 -5.34 18.64 -5 20 C-2.08347826 20.16681109 -2.08347826 20.16681109 1 20 C1.66 19.34 2.32 18.68 3 18 C5.26274788 18.35355436 6.95088852 18.97544426 9 20 C8.4375 22.3125 8.4375 22.3125 7 25 C3.6875 26.75 3.6875 26.75 0 28 C-1.2375 28.4640625 -1.2375 28.4640625 -2.5 28.9375 C-6.2796101 29.03199025 -9.11071686 27.27993195 -12 25 C-15.79431698 20.7761377 -16.13639312 16.53244585 -16 11 C-15.18437565 7.14763141 -13.44895307 4.50026199 -10.8125 1.5625 C-7.12986792 -0.48340671 -4.06779914 -0.6252215 0 0 Z M-5 7 C-5 8.32 -5 9.64 -5 11 C-1.535 10.505 -1.535 10.505 2 10 C1.34 9.01 0.68 8.02 0 7 C-2.58380177 6.74969023 -2.58380177 6.74969023 -5 7 Z " fill="#020206" transform="translate(260,251)"/>
<path d="M0 0 C3.09660214 2.92548865 3.94692594 4.48783528 4.390625 8.76953125 C4.36431837 10.11774585 4.31701804 11.46569518 4.25 12.8125 C4.23195313 13.50537109 4.21390625 14.19824219 4.1953125 14.91210938 C4.14851064 16.60867664 4.07677624 18.30452476 4 20 C4.99 20 5.98 20 7 20 C7 21.98 7 23.96 7 26 C2.39726126 26.88514207 0.10896442 27.12532642 -4 25 C-4.8971875 25.4640625 -4.8971875 25.4640625 -5.8125 25.9375 C-9.11667974 27.5423873 -11.50184434 26.82683679 -15 26 C-16.9375 24.9375 -16.9375 24.9375 -18 23 C-18.39248506 19.90918012 -18.62637002 17.95288724 -18 15 C-15.2786236 11.86629385 -13.24627123 11.06977685 -9.25 9.9375 C-8.1775 9.628125 -7.105 9.31875 -6 9 C-5.67 8.01 -5.34 7.02 -5 6 C-7.64 6.66 -10.28 7.32 -13 8 C-13 8.66 -13 9.32 -13 10 C-16 9 -16 9 -17.1875 6.9375 C-17.455625 6.298125 -17.72375 5.65875 -18 5 C-13.20812181 -0.75025383 -7.10506022 -2.0108661 0 0 Z M-9 15 C-9.33 16.65 -9.66 18.3 -10 20 C-9.01 20.33 -8.02 20.66 -7 21 C-6.01 20.34 -5.02 19.68 -4 19 C-4 17.68 -4 16.36 -4 15 C-5.65 15 -7.3 15 -9 15 Z " fill="#060304" transform="translate(440,252)"/>
<path d="M0 0 C3.0625 2.0625 3.0625 2.0625 5 4 C3.5511811 7.74278215 3.5511811 7.74278215 1.125 8.875 C-1.48657249 9.02862191 -2.69223153 8.15388424 -5 7 C-7.79564735 7.38587397 -7.79564735 7.38587397 -10 9 C-10.22918242 13.01657143 -10.22918242 13.01657143 -10 17 C-7.8614515 19.1385485 -6.86724686 19.42655063 -4 20 C-4 19.34 -4 18.68 -4 18 C-3.01 18 -2.02 18 -1 18 C-1 17.34 -1 16.68 -1 16 C0.65 16.33 2.3 16.66 4 17 C4.33 18.65 4.66 20.3 5 22 C1.16294869 25.96495302 -2.2390816 26.82331784 -7.5625 27.171875 C-11.24677435 26.91208642 -13.27254213 25.39484106 -16 23 C-16.53753906 22.58878906 -17.07507813 22.17757813 -17.62890625 21.75390625 C-20.25009069 18.40088114 -19.51331111 14.25670828 -19.41796875 10.1796875 C-18.80269255 5.49898821 -17.62174024 3.97787531 -14 1 C-9.62679966 -1.7939891 -4.8676608 -1.25872603 0 0 Z " fill="#040206" transform="translate(291,252)"/>
<path d="M0 0 C0 1.65 0 3.3 0 5 C0.969375 4.979375 1.93875 4.95875 2.9375 4.9375 C6 5 6 5 7 6 C7.125 8.5 7.125 8.5 7 11 C6.67 11.33 6.34 11.66 6 12 C4.02 12 2.04 12 0 12 C0 16.62 0 21.24 0 26 C1.98 25.67 3.96 25.34 6 25 C6.66 26.98 7.32 28.96 8 31 C3.30650219 32.59578926 -0.22961637 33.6961364 -5 32 C-8.39124047 28.87648904 -8.92318364 27.1138372 -9.2421875 22.48828125 C-9.24927661 18.98271855 -9.17265112 15.50098107 -9 12 C-9.99 12 -10.98 12 -12 12 C-12.6875 9.6875 -12.6875 9.6875 -13 7 C-11.625 5.375 -11.625 5.375 -10 4 C-9.67 3.01 -9.34 2.02 -9 1 C-3.79245283 -1.26415094 -3.79245283 -1.26415094 0 0 Z " fill="#02030B" transform="translate(309,246)"/>
<path d="M0 0 C0.33 1.65 0.66 3.3 1 5 C1.804375 4.979375 2.60875 4.95875 3.4375 4.9375 C6 5 6 5 7 6 C7.125 8.5 7.125 8.5 7 11 C6.67 11.33 6.34 11.66 6 12 C4.02 12 2.04 12 0 12 C0.33 16.29 0.66 20.58 1 25 C2.65 25 4.3 25 6 25 C7 26 7 26 7.0625 28.5625 C7.041875 29.366875 7.02125 30.17125 7 31 C4.27387255 32.85376666 2.86376511 32.99513447 -0.5 32.875 C-4.45247707 31.88688073 -5.78737892 31.40403243 -8 28 C-9.10341493 23.0813877 -9.12876643 18.0218906 -9 13 C-9.99 12.67 -10.98 12.34 -12 12 C-12 10.02 -12 8.04 -12 6 C-11.01 5.67 -10.02 5.34 -9 5 C-8.67 3.35 -8.34 1.7 -8 0 C-4.94736336 -0.98120464 -3.05263664 -0.98120464 0 0 Z " fill="#070404" transform="translate(479,246)"/>
<path d="M0 0 C2.31 0 4.62 0 7 0 C7 1.65 7 3.3 7 5 C7.969375 4.979375 8.93875 4.95875 9.9375 4.9375 C13 5 13 5 14 6 C14.04080783 7.99958364 14.04254356 10.00045254 14 12 C11.69 12 9.38 12 7 12 C7.33 16.29 7.66 20.58 8 25 C9.65 25 11.3 25 13 25 C15 28 15 28 14.625 30.1875 C14.315625 31.0846875 14.315625 31.0846875 14 32 C9.34690029 33.10788088 6.33875004 33.12116669 2 31 C-1.18450347 26.92592866 -1.32996157 23.7686294 -1.1875 18.6875 C-1.16042969 17.43324219 -1.13335937 16.17898438 -1.10546875 14.88671875 C-1.07066406 13.93410156 -1.03585937 12.98148437 -1 12 C-2.32 11.67 -3.64 11.34 -5 11 C-5 9.35 -5 7.7 -5 6 C-3.68 5.67 -2.36 5.34 -1 5 C-0.67 3.35 -0.34 1.7 0 0 Z " fill="#030306" transform="translate(452,246)"/>
<path d="M0 0 C0.99 0.103125 1.98 0.20625 3 0.3125 C5.36387172 3.85830758 5.19250718 5.19046045 5.0546875 9.37109375 C5.03019531 10.56154297 5.00570312 11.75199219 4.98046875 12.97851562 C4.91025895 15.48916613 4.83215628 17.99960854 4.74609375 20.50976562 C4.72417969 21.70150391 4.70226562 22.89324219 4.6796875 24.12109375 C4.64601074 25.21220459 4.61233398 26.30331543 4.57763672 27.42749023 C5.09575708 30.96658171 6.27543701 32.09287143 9 34.3125 C8.67 35.3025 8.34 36.2925 8 37.3125 C4.43513952 38.22444105 2.60368499 38.58080444 -0.8125 37.0625 C-3 35.3125 -3 35.3125 -4 32.3125 C-4.14516368 30.96201175 -4.24639827 29.60646227 -4.31640625 28.25 C-4.35854248 27.45779053 -4.40067871 26.66558105 -4.4440918 25.84936523 C-4.4831665 25.01219971 -4.52224121 24.17503418 -4.5625 23.3125 C-4.6035083 22.46051025 -4.6445166 21.60852051 -4.68676758 20.73071289 C-5.38391482 5.5334803 -5.38391482 5.5334803 -5 2.3125 C-3 0.3125 -3 0.3125 0 0 Z " fill="#080102" transform="translate(235,240.6875)"/>
<path d="M0 0 C1.40079035 0.11796129 2.79677913 0.29500262 4.1875 0.5 C8.02772983 0.98998148 11.18526757 0.76294649 15 0 C16 1 16 1 16.0625 4.0625 C16.041875 5.031875 16.02125 6.00125 16 7 C13.69 7.66 11.38 8.32 9 9 C7.63399577 13.39450973 8.01951332 17.67145101 8.16015625 22.22265625 C8 25 8 25 6 28 C3 28.375 3 28.375 0 28 C-2.2942774 24.5585839 -2.19960699 23.50858647 -2.01171875 19.4921875 C-1.96466797 18.42355469 -1.91761719 17.35492188 -1.86914062 16.25390625 C-1.80919922 15.13886719 -1.74925781 14.02382813 -1.6875 12.875 C-1.61499023 11.19083984 -1.61499023 11.19083984 -1.54101562 9.47265625 C-1.1431746 1.1431746 -1.1431746 1.1431746 0 0 Z " fill="#040104" transform="translate(320,251)"/>
<path d="M0 0 C2.31882635 2.31882635 2.68613242 3.81285956 3.5625 6.9375 C3.81128906 7.81277344 4.06007812 8.68804687 4.31640625 9.58984375 C4.65478516 10.78287109 4.65478516 10.78287109 5 12 C5.33 12.99 5.66 13.98 6 15 C5.67 15.66 5.34 16.32 5 17 C4.95977609 19.3329866 4.95679753 21.66706666 5 24 C5.66 23.67 6.32 23.34 7 23 C7 23.99 7 24.98 7 26 C8.60681641 25.98259766 8.60681641 25.98259766 10.24609375 25.96484375 C11.64322743 25.95546701 13.04036299 25.94636669 14.4375 25.9375 C15.14455078 25.92912109 15.85160156 25.92074219 16.58007812 25.91210938 C18.38693559 25.90346412 20.19387603 25.94779989 22 26 C23 27 23 27 23.0625 29.5625 C23.041875 30.366875 23.02125 31.17125 23 32 C20.00293305 32.86963087 17.35043474 33.11763099 14.234375 33.09765625 C13.43225586 33.09515869 12.63013672 33.09266113 11.80371094 33.09008789 C10.79598633 33.08098389 9.78826172 33.07187988 8.75 33.0625 C5.5325 33.041875 2.315 33.02125 -1 33 C-0.67 22.11 -0.34 11.22 0 0 Z " fill="#060203" transform="translate(205,246)"/>
<path d="M0 0 C0.66 0.33 1.32 0.66 2 1 C1.66226563 1.47050781 1.32453125 1.94101563 0.9765625 2.42578125 C0.53054687 3.04839844 0.08453125 3.67101562 -0.375 4.3125 C-0.81585938 4.92738281 -1.25671875 5.54226562 -1.7109375 6.17578125 C-2.83410907 7.7652392 -3.92041447 9.38062171 -5 11 C-5.66 11 -6.32 11 -7 11 C-7.12375 11.5775 -7.2475 12.155 -7.375 12.75 C-8.30437675 16.09575628 -9.30951406 18.35554645 -11.875 20.75 C-14.7464346 23.79034252 -16.27615517 27.2222124 -18 31 C-13.58773119 31 -10.15580562 29.73294991 -6.4375 27.375 C-3.70015326 25.83085568 -2.09018267 25.7351272 1 26 C-1.44629073 28.84032414 -3.93145715 29.96927977 -7.375 31.375 C-11.98394885 33.38153446 -14.69708808 35.28422408 -18 39 C-19.485 39.495 -19.485 39.495 -21 40 C-21.33 40.66 -21.66 41.32 -22 42 C-23.19876651 36.55106131 -22.91360308 33.77830905 -20 29 C-20.66 29 -21.32 29 -22 29 C-22.99 25.7 -23.98 22.4 -25 19 C-24.01 19 -23.02 19 -22 19 C-21.67 19.66 -21.34 20.32 -21 21 C-20.01 20.67 -19.02 20.34 -18 20 C-17.5978125 19.13375 -17.5978125 19.13375 -17.1875 18.25 C-15.80845203 15.63706701 -14.01034195 14.30074781 -11.71875 12.4921875 C-9.0706225 10.19313135 -6.87483581 7.53946116 -4.61328125 4.8671875 C-3.14080217 3.16296232 -1.61363306 1.56975784 0 0 Z M-18 23 C-17 25 -17 25 -17 25 Z " fill="#125536" transform="translate(209,173)"/>
<path d="M0 0 C1.18851563 0.00902344 2.37703125 0.01804688 3.6015625 0.02734375 C4.51679688 0.03894531 5.43203125 0.05054688 6.375 0.0625 C5.21327265 7.60335521 5.21327265 7.60335521 2.375 11.0625 C0.11607615 12.49660578 -2.17744723 13.74493235 -4.56640625 14.94921875 C-6.76384112 16.01093114 -6.76384112 16.01093114 -8.625 18.0625 C-11.10426262 15.42828346 -12.51084206 13.7331779 -13.125 10.125 C-12.49763356 6.28238055 -11.02292409 4.09516871 -8.625 1.0625 C-5.74084117 -0.37957941 -3.20778472 -0.03144887 0 0 Z " fill="#040405" transform="translate(13.625,231.9375)"/>
<path d="M0 0 C2.06132142 -0.10864945 4.12431321 -0.18588321 6.1875 -0.25 C7.33605469 -0.29640625 8.48460937 -0.3428125 9.66796875 -0.390625 C13.66829775 0.07834675 15.20000873 1.15957564 18 4 C19.67733576 7.93809266 20.16967967 10.16702705 19.3125 14.375 C18.879375 15.24125 18.44625 16.1075 18 17 C17.01 17.33 16.02 17.66 15 18 C12.8125 16.6875 12.8125 16.6875 11 15 C11 14.34 11 13.68 11 13 C10.05125 12.690625 9.1025 12.38125 8.125 12.0625 C5 11 5 11 3 10 C0 3.76923077 0 3.76923077 0 0 Z " fill="#060606" transform="translate(163,232)"/>
<path d="M0 0 C2.48862878 3.23521742 4.75421558 6.59260295 7 10 C6.01 10 5.02 10 4 10 C2.97971135 8.68212715 1.98028616 7.34789347 1 6 C0.01 5.67 -0.98 5.34 -2 5 C-2 7.97 -2 10.94 -2 14 C-2.33 14 -2.66 14 -3 14 C-3.20589721 21.56407533 -3.20589721 21.56407533 -2 29 C-1.34 29 -0.68 29 0 29 C0.66 29.7425 1.32 30.485 2 31.25 C5.04947596 34.48262767 8.66850733 35.65232267 12.79296875 37.10546875 C15 38 15 38 17 40 C17.33 37.69 17.66 35.38 18 33 C18.66 33 19.32 33 20 33 C19.71743908 31.06115111 19.4236207 29.12394039 19.125 27.1875 C18.88136719 25.56908203 18.88136719 25.56908203 18.6328125 23.91796875 C18.14867662 20.82678207 18.14867662 20.82678207 16 18 C16.33 17.01 16.66 16.02 17 15 C22.05210345 21.33843238 22.85357263 27.01305257 23 35 C22.34 35 21.68 35 21 35 C21.185625 35.86625 21.37125 36.7325 21.5625 37.625 C22.00667933 41.05152628 21.71954492 43.64212371 21 47 C20.01 46.34 19.02 45.68 18 45 C18 44.34 18 43.68 18 43 C16.91332031 42.57267578 16.91332031 42.57267578 15.8046875 42.13671875 C7.47700835 38.76157302 -0.95698401 35.11676951 -5.16015625 26.66796875 C-7.42685836 19.46723599 -6.91177037 11.97758065 -3.5625 5.25 C-1.3605948 1.3605948 -1.3605948 1.3605948 0 0 Z " fill="#7EA14E" transform="translate(163,157)"/>
<path d="M0 0 C-0.33 0.99 -0.66 1.98 -1 3 C-1.33 2.67 -1.66 2.34 -2 2 C-2.99 3.485 -2.99 3.485 -4 5 C-3.67 5.99 -3.34 6.98 -3 8 C-3.26489478 9.88737529 -3.53119949 11.77457752 -3.80859375 13.66015625 C-4.14808762 17.81029558 -3.54788279 21.8866646 -3 26 C-2.34 26 -1.68 26 -1 26 C-1 26.99 -1 27.98 -1 29 C-2.65 29.66 -4.3 30.32 -6 31 C-9.05654046 26.80427648 -9.33143207 23.82107724 -9.1875 18.6875 C-9.16042969 17.43324219 -9.13335937 16.17898438 -9.10546875 14.88671875 C-9.07066406 13.93410156 -9.03585937 12.98148437 -9 12 C-9.99 12 -10.98 12 -12 12 C-12.6875 9.6875 -12.6875 9.6875 -13 7 C-11.625 5.375 -11.625 5.375 -10 4 C-9.67 3.01 -9.34 2.02 -9 1 C-3.79245283 -1.26415094 -3.79245283 -1.26415094 0 0 Z " fill="#050203" transform="translate(309,246)"/>
<path d="M0 0 C0.33 1.65 0.66 3.3 1 5 C1.804375 4.979375 2.60875 4.95875 3.4375 4.9375 C6 5 6 5 7 6 C7.125 8.5 7.125 8.5 7 11 C6.67 11.33 6.34 11.66 6 12 C4.02 12 2.04 12 0 12 C0.33 16.29 0.66 20.58 1 25 C2.65 25 4.3 25 6 25 C6.33 26.32 6.66 27.64 7 29 C5.35 29.33 3.7 29.66 2 30 C2 29.01 2 28.02 2 27 C-0.475 26.01 -0.475 26.01 -3 25 C-3.06058594 23.81921875 -3.12117188 22.6384375 -3.18359375 21.421875 C-3.26802582 19.8645723 -3.35267249 18.30728121 -3.4375 16.75 C-3.47681641 15.97269531 -3.51613281 15.19539063 -3.55664062 14.39453125 C-3.59853516 13.64042969 -3.64042969 12.88632812 -3.68359375 12.109375 C-3.72025146 11.41811523 -3.75690918 10.72685547 -3.79467773 10.01464844 C-3.94490572 7.96846046 -3.94490572 7.96846046 -4.58227539 5.93066406 C-5 4 -5 4 -4 1 C-4.99 0.67 -5.98 0.34 -7 0 C-3.86650268 -1.04449911 -3.01031744 -0.93423645 0 0 Z " fill="#030610" transform="translate(479,246)"/>
<path d="M0 0 C2.33294775 -0.04241723 4.66702567 -0.04092937 7 0 C8 1 8 1 8.140625 3.7265625 C8.00727302 6.83070024 7.55542155 9.38465828 6.75 12.375 C6.34587891 13.91027344 6.34587891 13.91027344 5.93359375 15.4765625 C5.62550781 16.63929688 5.31742187 17.80203125 5 19 C4.26226929 21.91454161 3.53755187 24.83228233 2.8125 27.75 C2.4650647 29.14068022 2.11742685 30.53130986 1.76953125 31.921875 C1.51558594 32.93765625 1.26164062 33.9534375 1 35 C0.67 35 0.34 35 0 35 C-0.11287535 28.06443672 -0.01814493 21.4693568 1.53125 14.66796875 C2.03773963 11.78519858 2.0977349 9.11199664 2.0625 6.1875 C2.05347656 5.21167969 2.04445313 4.23585937 2.03515625 3.23046875 C2.02355469 2.49441406 2.01195312 1.75835937 2 1 C1.34 0.67 0.68 0.34 0 0 Z " fill="#020617" transform="translate(412,243)"/>
<path d="M0 0 C1.32 0 2.64 0 4 0 C4.625 2.3125 4.625 2.3125 5 5 C4.01 6.485 4.01 6.485 3 8 C2.34 8 1.68 8 1 8 C1.15597656 8.54527344 1.31195313 9.09054688 1.47265625 9.65234375 C2.91408291 15.23667884 3.48165386 20.34820746 2 26 C1.34 26.66 0.68 27.32 0 28 C-1.50156874 24.99686252 -1.09281204 22.20932478 -1.0625 18.875 C-1.05347656 17.59367187 -1.04445313 16.31234375 -1.03515625 14.9921875 C-1.02355469 14.00476563 -1.01195312 13.01734375 -1 12 C-2.32 11.67 -3.64 11.34 -5 11 C-5 9.35 -5 7.7 -5 6 C-3.68 5.67 -2.36 5.34 -1 5 C-0.67 3.35 -0.34 1.7 0 0 Z " fill="#0C0101" transform="translate(452,246)"/>
<path d="M0 0 C0.66 0.33 1.32 0.66 2 1 C1.66226563 1.47050781 1.32453125 1.94101563 0.9765625 2.42578125 C0.53054687 3.04839844 0.08453125 3.67101562 -0.375 4.3125 C-0.81585938 4.92738281 -1.25671875 5.54226562 -1.7109375 6.17578125 C-2.83410907 7.7652392 -3.92041447 9.38062171 -5 11 C-5.66 11 -6.32 11 -7 11 C-7.12375 11.5775 -7.2475 12.155 -7.375 12.75 C-8.63950557 17.30222007 -10.69147146 19.69147146 -14 23 C-15.04349839 24.63978318 -16.05607981 26.30094366 -17 28 C-18.95216435 26.04783565 -19.84826645 24.46800047 -21 22 C-20.443125 21.46375 -19.88625 20.9275 -19.3125 20.375 C-16.90898312 17.96935661 -16.90898312 17.96935661 -14.5625 15.0625 C-12.16370939 12.19565269 -9.67318609 9.60953881 -7 7 C-5.72783943 5.73049529 -4.45705547 4.45960991 -3.1875 3.1875 C-2.125 2.125 -1.0625 1.0625 0 0 Z M-18 23 C-17 25 -17 25 -17 25 Z " fill="#02512E" transform="translate(209,173)"/>
<path d="M0 0 C-0.32484375 1.17755859 -0.32484375 1.17755859 -0.65625 2.37890625 C-2.1623011 8.06146019 -3.40114396 13.11655525 -3 19 C-1.68 19.33 -0.36 19.66 1 20 C0.67 21.32 0.34 22.64 0 24 C-2.64081206 23.63575006 -3.76537715 23.25895411 -5.58203125 21.25390625 C-7.98951815 17.42712956 -8.1230425 13.45003714 -8 9 C-6.96451926 4.64301566 -5.17800744 0 0 0 Z " fill="#0A0303" transform="translate(252,253)"/>
<path d="M0 0 C4.83238256 4.51022372 6.19444172 7.64810633 6.625 14.25 C6.69976562 15.32765625 6.77453125 16.4053125 6.8515625 17.515625 C6.92503906 18.74539062 6.92503906 18.74539062 7 20 C6.34 20 5.68 20 5 20 C5.2784375 21.299375 5.2784375 21.299375 5.5625 22.625 C6.00667933 26.05152628 5.71954492 28.64212371 5 32 C4.01 31.34 3.02 30.68 2 30 C2 29.34 2 28.68 2 28 C1.21625 27.7525 0.4325 27.505 -0.375 27.25 C-3.32317108 25.84610901 -3.9024777 24.99324263 -5 22 C-0.125 23.875 -0.125 23.875 1 25 C1.33 22.69 1.66 20.38 2 18 C2.66 18 3.32 18 4 18 C3.71743908 16.06115111 3.4236207 14.12394039 3.125 12.1875 C2.96257812 11.10855469 2.80015625 10.02960938 2.6328125 8.91796875 C2.14867662 5.82678207 2.14867662 5.82678207 0 3 C0 2.01 0 1.02 0 0 Z " fill="#5A8A3C" transform="translate(179,172)"/>
<path d="M0 0 C3 2 3 2 3.44824219 4.11962891 C3.48079102 4.97991699 3.51333984 5.84020508 3.546875 6.7265625 C3.58683594 7.67660156 3.62679687 8.62664062 3.66796875 9.60546875 C3.69503906 10.60191406 3.72210938 11.59835938 3.75 12.625 C3.79253906 13.59824219 3.83507812 14.57148438 3.87890625 15.57421875 C4.08275346 21.18379184 3.86936614 26.45449782 3 32 C2.34 32 1.68 32 1 32 C-0.33738839 27.98783484 -0.40946667 24.14221284 -0.625 19.9375 C-0.67003662 19.08438232 -0.71507324 18.23126465 -0.76147461 17.35229492 C-1.0317273 11.45336976 -0.86378431 5.85453809 0 0 Z " fill="#260603" transform="translate(231,244)"/>
<path d="M0 0 C4 1 4 1 5.25 3.0625 C5.4975 3.701875 5.745 4.34125 6 5 C7.32 4.67 8.64 4.34 10 4 C10 5.65 10 7.3 10 9 C8.68 9.33 7.36 9.66 6 10 C6 10.66 6 11.32 6 12 C5.34 12 4.68 12 4 12 C4 11.34 4 10.68 4 10 C3.01 10.495 3.01 10.495 2 11 C1.01 11.495 1.01 11.495 0 12 C0 11.34 0 10.68 0 10 C-0.66 10 -1.32 10 -2 10 C-1.34 6.7 -0.68 3.4 0 0 Z " fill="#8ABB44" transform="translate(161,162)"/>
<path d="M0 0 C4.29 0 8.58 0 13 0 C13.33 1.32 13.66 2.64 14 4 C12.91796875 5.73828125 12.91796875 5.73828125 11 7 C8.30078125 7.29296875 8.30078125 7.29296875 5.3125 7.1875 C4.31863281 7.16042969 3.32476562 7.13335937 2.30078125 7.10546875 C1.54152344 7.07066406 0.78226563 7.03585937 0 7 C0 4.69 0 2.38 0 0 Z " fill="#020205" transform="translate(212,257)"/>
<path d="M0 0 C2 2 2 2 2.16357422 4.64208984 C2.1276416 5.73730957 2.09170898 6.8325293 2.0546875 7.9609375 C2.03019531 9.15460938 2.00570312 10.34828125 1.98046875 11.578125 C1.91036672 14.10179812 1.83228916 16.62526278 1.74609375 19.1484375 C1.72417969 20.3446875 1.70226562 21.5409375 1.6796875 22.7734375 C1.64601074 23.87091309 1.61233398 24.96838867 1.57763672 26.09912109 C2.09461907 29.64986348 3.26522267 30.77508497 6 33 C5.67 33.99 5.34 34.98 5 36 C2.03 36.495 2.03 36.495 -1 37 C-2.11024853 33.6692544 -1.83401557 33.21856573 -1 30 C-0.85180932 27.68463068 -0.75238023 25.36596189 -0.68359375 23.046875 C-0.66281265 22.38665344 -0.64203156 21.72643188 -0.62062073 21.04620361 C-0.55549853 18.94756985 -0.49641498 16.84881628 -0.4375 14.75 C-0.39427921 13.32290453 -0.3506638 11.89582095 -0.30664062 10.46875 C-0.19985589 6.97929278 -0.09848434 3.48970247 0 0 Z " fill="#030610" transform="translate(238,242)"/>
<path d="M0 0 C1.17219543 0.78345715 2.33763668 1.57702836 3.5 2.375 C4.47453125 3.03628906 4.47453125 3.03628906 5.46875 3.7109375 C5.9740625 4.13632813 6.479375 4.56171875 7 5 C7 5.66 7 6.32 7 7 C7.66 7 8.32 7 9 7 C9.2475 7.556875 9.495 8.11375 9.75 8.6875 C11.21606015 11.39971127 13.02989471 13.63587365 15 16 C14.34 16 13.68 16 13 16 C13.33 17.65 13.66 19.3 14 21 C13.34 21 12.68 21 12 21 C11.20724852 19.5839401 10.41584688 18.16712447 9.625 16.75 C9.18414062 15.96109375 8.74328125 15.1721875 8.2890625 14.359375 C7.46096581 12.84370712 6.67990464 11.30084434 5.9609375 9.73046875 C5.64382812 9.15941406 5.32671875 8.58835938 5 8 C4.34 7.855625 3.68 7.71125 3 7.5625 C2.34 7.376875 1.68 7.19125 1 7 C-0.3125 4.5625 -0.3125 4.5625 -1 2 C-0.67 1.34 -0.34 0.68 0 0 Z " fill="#7CA93D" transform="translate(168,174)"/>
<path d="M0 0 C0.33 0.99 0.66 1.98 1 3 C1.99 3.33 2.98 3.66 4 4 C5.10630288 12.65708853 6.20596198 21.30737328 7 30 C3.71192909 26.71192909 3.4075091 22.25168885 2.375 17.8125 C2.14554687 16.87857422 1.91609375 15.94464844 1.6796875 14.98242188 C0.46816951 9.85871036 -0.2766471 5.26357505 0 0 Z " fill="#211309" transform="translate(378,248)"/>
<path d="M0 0 C0.99 0 1.98 0 3 0 C3 6.6 3 13.2 3 20 C2.01 20.33 1.02 20.66 0 21 C0 14.07 0 7.14 0 0 Z " fill="#2A0704" transform="translate(319,254)"/>
<path d="M0 0 C0 0.66 0 1.32 0 2 C-3.55556591 5.39019075 -5.95575532 7.55491959 -11 8 C-11.33 8.99 -11.66 9.98 -12 11 C-12.78375 11.309375 -13.5675 11.61875 -14.375 11.9375 C-17.37663975 13.15244942 -18.18464948 14.40664211 -20 17 C-20.66 17 -21.32 17 -22 17 C-20.71162263 12.99995926 -19.5211084 11.24300247 -15.9375 9.0625 C-15.14085937 8.56621094 -14.34421875 8.06992188 -13.5234375 7.55859375 C-12.69070312 7.04425781 -11.85796875 6.52992188 -11 6 C-8.60988684 4.37575901 -6.22857642 2.73923246 -3.84765625 1.1015625 C-2 0 -2 0 0 0 Z " fill="#0A4D2D" transform="translate(210,163)"/>
<path d="M0 0 C0.33 0 0.66 0 1 0 C1.05429959 1.74965358 1.09292823 3.49979787 1.125 5.25 C1.14820313 6.22453125 1.17140625 7.1990625 1.1953125 8.203125 C0.99554999 11.06372415 0.59063194 12.63554712 -1 15 C-3.625 16.25 -3.625 16.25 -6 17 C-7 14 -7 14 -6 11 C-5.01 10.38125 -5.01 10.38125 -4 9.75 C-1.09530724 7.20839383 -1.34490932 4.72502067 -1 1 C-0.67 0.67 -0.34 0.34 0 0 Z " fill="#01040E" transform="translate(363,260)"/>
<path d="M0 0 C0.66 0.33 1.32 0.66 2 1 C1.814375 1.556875 1.62875 2.11375 1.4375 2.6875 C0.92448835 5.399133 1.3359276 7.34371039 2 10 C2.33 10 2.66 10 3 10 C2.67 12.31 2.34 14.62 2 17 C0.68 16.67 -0.64 16.34 -2 16 C-2.05402274 13.89611431 -2.09280256 11.79183286 -2.125 9.6875 C-2.14820313 8.51574219 -2.17140625 7.34398437 -2.1953125 6.13671875 C-2 3 -2 3 0 0 Z " fill="#140502" transform="translate(274,256)"/>
<path d="M0 0 C2.4375 0.1875 2.4375 0.1875 3.4375 1.1875 C3.5625 3.6875 3.5625 3.6875 3.4375 6.1875 C2.4375 7.1875 2.4375 7.1875 -0.625 7.25 C-1.594375 7.229375 -2.56375 7.20875 -3.5625 7.1875 C-3.5625 8.8375 -3.5625 10.4875 -3.5625 12.1875 C-3.8925 12.1875 -4.2225 12.1875 -4.5625 12.1875 C-4.61645478 10.56286158 -4.65527195 8.93771459 -4.6875 7.3125 C-4.71070313 6.40757812 -4.73390625 5.50265625 -4.7578125 4.5703125 C-4.47165573 1.07919991 -3.45791449 0.25301813 0 0 Z " fill="#030310" transform="translate(312.5625,250.8125)"/>
<path d="M0 0 C0.33 0 0.66 0 1 0 C1.96960497 4.08009772 2.16526572 7.93606118 2.1875 12.125 C2.20167969 13.34445312 2.21585938 14.56390625 2.23046875 15.8203125 C2 19 2 19 0 22 C-1.49498913 19.01002175 -1.11577446 16.29957225 -1 13 C-0.67 12.01 -0.34 11.02 0 10 C-0.33 9.360625 -0.66 8.72125 -1 8.0625 C-2 6 -2 6 -1.6875 3.875 C-1 2 -1 2 0 0 Z " fill="#050B1D" transform="translate(210,250)"/>
<path d="M0 0 C1.98 0 3.96 0 6 0 C7.17081234 5.07352013 7.16637048 9.928824 6 15 C5.34 15.66 4.68 16.32 4 17 C2.49843126 13.99686252 2.90718796 11.20932478 2.9375 7.875 C2.94652344 6.59367187 2.95554687 5.31234375 2.96484375 3.9921875 C2.97644531 3.00476563 2.98804688 2.01734375 3 1 C2.01 0.67 1.02 0.34 0 0 Z " fill="#200402" transform="translate(448,257)"/>
<path d="M0 0 C1.32 0.33 2.64 0.66 4 1 C3.01 1.495 3.01 1.495 2 2 C1.30662208 5.0399648 1.30662208 5.0399648 0.875 8.5625 C0.70742188 9.76003906 0.53984375 10.95757812 0.3671875 12.19140625 C0.24601562 13.11824219 0.12484375 14.04507812 0 15 C-0.99 15 -1.98 15 -3 15 C-2.88529863 13.24929483 -2.75780972 11.49942464 -2.625 9.75 C-2.55539062 8.77546875 -2.48578125 7.8009375 -2.4140625 6.796875 C-2.01534751 4.10366811 -1.36492937 2.33036721 0 0 Z " fill="#050719" transform="translate(396,256)"/>
<path d="M0 0 C7.51827153 0.30812588 13.91810841 1.42718786 19.72265625 6.5078125 C21 8 21 8 21 10 C20.34 10 19.68 10 19 10 C18.443125 9.401875 17.88625 8.80375 17.3125 8.1875 C13.45330301 4.53690825 9.57076694 3.13311584 4.3125 2.6875 C1.27537165 2.97402154 -0.46363978 3.37672946 -3 5 C-2.01 3.35 -1.02 1.7 0 0 Z " fill="#0F0F0F" transform="translate(125,194)"/>
<path d="M0 0 C2.48862878 3.23521742 4.75421558 6.59260295 7 10 C6.01 10 5.02 10 4 10 C2.97971135 8.68212715 1.98028616 7.34789347 1 6 C0.01 5.67 -0.98 5.34 -2 5 C-2.144375 5.598125 -2.28875 6.19625 -2.4375 6.8125 C-2.8872439 8.56150404 -3.42892341 10.28677023 -4 12 C-4.22179785 13.89212737 -4.40614015 15.78884472 -4.5625 17.6875 C-4.64628906 18.68136719 -4.73007813 19.67523438 -4.81640625 20.69921875 C-4.87699219 21.45847656 -4.93757812 22.21773437 -5 23 C-5.33 23 -5.66 23 -6 23 C-6.66825625 14.3572192 -5.70391847 8.35662003 -1 1 C-0.67 0.67 -0.34 0.34 0 0 Z " fill="#85A059" transform="translate(163,157)"/>
<path d="M0 0 C5 2 5 2 10 4 C9.67 4.99 9.34 5.98 9 7 C2.9453125 7.9765625 2.9453125 7.9765625 1 8 C0.34 7.34 -0.32 6.68 -1 6 C-0.625 3.4375 -0.625 3.4375 0 1 C0 0.67 0 0.34 0 0 Z " fill="#020207" transform="translate(476,271)"/>
<path d="M0 0 C2.85818883 2.47989913 4.19893393 5.13646878 5.75 8.5625 C6.19859375 9.53316406 6.6471875 10.50382813 7.109375 11.50390625 C7.40328125 12.32761719 7.6971875 13.15132812 8 14 C7.67 14.66 7.34 15.32 7 16 C4 12.25 4 12.25 4 10 C3.34 10 2.68 10 2 10 C2 9.01 2 8.02 2 7 C1.01 7 0.02 7 -1 7 C-1.04254356 5.00045254 -1.04080783 2.99958364 -1 1 C-0.67 0.67 -0.34 0.34 0 0 Z " fill="#17503A" transform="translate(213,152)"/>
<path d="M0 0 C0.66 0 1.32 0 2 0 C3.4224924 8.06079027 3.4224924 8.06079027 2 12 C0.69855198 13.04115841 -0.63294238 14.04662114 -2 15 C-2.3690205 4.44191344 -2.3690205 4.44191344 0 0 Z " fill="#160504" transform="translate(412,244)"/>
<path d="M0 0 C0.66 0 1.32 0 2 0 C3.40454548 6.11980533 4.23268915 11.71739294 4 18 C2.5625 17 2.5625 17 1 15 C0.71221513 12.98550593 0.42918602 10.96844814 0.25 8.94140625 C-0.04447005 6.65466227 -0.78123899 4.95001762 -2 3 C-1.34 2.01 -0.68 1.02 0 0 Z " fill="#030A1C" transform="translate(384,245)"/>
<path d="M0 0 C4.875 1.875 4.875 1.875 6 3 C6.33 2.34 6.66 1.68 7 1 C8.32 1.66 9.64 2.32 11 3 C10.67 5.31 10.34 7.62 10 10 C9.01 9.34 8.02 8.68 7 8 C7 7.34 7 6.68 7 6 C6.21625 5.7525 5.4325 5.505 4.625 5.25 C1.67682892 3.84610901 1.0975223 2.99324263 0 0 Z " fill="#6D944E" transform="translate(174,194)"/>
<path d="M0 0 C0.66 0.33 1.32 0.66 2 1 C2.73169495 3.46115574 3.19635784 5.27632635 2.515625 7.78515625 C1.6311984 11.58417053 2.04162492 15.44196754 2.16015625 19.3203125 C2 22 2 22 0 24 C-0.19586184 21.1253509 -0.38193799 18.25061717 -0.5625 15.375 C-0.61857422 14.56675781 -0.67464844 13.75851562 -0.73242188 12.92578125 C-1.00604422 8.43837484 -0.96801881 4.43137501 0 0 Z " fill="#040611" transform="translate(326,254)"/>
<path d="M0 0 C0.66 0.33 1.32 0.66 2 1 C0.7625 2.0828125 0.7625 2.0828125 -0.5 3.1875 C-4.56948789 7.92186196 -3.39116521 14.14121435 -3 20 C-3.66 19.67 -4.32 19.34 -5 19 C-6.39909147 13.64057703 -6.18977605 9.10947744 -4 4 C-3.67 3.01 -3.34 2.02 -3 1 C-2.01 0.67 -1.02 0.34 0 0 Z " fill="#150B07" transform="translate(343,253)"/>
<path d="M0 0 C2.475 0.495 2.475 0.495 5 1 C4.67 1.99 4.34 2.98 4 4 C6.59507732 6.87312132 8.20883882 8.26622687 12 9 C12.99 9.66 13.98 10.32 15 11 C12.2063631 12.18192331 10.9969285 11.99901973 8.0625 11.0625 C4.09707793 8.39190963 2.13924382 5.22169355 0 1 C0 0.67 0 0.34 0 0 Z " fill="#070709" transform="translate(2,321)"/>
<path d="M0 0 C0.33 0.66 0.66 1.32 1 2 C2.32 2 3.64 2 5 2 C5 6.95 5 11.9 5 17 C5.99 17.33 6.98 17.66 8 18 C7.01 18.66 6.02 19.32 5 20 C2.50881047 16.2632157 2.7934774 14.25548181 2.875 9.8125 C2.89304687 8.54019531 2.91109375 7.26789063 2.9296875 5.95703125 C2.95289063 4.98121094 2.97609375 4.00539063 3 3 C2.01 3 1.02 3 0 3 C0 2.01 0 1.02 0 0 Z " fill="#150C09" transform="translate(297,255)"/>
<path d="M0 0 C0.66 0.66 1.32 1.32 2 2 C1.34 2 0.68 2 0 2 C-0.0825 2.78375 -0.165 3.5675 -0.25 4.375 C-1.24365069 9.177645 -3.08713518 13.49809489 -5 18 C-5.99 18 -6.98 18 -8 18 C-1.43333333 1.43333333 -1.43333333 1.43333333 0 0 Z " fill="#0E0E0E" transform="translate(35,206)"/>
<path d="M0 0 C2 2 2 2 2.08203125 4.171875 C1.53649182 9.39007827 0.77200392 13.42016743 -2 18 C-3.64177401 14.71645198 -2.26642648 11.34371004 -1.5625 7.875 C-1.34110352 6.74384766 -1.34110352 6.74384766 -1.11523438 5.58984375 C-0.74942352 3.72538843 -0.37547644 1.86253286 0 0 Z " fill="#1A5038" transform="translate(221,172)"/>
<path d="M0 0 C1.98 0.99 3.96 1.98 6 3 C6 3.99 6 4.98 6 6 C4.02 6.99 4.02 6.99 2 8 C0.4375 6.8125 0.4375 6.8125 -1 5 C-0.6875 2.3125 -0.6875 2.3125 0 0 Z " fill="#87AF4F" transform="translate(171,167)"/>
<path d="M0 0 C2.7972908 2.06756277 3.02692273 3.14440371 3.6875 6.6875 C3.790625 7.780625 3.89375 8.87375 4 10 C2.35 10.33 0.7 10.66 -1 11 C-0.814375 10.443125 -0.62875 9.88625 -0.4375 9.3125 C0.07533672 6.60179165 -0.43659697 4.67616438 -1 2 C-0.67 1.34 -0.34 0.68 0 0 Z " fill="#040512" transform="translate(266,255)"/>
<path d="M0 0 C3 1 3 1 4.75 2.5625 C8.61175749 5.02973395 12.57380491 4.24275661 16.9375 3.5 C17.618125 3.335 18.29875 3.17 19 3 C19 3.66 19 4.32 19 5 C14.13637637 7.06704004 10.03333863 7.64332822 5 6 C2 3.5 2 3.5 0 1 C0 0.67 0 0.34 0 0 Z " fill="#0C0C0C" transform="translate(156,326)"/>
<path d="M0 0 C0.66 0.33 1.32 0.66 2 1 C2 6.28 2 11.56 2 17 C1.34 17 0.68 17 0 17 C-0.77313045 11.0885256 -1.14819277 5.8685408 0 0 Z " fill="#020815" transform="translate(442,256)"/>
<path d="M0 0 C0.33 0 0.66 0 1 0 C1.06058594 0.69867188 1.12117188 1.39734375 1.18359375 2.1171875 C1.26738281 3.02726562 1.35117187 3.93734375 1.4375 4.875 C1.55931641 6.23238281 1.55931641 6.23238281 1.68359375 7.6171875 C1.86989285 10.01110861 1.86989285 10.01110861 3 12 C1.68 12 0.36 12 -1 12 C-2.11658501 7.31034294 -1.80619523 4.46236469 0 0 Z " fill="#020C1D" transform="translate(345,260)"/>
<path d="M0 0 C1.32 0.66 2.64 1.32 4 2 C3.67 3.98 3.34 5.96 3 8 C1.68 7.67 0.36 7.34 -1 7 C-1.04254356 5.00045254 -1.04080783 2.99958364 -1 1 C-0.67 0.67 -0.34 0.34 0 0 Z " fill="#05050F" transform="translate(427,265)"/>
<path d="M0 0 C2.31 0 4.62 0 7 0 C7 0.99 7 1.98 7 3 C6.34 2.67 5.68 2.34 5 2 C4.67 4.97 4.34 7.94 4 11 C3.34 11 2.68 11 2 11 C2 7.7 2 4.4 2 1 C1.34 0.67 0.68 0.34 0 0 Z " fill="#000104" transform="translate(412,243)"/>
<path d="M0 0 C2.84785966 1.42392983 2.97377172 3.02393799 4 6 C4.57325041 8.09578246 5.11442441 10.2005737 5.625 12.3125 C5.88539063 13.38113281 6.14578125 14.44976562 6.4140625 15.55078125 C6.60742188 16.35902344 6.80078125 17.16726562 7 18 C3.85121058 16.42560529 3.45977508 13.28472275 2.375 10.125 C2.14554688 9.48691406 1.91609375 8.84882813 1.6796875 8.19140625 C0.67513402 5.32723295 0 3.05749257 0 0 Z " fill="#101010" transform="translate(138,217)"/>
<path d="M0 0 C1.5 1.375 1.5 1.375 3 3 C3 3.66 3 4.32 3 5 C3.99 5 4.98 5 6 5 C6.33 6.32 6.66 7.64 7 9 C6.34 9 5.68 9 5 9 C5 8.34 5 7.68 5 7 C4.01 7.495 4.01 7.495 3 8 C2.01 8.495 2.01 8.495 1 9 C1 8.34 1 7.68 1 7 C0.34 7 -0.32 7 -1 7 C-0.67 4.69 -0.34 2.38 0 0 Z " fill="#8FBE4D" transform="translate(160,165)"/>
<path d="M0 0 C3.94463583 3.77312992 3.94463583 3.77312992 4.09765625 7.1640625 C4.08605469 7.97617187 4.07445312 8.78828125 4.0625 9.625 C4.05347656 10.44226563 4.04445313 11.25953125 4.03515625 12.1015625 C4.02355469 12.72804688 4.01195312 13.35453125 4 14 C1.8553857 11.8553857 1.55435397 10.98260002 0.875 8.125 C0.70742188 7.44695312 0.53984375 6.76890625 0.3671875 6.0703125 C0 4 0 4 0 0 Z " fill="#180906" transform="translate(400,263)"/>
<path d="M0 0 C0.66 0.33 1.32 0.66 2 1 C1.979375 2.093125 1.95875 3.18625 1.9375 4.3125 C1.81455548 7.94384191 1.81455548 7.94384191 3 11 C2.67 11.66 2.34 12.32 2 13 C1.34 12.67 0.68 12.34 0 12 C-0.44921875 9.78515625 -0.44921875 9.78515625 -0.6875 7.0625 C-0.81705078 5.71865234 -0.81705078 5.71865234 -0.94921875 4.34765625 C-1 2 -1 2 0 0 Z " fill="#140B03" transform="translate(245,260)"/>
<path d="M0 0 C3.00609963 1.00203321 4.06176821 1.60028446 6 4 C6 4.99 6 5.98 6 7 C3.69 7.66 1.38 8.32 -1 9 C-1 8.34 -1 7.68 -1 7 C0.32 7 1.64 7 3 7 C2.505 6.21625 2.01 5.4325 1.5 4.625 C0 2 0 2 0 0 Z " fill="#0B0B0B" transform="translate(51,201)"/>
<path d="M0 0 C0.66 0.33 1.32 0.66 2 1 C1.38144369 2.6274637 0.75492695 4.25190356 0.125 5.875 C-0.22304688 6.77992188 -0.57109375 7.68484375 -0.9296875 8.6171875 C-2 11 -2 11 -4 13 C-3.40895235 8.15340923 -2.02055843 4.39251833 0 0 Z " fill="#0F0F10" transform="translate(24,234)"/>
<path d="M0 0 C0.33 0 0.66 0 1 0 C1.76173392 4.3164922 2.16063604 7.74433453 1 12 C-1 11 -1 11 -1.75 9.375 C-2.10912151 5.96334563 -1.05444067 3.22534792 0 0 Z " fill="#050A25" transform="translate(307,257)"/>
<path d="M0 0 C0.66 0.33 1.32 0.66 2 1 C2.34541851 3.33157492 2.67794257 5.66508361 3 8 C3.99 9.485 3.99 9.485 5 11 C4.01 11.33 3.02 11.66 2 12 C1.54427083 9.98177083 1.08854167 7.96354167 0.6328125 5.9453125 C0.09525572 3.79280036 0.09525572 3.79280036 -2 2 C-1.34 1.34 -0.68 0.68 0 0 Z " fill="#030716" transform="translate(278,261)"/>
<path d="M0 0 C1.33454536 2.1980747 2.02787435 3.52613603 1.875 6.125 C0.73160273 8.575137 -0.53117594 9.04432617 -3 10 C-3 9.01 -3 8.02 -3 7 C-2.34 6.67 -1.68 6.34 -1 6 C-0.34227572 2.97065509 -0.34227572 2.97065509 0 0 Z " fill="#100101" transform="translate(322,268)"/>
<path d="M0 0 C0.33 0 0.66 0 1 0 C1 1.98 1 3.96 1 6 C-0.98 6 -2.96 6 -5 6 C-3.35830472 3.97945196 -1.69088222 1.97956942 0 0 Z " fill="#040512" transform="translate(335,252)"/>
<path d="M0 0 C3 3 3 3 3.375 6.0625 C3.25125 7.031875 3.1275 8.00125 3 9 C2.01 9.66 1.02 10.32 0 11 C0 7.37 0 3.74 0 0 Z " fill="#0C0C0C" transform="translate(34,261)"/>
<path d="M0 0 C2.475 0.99 2.475 0.99 5 2 C4.67 2.99 4.34 3.98 4 5 C3.34 5 2.68 5 2 5 C1.67 5.66 1.34 6.32 1 7 C1 5.35 1 3.7 1 2 C0.34 1.67 -0.32 1.34 -1 1 C-0.67 0.67 -0.34 0.34 0 0 Z " fill="#0F0606" transform="translate(435,256)"/>
<path d="M0 0 C0.66 0.33 1.32 0.66 2 1 C2 2.65 2 4.3 2 6 C0.68 6 -0.64 6 -2 6 C-1.125 1.125 -1.125 1.125 0 0 Z " fill="#000301" transform="translate(310,251)"/>
<path d="M0 0 C2.31 0.66 4.62 1.32 7 2 C6.01 3.485 6.01 3.485 5 5 C2.525 4.01 2.525 4.01 0 3 C0 2.01 0 1.02 0 0 Z " fill="#010005" transform="translate(378,242)"/>
<path d="M0 0 C0 0.66 0 1.32 0 2 C-1.96875 3.5078125 -1.96875 3.5078125 -4.5 5.125 C-5.3353125 5.66382813 -6.170625 6.20265625 -7.03125 6.7578125 C-7.6809375 7.16773438 -8.330625 7.57765625 -9 8 C-7.25975373 4.16501285 -4.63701127 0 0 0 Z " fill="#101010" transform="translate(46,197)"/>
<path d="M0 0 C0.33 0 0.66 0 1 0 C1 3.3 1 6.6 1 10 C0.01 8.68 -0.98 7.36 -2 6 C-1.1875 2.75 -1.1875 2.75 0 0 Z " fill="#050A2D" transform="translate(363,260)"/>
<path d="M0 0 C2.0625 0.4375 2.0625 0.4375 4 1 C3.34 1 2.68 1 2 1 C2.33 2.32 2.66 3.64 3 5 C2.01 5.33 1.02 5.66 0 6 C-0.38218767 4.34385343 -0.71395102 2.67542976 -1 1 C-0.67 0.67 -0.34 0.34 0 0 Z " fill="#190404" transform="translate(452,246)"/>
<path d="M0 0 C3.2542015 2.83430453 4.5206753 4.68607774 5 9 C4.34 9 3.68 9 3 9 C0 3.375 0 3.375 0 0 Z " fill="#76994F" transform="translate(179,172)"/>
<path d="M0 0 C0.99 0.33 1.98 0.66 3 1 C3.33 2.65 3.66 4.3 4 6 C1.525 5.01 1.525 5.01 -1 4 C-0.67 2.68 -0.34 1.36 0 0 Z " fill="#050A14" transform="translate(313,271)"/>
<path d="" fill="#000000" transform="translate(0,0)"/>
<path d="" fill="#000000" transform="translate(0,0)"/>
<path d="" fill="#000000" transform="translate(0,0)"/>
<path d="" fill="#000000" transform="translate(0,0)"/>
<path d="" fill="#000000" transform="translate(0,0)"/>
<path d="" fill="#000000" transform="translate(0,0)"/>
<path d="" fill="#000000" transform="translate(0,0)"/>
<path d="" fill="#000000" transform="translate(0,0)"/>
<path d="" fill="#000000" transform="translate(0,0)"/>
<path d="" fill="#000000" transform="translate(0,0)"/>
<path d="" fill="#000000" transform="translate(0,0)"/>
<path d="" fill="#000000" transform="translate(0,0)"/>
</svg>
