<?xml version="1.0" encoding="UTF-8"?>
<svg version="1.1" xmlns="http://www.w3.org/2000/svg" width="486" height="483">
<path d="M0 0 C7.70035355 -0.66959596 13.84989637 1.94031686 20.25 6.125 C25.90458557 12.03661219 29.14021969 18.53521075 31.23046875 26.3828125 C32.08242053 29.28031346 33.18589883 31.97420346 34.375 34.75 C36.33216468 39.3305982 38.13131781 43.93799458 39.8125 48.625 C40.23144531 49.79289062 40.65039062 50.96078125 41.08203125 52.1640625 C42 55 42 55 42 57 C42.70125 57.0825 43.4025 57.165 44.125 57.25 C50.51892633 58.91798078 55.48167679 63.52048262 59 69 C62.5584845 76.37722385 62.43572743 83.25865801 62.3984375 91.3515625 C62.40046225 92.73823194 62.40337701 94.12490034 62.40713501 95.51156616 C62.41153663 98.40462474 62.40519582 101.29740381 62.39111328 104.19042969 C62.37399008 107.88690141 62.38389547 111.58272102 62.40183067 115.27916908 C62.41270005 118.13775499 62.40920837 120.99618763 62.4014473 123.85477829 C62.39945565 125.21745253 62.40186796 126.58014099 62.40888596 127.94279861 C62.41655529 129.84939536 62.40278184 131.75604137 62.38818359 133.66259766 C62.38579681 134.74433258 62.38341003 135.8260675 62.38095093 136.94058228 C61.76864013 141.85805159 59.72975853 145.13925917 56.5625 148.875 C52.71579677 151.85402581 48.54056949 151.63122429 43.84765625 151.421875 C38.83173949 150.67877622 36.23945177 148.52865718 33.125 144.6875 C32 142 32 142 32 135 C-12.88 135 -57.76 135 -104 135 C-104.33 137.64 -104.66 140.28 -105 143 C-106.33984375 145.27734375 -106.33984375 145.27734375 -107.9375 146.9375 C-108.46214844 147.50339844 -108.98679687 148.06929687 -109.52734375 148.65234375 C-113.28816581 152.09394484 -117.94864673 151.38362776 -122.78515625 151.3515625 C-127.4889411 150.83717534 -128.98868745 149.58102033 -132 146 C-133.375 143.6875 -133.375 143.6875 -134 142 C-134.33 143.98 -134.66 145.96 -135 148 C-135.33 148 -135.66 148 -136 148 C-136 122.26 -136 96.52 -136 70 C-135.34 71.32 -134.68 72.64 -134 74 C-133.2575 72.2365625 -133.2575 72.2365625 -132.5 70.4375 C-129.51138082 64.42824073 -124.26588815 59.52104093 -118 57 C-116.68 57 -115.36 57 -114 57 C-113.89945313 56.20078125 -113.79890625 55.4015625 -113.6953125 54.578125 C-112.83014375 50.12590829 -111.40169228 46.01335623 -109.875 41.75 C-109.5651416 40.87972168 -109.2552832 40.00944336 -108.93603516 39.11279297 C-107.96566236 36.40544798 -106.98410898 33.70237895 -106 31 C-105.69191406 30.1450293 -105.38382813 29.29005859 -105.06640625 28.40917969 C-104.18412057 25.97532081 -103.28322042 23.54928497 -102.375 21.125 C-102.11058105 20.39506836 -101.84616211 19.66513672 -101.57373047 18.91308594 C-99.07675211 12.38346467 -95.74004441 7.47156974 -89.375 4.125 C-88.61960938 3.71507812 -87.86421875 3.30515625 -87.0859375 2.8828125 C-85 2 -85 2 -82 2 C-81.84144531 2.62648437 -81.68289062 3.25296875 -81.51953125 3.8984375 C-80.2094023 9.15624686 -80.2094023 9.15624686 -76.3125 12.5625 C-75.549375 12.706875 -74.78625 12.85125 -74 13 C-74 13.66 -74 14.32 -74 15 C-74.69867188 15.15855469 -75.39734375 15.31710938 -76.1171875 15.48046875 C-77.02726562 15.71378906 -77.93734375 15.94710937 -78.875 16.1875 C-79.77992187 16.40792969 -80.68484375 16.62835938 -81.6171875 16.85546875 C-84.79661048 18.38263421 -84.84241864 19.72728552 -86 23 C-86.50563477 24.33224609 -86.50563477 24.33224609 -87.02148438 25.69140625 C-87.37533203 26.63886719 -87.72917969 27.58632812 -88.09375 28.5625 C-88.48433594 29.60664063 -88.87492187 30.65078125 -89.27734375 31.7265625 C-89.68082031 32.80679688 -90.08429688 33.88703125 -90.5 35 C-91.30155975 37.14602897 -92.10362513 39.29186916 -92.90625 41.4375 C-93.26009766 42.38496094 -93.61394531 43.33242187 -93.97851562 44.30859375 C-94.95592965 46.88388347 -95.97699191 49.44247976 -97 52 C-57.07 52 -17.14 52 24 52 C18.7133706 37.49865307 18.7133706 37.49865307 12.9453125 23.25 C12 21 12 21 11 18 C5.19354298 15.72790812 -0.82167273 15.42455052 -7 15 C-6.31238981 11.34435091 -4.74550455 8.48132728 -2.9375 5.25 C-2.11572266 3.77273437 -2.11572266 3.77273437 -1.27734375 2.265625 C-0.85582031 1.51796875 -0.43429688 0.7703125 0 0 Z M-118.8125 73.75 C-120.57098729 77.08187066 -120.51262487 79.28346973 -120 83 C-117.7124406 86.56590141 -115.84597532 88.54023081 -112.125 90.5625 C-107.88684467 91.15584175 -105.68756457 90.0873007 -102 88 C-99.73414365 86.09960435 -99.13566616 84.81247264 -98.65234375 81.91796875 C-98.36414206 77.46192724 -98.52552203 75.59934059 -101.375 72 C-107.72257094 67.16375548 -113.19576882 68.32694921 -118.8125 73.75 Z M27.25 72.5625 C25.31751316 76.33084934 25.2165097 79.86080595 26 84 C28.34289463 87.23870728 30.35550058 88.66373943 33.875 90.5 C38.15931685 91.1854907 40.29035108 90.16979465 44 88 C46.90565222 84.71942491 47.71853826 81.40986482 47.54296875 77.00390625 C46.64873249 73.70359545 44.69260621 72.06250827 42.0078125 70.0625 C36.57589039 67.18801982 31.55355337 68.72004163 27.25 72.5625 Z M-78 106 C-78.25153259 108.65904469 -78.25153259 108.65904469 -77 111 C-73.56434085 114.43569145 -70.6400691 114.3840148 -65.90820312 114.40405273 C-65.20203354 114.41091599 -64.49586395 114.41777924 -63.76829529 114.42485046 C-61.43907444 114.44311973 -59.11052697 114.43928148 -56.78125 114.43359375 C-55.15986919 114.43815514 -53.53849032 114.44346059 -51.91711426 114.44947815 C-48.52099751 114.45840918 -45.12511592 114.45598588 -41.72900391 114.44604492 C-37.37747393 114.43454828 -33.02675459 114.45477673 -28.67533112 114.48396206 C-25.3278488 114.50230883 -21.98056136 114.50203482 -18.63304138 114.49632454 C-17.02866986 114.49617117 -15.42428525 114.50222822 -13.81996155 114.51461601 C-11.57672245 114.52949834 -9.3349889 114.5188719 -7.09179688 114.50170898 C-5.81590698 114.50154282 -4.54001709 114.50137665 -3.22546387 114.50120544 C0.5692124 113.91154998 1.72213689 113.03310825 4 110 C5.29578163 107.14831296 5.29578163 107.14831296 4.25 104.9375 C2.99396998 102.70820968 2.99396998 102.70820968 0 101 C-3.22157064 100.6734107 -3.22157064 100.6734107 -6.96240234 100.69360352 C-8.01902824 100.68111824 -8.01902824 100.68111824 -9.09700012 100.66838074 C-11.42670207 100.64427682 -13.75612406 100.63550825 -16.0859375 100.62890625 C-17.70635055 100.61994009 -19.32676274 100.61081824 -20.94717407 100.60154724 C-24.34501152 100.58505357 -27.74275038 100.57735648 -31.140625 100.57446289 C-35.49105536 100.56907907 -39.84055717 100.53140179 -44.19072533 100.48571873 C-47.5382321 100.45595066 -50.88551522 100.4487394 -54.23314285 100.44773674 C-55.83671954 100.44353376 -57.44029685 100.43109618 -59.04374313 100.41021919 C-61.28945585 100.38330798 -63.53301604 100.38812699 -65.77880859 100.40063477 C-67.05549408 100.39556412 -68.33217957 100.39049347 -69.64755249 100.38526917 C-73.88042972 101.16144244 -75.38275962 102.65082808 -78 106 Z " fill="#000000" transform="translate(138,198)"/>
<path d="M0 0 C1.32 0.33 2.64 0.66 4 1 C4 13.87 4 26.74 4 40 C15.71261693 39.92089465 15.71261693 39.92089465 27.42504883 39.81982422 C28.89404002 39.81398267 30.36303445 39.80888631 31.83203125 39.8046875 C32.97496643 39.7893396 32.97496643 39.7893396 34.14099121 39.77368164 C37.9721816 39.77241408 39.73289098 39.82192732 43 42 C42.56169398 47.94571639 39.90256717 52.03746151 36.875 57 C33.59843266 62.50463313 30.41315053 67.97655699 27.625 73.75 C21.75134792 85.82680172 14.93774247 97.50599401 8 109 C6.35 108.67 4.7 108.34 3 108 C3 95.13 3 82.26 3 69 C-9.21 69 -21.42 69 -34 69 C-36 64 -36 64 -35.1640625 61.59765625 C-34.65617187 60.76105469 -34.14828125 59.92445313 -33.625 59.0625 C-33.05910156 58.10085937 -32.49320312 57.13921875 -31.91015625 56.1484375 C-30.96462891 54.58996094 -30.96462891 54.58996094 -30 53 C-28.68055882 50.73279121 -27.36716318 48.46314158 -26.0625 46.1875 C-25.72081787 45.59549805 -25.37913574 45.00349609 -25.02709961 44.39355469 C-22.7603157 40.43430296 -20.68652529 36.41576244 -18.6875 32.3125 C-14.25407254 23.28182329 -9.1199876 14.65450004 -4 6 C-3.41734375 5.01128906 -2.8346875 4.02257812 -2.234375 3.00390625 C-1 1 -1 1 0 0 Z " fill="#000000" transform="translate(98,134)"/>
<path d="M0 0 C3 1 3 1 4.5703125 3.73046875 C5.08335937 4.87128906 5.59640625 6.01210937 6.125 7.1875 C6.90230469 8.87939453 6.90230469 8.87939453 7.6953125 10.60546875 C11.00227815 19.20952009 11.01023889 27.1642752 7.31640625 35.54296875 C2.98033976 43.63610175 -2.73541063 47.4303182 -11 51 C-16.21401583 53.32529008 -19.7315789 55.09736835 -23 60 C-23.66 60.99 -24.32 61.98 -25 63 C-26.18644789 53.16943178 -21.65843161 44.78410288 -15.765625 37.078125 C-15.18296875 36.39234375 -14.6003125 35.7065625 -14 35 C-15.45102502 36.45102502 -16.5894954 38.10281406 -17.8125 39.75 C-20.15064254 42.88254759 -22.53468134 45.96576165 -25 49 C-27.28663095 40.89125488 -27.3562075 33.98114211 -24.23828125 26.06640625 C-21.27419987 20.99349228 -16.11872594 18.25080926 -11.16503906 15.37060547 C-6.80531625 12.78402687 -3.97627133 10.13157074 -1 6 C-0.126062 2.77566873 -0.126062 2.77566873 0 0 Z M-8 27 C-8.33 27.66 -8.66 28.32 -9 29 C-8.34 29 -7.68 29 -7 29 C-7.33 28.34 -7.66 27.68 -8 27 Z M-10 29 C-10.99 29.99 -11.98 30.98 -13 32 C-12.67 32.66 -12.34 33.32 -12 34 C-11.01 33.01 -10.02 32.02 -9 31 C-9.33 30.34 -9.66 29.68 -10 29 Z " fill="#046538" transform="translate(213,151)"/>
<path d="M0 0 C2.64 0 5.28 0 8 0 C9.32 5.61 10.64 11.22 12 17 C13.77164819 13.45670362 14.67494768 10.62758093 15.5625 6.8125 C16.89432177 1.10567823 16.89432177 1.10567823 18 0 C20.33297433 -0.04092937 22.66705225 -0.04241723 25 0 C27 6 29 12 31 18 C32.32 12.06 33.64 6.12 35 0 C37.64 0 40.28 0 43 0 C41.37719636 11.48073021 38.62986924 22.7176602 36 34 C32.7 34 29.4 34 26 34 C25.58427734 32.41058594 25.58427734 32.41058594 25.16015625 30.7890625 C24.794386 29.40101131 24.42849428 28.01299213 24.0625 26.625 C23.88009766 25.92632812 23.69769531 25.22765625 23.50976562 24.5078125 C22.51487491 20.66044902 22.51487491 20.66044902 21 17 C20.72285156 18.14339844 20.44570313 19.28679687 20.16015625 20.46484375 C19.79445622 21.95577465 19.42856071 23.44665761 19.0625 24.9375 C18.88009766 25.69224609 18.69769531 26.44699219 18.50976562 27.22460938 C17.11328125 32.88671875 17.11328125 32.88671875 16 34 C14.48071962 34.07179964 12.95832518 34.08392007 11.4375 34.0625 C10.61121094 34.05347656 9.78492188 34.04445313 8.93359375 34.03515625 C8.29550781 34.02355469 7.65742188 34.01195312 7 34 C5.99738393 29.80211662 5.00064571 25.60289389 4.00927734 21.40234375 C3.67136357 19.97422878 3.33186021 18.54648895 2.99072266 17.11914062 C2.50002088 15.06477399 2.0150938 13.00911616 1.53125 10.953125 C1.23798828 9.71723633 0.94472656 8.48134766 0.64257812 7.20800781 C0 4 0 4 0 0 Z " fill="#04030C" transform="translate(378,256)"/>
<path d="M0 0 C0.66 0.33 1.32 0.66 2 1 C2.309375 2.03125 2.61875 3.0625 2.9375 4.125 C4.85561449 8.99021747 8.93777945 10.83255727 13.30859375 13.32421875 C16.94412447 15.58785108 19.4014432 17.74303071 21.25 21.625 C22.23920765 26.07643441 22.53136222 30.45997867 22 35 C21.34 35.99 20.68 36.98 20 38 C19.97360171 40.29714187 19.97360171 40.29714187 20.375 42.6875 C20.48585937 43.49574219 20.59671875 44.30398437 20.7109375 45.13671875 C20.80632812 45.75160156 20.90171875 46.36648437 21 47 C20.32839844 46.25363281 19.65679687 45.50726563 18.96484375 44.73828125 C15.88960284 41.66087544 12.45401066 40.03618489 8.5625 38.1875 C2.59657016 35.18796706 -2.03195211 32.2512867 -5 26 C-7.31508029 18.46866286 -5.9527723 11.14497989 -3 4 C-1.39453125 1.703125 -1.39453125 1.703125 0 0 Z M18 35 C19 37 19 37 19 37 Z " fill="#88BA45" transform="translate(164,155)"/>
<path d="M0 0 C7.92 0 15.84 0 24 0 C24 1.98 24 3.96 24 6 C19.05 6 14.1 6 9 6 C9 8.31 9 10.62 9 13 C13.29 13 17.58 13 22 13 C22 14.98 22 16.96 22 19 C17.71 19 13.42 19 9 19 C9 21.97 9 24.94 9 28 C10.60681641 27.98259766 10.60681641 27.98259766 12.24609375 27.96484375 C13.64322743 27.95546701 15.04036299 27.94636669 16.4375 27.9375 C17.14455078 27.92912109 17.85160156 27.92074219 18.58007812 27.91210938 C20.38693559 27.90346412 22.19387603 27.94779989 24 28 C25 29 25 29 25 34 C16.75 34 8.5 34 0 34 C0 22.78 0 11.56 0 0 Z " fill="#03050B" transform="translate(204,256)"/>
<path d="M0 0 C3.26318458 2.84037994 3.94269972 4.4470523 4.390625 8.76953125 C4.36431837 10.11774585 4.31701804 11.46569518 4.25 12.8125 C4.23195313 13.50537109 4.21390625 14.19824219 4.1953125 14.91210938 C4.14851064 16.60867664 4.07677624 18.30452476 4 20 C4.99 20 5.98 20 7 20 C7 21.98 7 23.96 7 26 C3 26 -1 26 -5 26 C-6.09828125 26.05220703 -6.09828125 26.05220703 -7.21875 26.10546875 C-10.64696177 26.22874349 -13.34195498 26.25679806 -16.5625 25 C-18.43621347 22.3930943 -18.62173256 20.10384665 -18.44140625 16.93359375 C-18 15 -18 15 -16 12.625 C-13.39888593 11.21606321 -11.57522163 10.57266673 -8.75 9.9375 C-7.5125 9.628125 -6.275 9.31875 -5 9 C-4.67 8.01 -4.34 7.02 -4 6 C-5.2375 6.33 -6.475 6.66 -7.75 7 C-10.74591845 7.79891159 -12.80107719 8 -16 8 C-16.66 6.68 -17.32 5.36 -18 4 C-12.79259814 -0.62880166 -6.81077406 -1.527207 0 0 Z M-10 16 C-10.33 16.66 -10.66 17.32 -11 18 C-10.01 18.99 -9.02 19.98 -8 21 C-6.68 20.34 -5.36 19.68 -4 19 C-4 17.35 -4 15.7 -4 14 C-6.14688822 14 -8.08340336 15.13753151 -10 16 Z " fill="#070303" transform="translate(441,264)"/>
<path d="M0 0 C3.57536956 1.69359611 5.32465536 2.89489058 7.375 6.25 C8.54260264 11.38745162 8.57188856 15.40473192 6.8125 20.3125 C4.65752114 23.50781348 3.62456225 24.64078916 0 26 C-4.45855817 26.61262631 -8.92355634 27.08862095 -13.01171875 24.9453125 C-16.13416468 22.38989671 -17.85278446 20.40485685 -18.2734375 16.390625 C-18.58135647 6.86882293 -18.58135647 6.86882293 -15.625 3.3125 C-10.8176323 -0.92256202 -6.21268861 -0.63090773 0 0 Z M-10 8 C-10.31899515 10.36955386 -10.31899515 10.36955386 -10.25 13 C-10.25515625 13.886875 -10.2603125 14.77375 -10.265625 15.6875 C-10.22052862 18.19400239 -10.22052862 18.19400239 -8 20 C-5.54258463 20.50014953 -5.54258463 20.50014953 -3 20 C-0.49092692 17.75048621 -0.04343691 16.34749528 0.375 13 C-0.04343691 9.65250472 -0.49092692 8.24951379 -3 6 C-6.48382078 5.49017257 -7.46524232 5.46524232 -10 8 Z " fill="#050205" transform="translate(357,264)"/>
<path d="M0 0 C3.00197464 1.80118478 4.45166366 2.90332732 6 6 C6 8.64 6 11.28 6 14 C0.72 14 -4.56 14 -10 14 C-9.34 15.65 -8.68 17.3 -8 19 C-5.08347826 19.16681109 -5.08347826 19.16681109 -2 19 C-1.34 18.34 -0.68 17.68 0 17 C2.26274788 17.35355436 3.95088852 17.97544426 6 19 C4.75023244 22.65316671 4.32901247 23.78065836 1 26 C-3.67666844 26.64110173 -8.77883619 27.11890087 -13.0859375 24.94921875 C-16.16863394 22.40035511 -17.8569295 20.3653013 -18.2734375 16.390625 C-18.58135647 6.86882293 -18.58135647 6.86882293 -15.625 3.3125 C-10.84045736 -0.90245423 -6.18991958 -0.66990472 0 0 Z M-8 6 C-8.66 7.32 -9.32 8.64 -10 10 C-7.03 10 -4.06 10 -1 10 C-1.66 8.68 -2.32 7.36 -3 6 C-4.65 6 -6.3 6 -8 6 Z " fill="#07060B" transform="translate(264,264)"/>
<path d="M0 0 C2.3542263 1.45185691 3.34729074 2.72040103 5 5 C4.01 6.32 3.02 7.64 2 9 C-1.875 8.125 -1.875 8.125 -3 7 C-5.45792029 6.66656449 -5.45792029 6.66656449 -8 7 C-10.31332486 10.46998729 -10.33957563 11.92509248 -10 16 C-9.34 16.99 -8.68 17.98 -8 19 C-5.5 19.5 -5.5 19.5 -3 19 C-2.34 18.01 -1.68 17.02 -1 16 C0.65 16.33 2.3 16.66 4 17 C4.8125 18.6875 4.8125 18.6875 5 21 C3.25 23.75 3.25 23.75 0 26 C-5.34623192 26.94917926 -9.64989791 26.63952204 -14.5625 24.3125 C-18.39229105 20.67910849 -18.89776981 18.28810042 -19.3125 13.0625 C-19.19245371 9.08596675 -18.25370405 6.34169911 -16 3 C-11.64350145 -1.08421739 -5.63034145 -0.94542465 0 0 Z " fill="#1D130E" transform="translate(292,264)"/>
<path d="M0 0 C1.134375 0.020625 2.26875 0.04125 3.4375 0.0625 C3.4375 2.0425 3.4375 4.0225 3.4375 6.0625 C5.7475 6.0625 8.0575 6.0625 10.4375 6.0625 C10.4375 8.0425 10.4375 10.0225 10.4375 12.0625 C8.1275 12.0625 5.8175 12.0625 3.4375 12.0625 C3.7675 16.3525 4.0975 20.6425 4.4375 25.0625 C6.4175 25.0625 8.3975 25.0625 10.4375 25.0625 C10.7675 27.0425 11.0975 29.0225 11.4375 31.0625 C8.98367866 32.28941067 7.23765897 32.26425931 4.5 32.3125 C3.62472656 32.33828125 2.74945313 32.3640625 1.84765625 32.390625 C-0.5625 32.0625 -0.5625 32.0625 -2.31640625 30.734375 C-5.07782886 27.02939419 -4.66572352 23.31386416 -4.625 18.875 C-4.61597656 17.60269531 -4.60695313 16.33039063 -4.59765625 15.01953125 C-4.58605469 14.04371094 -4.57445312 13.06789063 -4.5625 12.0625 C-5.8825 12.0625 -7.2025 12.0625 -8.5625 12.0625 C-8.5625 10.0825 -8.5625 8.1025 -8.5625 6.0625 C-7.2425 6.0625 -5.9225 6.0625 -4.5625 6.0625 C-4.583125 5.258125 -4.60375 4.45375 -4.625 3.625 C-4.52750049 -0.37247981 -4.13731851 0.07258454 0 0 Z " fill="#090305" transform="translate(456.5625,257.9375)"/>
<path d="M0 0 C1.134375 0.020625 2.26875 0.04125 3.4375 0.0625 C3.4375 2.0425 3.4375 4.0225 3.4375 6.0625 C5.7475 6.0625 8.0575 6.0625 10.4375 6.0625 C10.4375 8.0425 10.4375 10.0225 10.4375 12.0625 C8.1275 12.0625 5.8175 12.0625 3.4375 12.0625 C3.4375 16.6825 3.4375 21.3025 3.4375 26.0625 C5.4175 25.7325 7.3975 25.4025 9.4375 25.0625 C10.0975 27.0425 10.7575 29.0225 11.4375 31.0625 C9.00788821 32.2773059 7.27365884 32.29857267 4.5625 32.375 C3.26699219 32.43107422 3.26699219 32.43107422 1.9453125 32.48828125 C-0.5625 32.0625 -0.5625 32.0625 -2.8671875 30.55859375 C-5.24272039 27.06097735 -4.99922772 23.87741883 -4.8125 19.8125 C-4.79445313 19.06742187 -4.77640625 18.32234375 -4.7578125 17.5546875 C-4.71085649 15.72340299 -4.63911652 13.89278351 -4.5625 12.0625 C-5.8825 12.0625 -7.2025 12.0625 -8.5625 12.0625 C-8.5625 10.0825 -8.5625 8.1025 -8.5625 6.0625 C-7.2425 6.0625 -5.9225 6.0625 -4.5625 6.0625 C-4.583125 5.258125 -4.60375 4.45375 -4.625 3.625 C-4.52750049 -0.37247981 -4.13731851 0.07258454 0 0 Z " fill="#0A0C16" transform="translate(306.5625,257.9375)"/>
<path d="M0 0 C2.64 0 5.28 0 8 0 C6.37719636 11.48073021 3.62986924 22.7176602 1 34 C-2.3 34 -5.6 34 -9 34 C-9.27714844 32.94039063 -9.55429687 31.88078125 -9.83984375 30.7890625 C-10.205614 29.40101131 -10.57150572 28.01299213 -10.9375 26.625 C-11.11990234 25.92632812 -11.30230469 25.22765625 -11.49023438 24.5078125 C-12.48512509 20.66044902 -12.48512509 20.66044902 -14 17 C-14.26554687 18.14339844 -14.53109375 19.28679687 -14.8046875 20.46484375 C-15.16102453 21.95583291 -15.51781904 23.44671279 -15.875 24.9375 C-16.04902344 25.69224609 -16.22304688 26.44699219 -16.40234375 27.22460938 C-16.87244065 29.16593545 -17.4304297 31.08549544 -18 33 C-18.99 33.495 -18.99 33.495 -20 34 C-19.67 30.37 -19.34 26.74 -19 23 C-18.34 23 -17.68 23 -17 23 C-16.34 19.37 -15.68 15.74 -15 12 C-14.34 12 -13.68 12 -13 12 C-12.58427734 13.37285156 -12.58427734 13.37285156 -12.16015625 14.7734375 C-11.79792969 15.96195312 -11.43570312 17.15046875 -11.0625 18.375 C-10.70285156 19.55835938 -10.34320313 20.74171875 -9.97265625 21.9609375 C-9.12423726 24.87926818 -9.12423726 24.87926818 -8 27 C-7.67 26.34 -7.34 25.68 -7 25 C-6.67596191 24.40155273 -6.35192383 23.80310547 -6.01806641 23.18652344 C-4.91117263 20.80922353 -4.30260511 18.56913785 -3.7109375 16.015625 C-3.49179687 15.08105469 -3.27265625 14.14648438 -3.046875 13.18359375 C-2.71429688 11.73146484 -2.71429688 11.73146484 -2.375 10.25 C-2.14554687 9.26644531 -1.91609375 8.28289062 -1.6796875 7.26953125 C-1.11529793 4.84735936 -0.55557375 2.42420639 0 0 Z " fill="#20140D" transform="translate(413,256)"/>
<path d="M0 0 C1.134375 0.020625 2.26875 0.04125 3.4375 0.0625 C3.4375 2.0425 3.4375 4.0225 3.4375 6.0625 C4.7575 6.0625 6.0775 6.0625 7.4375 6.0625 C7.4375 8.0425 7.4375 10.0225 7.4375 12.0625 C6.1175 12.0625 4.7975 12.0625 3.4375 12.0625 C3.4375 16.6825 3.4375 21.3025 3.4375 26.0625 C4.7575 26.0625 6.0775 26.0625 7.4375 26.0625 C7.4375 28.0425 7.4375 30.0225 7.4375 32.0625 C0.16477273 32.54734848 0.16477273 32.54734848 -2.8125 30.5625 C-5.25716761 27.07011771 -5.00048423 23.90477203 -4.8125 19.8125 C-4.79445313 19.06742187 -4.77640625 18.32234375 -4.7578125 17.5546875 C-4.71085649 15.72340299 -4.63911652 13.89278351 -4.5625 12.0625 C-5.8825 12.0625 -7.2025 12.0625 -8.5625 12.0625 C-8.5625 10.0825 -8.5625 8.1025 -8.5625 6.0625 C-7.2425 6.0625 -5.9225 6.0625 -4.5625 6.0625 C-4.583125 5.258125 -4.60375 4.45375 -4.625 3.625 C-4.52750049 -0.37247981 -4.13731851 0.07258454 0 0 Z " fill="#0D0C14" transform="translate(476.5625,257.9375)"/>
<path d="M0 0 C2.64 0 5.28 0 8 0 C8 9.9 8 19.8 8 30 C9.32 30 10.64 30 12 30 C12 31.98 12 33.96 12 36 C10.741875 36.04125 9.48375 36.0825 8.1875 36.125 C7.47980469 36.14820313 6.77210938 36.17140625 6.04296875 36.1953125 C4 36 4 36 1 34 C-0.17942085 30.46173745 -0.11289189 27.65851274 -0.09765625 23.92578125 C-0.0962413 23.2419487 -0.09482635 22.55811615 -0.09336853 21.8535614 C-0.08777876 19.67316278 -0.07522822 17.49286749 -0.0625 15.3125 C-0.05748367 13.83268378 -0.052921 12.35286594 -0.04882812 10.87304688 C-0.03781271 7.24866443 -0.02055512 3.6243423 0 0 Z " fill="#1C0B0C" transform="translate(232,254)"/>
<path d="M0 0 C5.94 0 11.88 0 18 0 C17.67 1.98 17.34 3.96 17 6 C15.865625 6.309375 14.73125 6.61875 13.5625 6.9375 C10.21224901 7.62924531 10.21224901 7.62924531 9 9 C8.76298761 11.85877909 8.57780818 14.69883297 8.4375 17.5625 C8.39431641 18.36880859 8.35113281 19.17511719 8.30664062 20.00585938 C8.20024738 22.00368805 8.09959112 24.0018207 8 26 C5.36 26 2.72 26 0 26 C0 17.42 0 8.84 0 0 Z " fill="#1C0707" transform="translate(320,264)"/>
<path d="M0 0 C1.88138672 0.05414063 1.88138672 0.05414063 3.80078125 0.109375 C5.22970703 0.17898437 5.22970703 0.17898437 6.6875 0.25 C5.94708694 5.05319243 5.20990744 9.00278727 1.33203125 12.1796875 C-0.42888886 13.20117363 -2.21807797 14.17587198 -4.03515625 15.09375 C-6.43183273 16.16241151 -6.43183273 16.16241151 -8.3125 18.25 C-10.4375 17.875 -10.4375 17.875 -12.3125 17.25 C-12.9725 18.24 -13.6325 19.23 -14.3125 20.25 C-14.3125 13.98 -14.3125 7.71 -14.3125 1.25 C-13.3225 2.735 -13.3225 2.735 -12.3125 4.25 C-11.63832031 3.59515625 -10.96414062 2.9403125 -10.26953125 2.265625 C-6.56289215 -0.26096123 -4.43582779 -0.16582534 0 0 Z " fill="#010101" transform="translate(16.3125,239.75)"/>
<path d="M0 0 C0.99 0 1.98 0 3 0 C3 7.59 3 15.18 3 23 C3.66 23 4.32 23 5 23 C5.33 24.98 5.66 26.96 6 29 C6.66 29 7.32 29 8 29 C8 25.7 8 22.4 8 19 C8.33 19 8.66 19 9 19 C9 21.97 9 24.94 9 28 C10.60681641 27.98259766 10.60681641 27.98259766 12.24609375 27.96484375 C13.64322743 27.95546701 15.04036299 27.94636669 16.4375 27.9375 C17.14455078 27.92912109 17.85160156 27.92074219 18.58007812 27.91210938 C20.38693559 27.90346412 22.19387603 27.94779989 24 28 C25 29 25 29 25 34 C16.75 34 8.5 34 0 34 C0 22.78 0 11.56 0 0 Z " fill="#201208" transform="translate(204,256)"/>
<path d="M0 0 C13.9395521 -0.85928746 13.9395521 -0.85928746 17.8125 2 C20.49018331 5.67225139 21.43885955 8.46511795 21 13 C19.5625 16 19.5625 16 18 18 C11.82947459 15.71093412 4.89681301 12.55652438 1.6875 6.5390625 C0.9730862 4.36147427 0.39888772 2.25524979 0 0 Z " fill="#010101" transform="translate(180,240)"/>
<path d="M0 0 C1.32 0.66 2.64 1.32 4 2 C4 6.29 4 10.58 4 15 C4.66 15 5.32 15 6 15 C5.67 16.65 5.34 18.3 5 20 C-1 20 -7 20 -13 20 C-13.33 16.37 -13.66 12.74 -14 9 C-12.68 8.67 -11.36 8.34 -10 8 C-10 8.66 -10 9.32 -10 10 C-10.66 10 -11.32 10 -12 10 C-12 11.98 -12 13.96 -12 16 C-11.071875 15.67 -10.14375 15.34 -9.1875 15 C-6 14 -6 14 -3 14 C-2.34 11.69 -1.68 9.38 -1 7 C-1.99 7 -2.98 7 -4 7 C-4 6.34 -4 5.68 -4 5 C-2.68 5 -1.36 5 0 5 C0 3.35 0 1.7 0 0 Z " fill="#050102" transform="translate(440,270)"/>
<path d="M0 0 C0.66 0 1.32 0 2 0 C2 3.96 2 7.92 2 12 C6.72145699 14.24759378 6.72145699 14.24759378 11 14 C11.66 12.35 12.32 10.7 13 9 C15.475 9.495 15.475 9.495 18 10 C18.8125 11.6875 18.8125 11.6875 19 14 C17.25 16.75 17.25 16.75 14 19 C9.1253249 19.84244754 4.72423881 19.92226727 0.3125 17.5625 C-1.35785898 14.30132295 -1.27176748 11.83005974 -1.04296875 8.21875 C-0.89158264 5.98219345 -0.89158264 5.98219345 -1.61328125 3.84375 C-1.74089844 3.2353125 -1.86851562 2.626875 -2 2 C-1.34 1.34 -0.68 0.68 0 0 Z " fill="#080406" transform="translate(278,271)"/>
<path d="M0 0 C1.4540625 0.0309375 1.4540625 0.0309375 2.9375 0.0625 C2.02703965 5.78677728 1.10467369 11.50910735 -0.0625 17.1875 C-0.206875 17.89132812 -0.35125 18.59515625 -0.5 19.3203125 C-1.0625 21.0625 -1.0625 21.0625 -3.0625 23.0625 C-3.76960678 24.71241582 -4.44193989 26.37812256 -5.0625 28.0625 C-8.56140644 21.06468712 -6.26299632 8.29040762 -4.0625 1.0625 C-3.0625 0.0625 -3.0625 0.0625 0 0 Z " fill="#02010A" transform="translate(418.0625,255.9375)"/>
<path d="M0 0 C0.66 0 1.32 0 2 0 C2.33 5.61 2.66 11.22 3 17 C5.76051224 14.23948776 5.32975595 12.34751545 5.5 8.5 C5.77777778 2.22222222 5.77777778 2.22222222 8 0 C8.33 4.62 8.66 9.24 9 14 C10.98 14 12.96 14 15 14 C15.33 15.98 15.66 17.96 16 20 C13.54617866 21.22691067 11.80015897 21.20175931 9.0625 21.25 C8.18722656 21.27578125 7.31195313 21.3015625 6.41015625 21.328125 C4 21 4 21 2.24609375 19.671875 C-0.57235979 15.89037621 -0.11689875 11.7941202 -0.0625 7.3125 C-0.05798828 6.61060547 -0.05347656 5.90871094 -0.04882812 5.18554688 C-0.03706927 3.45699462 -0.01913454 1.72848635 0 0 Z " fill="#1D0E11" transform="translate(452,269)"/>
<path d="M0 0 C0.33 0 0.66 0 1 0 C1 41.25 1 82.5 1 125 C0.67 125 0.34 125 0 125 C0 83.75 0 42.5 0 0 Z " fill="#0E0E0F" transform="translate(2,349)"/>
<path d="M0 0 C0.33 0 0.66 0 1 0 C1.33 2.97 1.66 5.94 2 9 C6.50983576 11.25491788 10.05423265 11.32431261 15 11 C15.66 10.34 16.32 9.68 17 9 C19.26274788 9.35355436 20.95088852 9.97544426 23 11 C21.75023244 14.65316671 21.32901247 15.78065836 18 18 C14.2272293 18.24605026 10.60294112 18.20098037 7 17 C6.30062468 15.68352881 5.63270867 14.34977849 5 13 C2.97536745 12.34786708 2.97536745 12.34786708 1 12 C-0.26237731 9.47524538 -0.09856404 7.68799534 -0.0625 4.875 C-0.05347656 3.96492188 -0.04445312 3.05484375 -0.03515625 2.1171875 C-0.02355469 1.41851562 -0.01195312 0.71984375 0 0 Z " fill="#070303" transform="translate(247,272)"/>
<path d="M0 0 C0.66 0.33 1.32 0.66 2 1 C1 3 0 5 -1 7 C-0.01 7 0.98 7 2 7 C1.67 9.31 1.34 11.62 1 14 C0.01 14 -0.98 14 -2 14 C-1.67 12.35 -1.34 10.7 -1 9 C-2.65 9.66 -4.3 10.32 -6 11 C-5.67 12.32 -5.34 13.64 -5 15 C-6.32 15.33 -7.64 15.66 -9 16 C-9 14.02 -9 12.04 -9 10 C-8.34 10 -7.68 10 -7 10 C-7 9.34 -7 8.68 -7 8 C-7.99 8.33 -8.98 8.66 -10 9 C-10 12.3 -10 15.6 -10 19 C-11.32 18.34 -12.64 17.68 -14 17 C-14.60663507 9.72037915 -14.60663507 9.72037915 -12 6.625 C-9.39888593 5.21606321 -7.57522163 4.57266673 -4.75 3.9375 C-3.5125 3.628125 -2.275 3.31875 -1 3 C-0.67 2.01 -0.34 1.02 0 0 Z " fill="#050814" transform="translate(437,270)"/>
<path d="M0 0 C2 1 2 1 3.125 3.4375 C4.23695552 7.96474749 4.54317461 12.35905219 4 17 C3.34 17.99 2.68 18.98 2 20 C1.97360171 22.29714187 1.97360171 22.29714187 2.375 24.6875 C2.48585937 25.49574219 2.59671875 26.30398437 2.7109375 27.13671875 C2.80632812 27.75160156 2.90171875 28.36648437 3 29 C2.29875 28.236875 1.5975 27.47375 0.875 26.6875 C-1.96352604 24.03409522 -4.46949051 22.55999257 -8 21 C-8 20.01 -8 19.02 -8 18 C-8.66 17.34 -9.32 16.68 -10 16 C-4.25 14.875 -4.25 14.875 -2 16 C-2 15.34 -2 14.68 -2 14 C-0.35 14 1.3 14 3 14 C2.01 9.38 1.02 4.76 0 0 Z M0 17 C1 19 1 19 1 19 Z " fill="#87BC3E" transform="translate(182,173)"/>
<path d="M0 0 C0.99 0.66 1.98 1.32 3 2 C3.328125 4.86328125 3.328125 4.86328125 3.25 8.3125 C3.23453125 9.44300781 3.2190625 10.57351563 3.203125 11.73828125 C3.02515376 14.59608868 2.64755162 17.21657246 2 20 C-8.15317287 20.63019694 -8.15317287 20.63019694 -11.6875 18 C-12.120625 17.34 -12.55375 16.68 -13 16 C-12.34 16 -11.68 16 -11 16 C-10.67 15.34 -10.34 14.68 -10 14 C-7.70779595 13.64562795 -5.44461018 13.55663389 -3.12890625 13.44140625 C-0.61259298 13.17950453 -0.61259298 13.17950453 1 10 C1.22584687 6.4617323 1.04336284 3.39092922 0 0 Z " fill="#1D130C" transform="translate(355,270)"/>
<path d="M0 0 C3.96 0 7.92 0 12 0 C11.67 1.98 11.34 3.96 11 6 C9.865625 6.309375 8.73125 6.61875 7.5625 6.9375 C4.21224901 7.62924531 4.21224901 7.62924531 3 9 C2.76298761 11.85877909 2.57780818 14.69883297 2.4375 17.5625 C2.39431641 18.36880859 2.35113281 19.17511719 2.30664062 20.00585938 C2.20024738 22.00368805 2.09959112 24.0018207 2 26 C1.67 26 1.34 26 1 26 C0.9730499 23.06243881 0.95318526 20.12512445 0.9375 17.1875 C0.92912109 16.35412109 0.92074219 15.52074219 0.91210938 14.66210938 C0.90888672 13.85966797 0.90566406 13.05722656 0.90234375 12.23046875 C0.89710693 11.49207764 0.89187012 10.75368652 0.88647461 9.99291992 C1 8 1 8 2 5 C1.34 4.67 0.68 4.34 0 4 C0 2.68 0 1.36 0 0 Z " fill="#0C0E19" transform="translate(326,264)"/>
<path d="M0 0 C3 1 3 1 4.16796875 2.7421875 C4.50441406 3.44601563 4.84085938 4.14984375 5.1875 4.875 C5.53167969 5.57367188 5.87585938 6.27234375 6.23046875 6.9921875 C7 9 7 9 7 12 C4.23723823 11.47731534 1.6739124 10.89130413 -1 10 C-1 10.66 -1 11.32 -1 12 C-1.66 12 -2.32 12 -3 12 C-3 12.66 -3 13.32 -3 14 C-7.455 15.485 -7.455 15.485 -12 17 C-9.81451699 14.81451699 -7.86407258 13.14160114 -5.4375 11.3125 C-1.44429812 7.96798281 -0.78543061 5.06166391 0 0 Z " fill="#0A5F39" transform="translate(213,151)"/>
<path d="M0 0 C1 3 1 3 0 6 C-1.4375 7.6875 -1.4375 7.6875 -3 9 C-3.66 9 -4.32 9 -5 9 C-5.33 10.65 -5.66 12.3 -6 14 C-4.35 14.33 -2.7 14.66 -1 15 C-2.1446875 16.051875 -2.1446875 16.051875 -3.3125 17.125 C-5.96590478 19.96352604 -7.44000743 22.46949051 -9 26 C-9.33 26 -9.66 26 -10 26 C-11.07464045 17.09583626 -7.46659038 10.44112915 -3 3 C-1.26953125 1.0859375 -1.26953125 1.0859375 0 0 Z " fill="#145F3D" transform="translate(198,188)"/>
<path d="M0 0 C0.99 0 1.98 0 3 0 C3 0.66 3 1.32 3 2 C2.34 2 1.68 2 1 2 C1 3.98 1 5.96 1 8 C2.65 7.34 4.3 6.68 6 6 C6.33 6.99 6.66 7.98 7 9 C8.98 8.67 10.96 8.34 13 8 C13.66 9.32 14.32 10.64 15 12 C14.195625 11.814375 13.39125 11.62875 12.5625 11.4375 C11.716875 11.293125 10.87125 11.14875 10 11 C9.67 11.33 9.34 11.66 9 12 C7.48071962 12.07179964 5.95832518 12.08392007 4.4375 12.0625 C3.61121094 12.05347656 2.78492188 12.04445313 1.93359375 12.03515625 C1.29550781 12.02355469 0.65742188 12.01195312 0 12 C-0.19401633 10.18818595 -0.38004375 8.37551468 -0.5625 6.5625 C-0.66691406 5.55316406 -0.77132813 4.54382813 -0.87890625 3.50390625 C-0.91886719 2.67761719 -0.95882813 1.85132813 -1 1 C-0.67 0.67 -0.34 0.34 0 0 Z " fill="#040305" transform="translate(427,278)"/>
<path d="M0 0 C0.99 0 1.98 0 3 0 C4.60366113 4.27642969 5.2619423 7.94613967 5.4375 12.5 C5.86386799 19.90616982 7.25878117 26.7942013 9 34 C8.34 34 7.68 34 7 34 C5.99738393 29.80211662 5.00064571 25.60289389 4.00927734 21.40234375 C3.67136357 19.97422878 3.33186021 18.54648895 2.99072266 17.11914062 C2.50002088 15.06477399 2.0150938 13.00911616 1.53125 10.953125 C1.23798828 9.71723633 0.94472656 8.48134766 0.64257812 7.20800781 C0 4 0 4 0 0 Z " fill="#59331C" transform="translate(378,256)"/>
<path d="M0 0 C0.66 0.33 1.32 0.66 2 1 C2.4140625 3.06640625 2.4140625 3.06640625 2.625 5.5625 C2.69976562 6.38878906 2.77453125 7.21507812 2.8515625 8.06640625 C2.90054688 8.70449219 2.94953125 9.34257812 3 10 C0 10 0 10 -3 9 C-3.144375 10.216875 -3.28875 11.43375 -3.4375 12.6875 C-3.82780953 15.82670377 -4.32351856 18.9075134 -5 22 C-5.33 22 -5.66 22 -6 22 C-6.44859191 13.9253457 -5.23905243 6.39839456 0 0 Z " fill="#8CB452" transform="translate(164,155)"/>
<path d="M0 0 C0.66 0 1.32 0 2 0 C4.31993846 7.28640866 6.47536437 14.50387484 8 22 C7.34 22 6.68 22 6 22 C5.72285156 20.94039063 5.44570313 19.88078125 5.16015625 18.7890625 C4.794386 17.40101131 4.42849428 16.01299213 4.0625 14.625 C3.88009766 13.92632812 3.69769531 13.22765625 3.50976562 12.5078125 C2.51487491 8.66044902 2.51487491 8.66044902 1 5 C0.73445313 6.14339844 0.46890625 7.28679687 0.1953125 8.46484375 C-0.16102453 9.95583291 -0.51781904 11.44671279 -0.875 12.9375 C-1.04902344 13.69224609 -1.22304688 14.44699219 -1.40234375 15.22460938 C-1.87244065 17.16593545 -2.4304297 19.08549544 -3 21 C-3.66 21.33 -4.32 21.66 -5 22 C-4.67 18.37 -4.34 14.74 -4 11 C-3.34 11 -2.68 11 -2 11 C-1.34 7.37 -0.68 3.74 0 0 Z " fill="#3B3134" transform="translate(398,268)"/>
<path d="M0 0 C0.66 0 1.32 0 2 0 C2.08165496 2.20770805 2.13948488 4.41630425 2.1875 6.625 C2.22230469 7.85476563 2.25710938 9.08453125 2.29296875 10.3515625 C1.9787947 14.26407664 0.96906533 16.64070218 -1 20 C-1.66 20 -2.32 20 -3 20 C-3.33 19.01 -3.66 18.02 -4 17 C-3.67 16.67 -3.34 16.34 -3 16 C-2.43725235 13.31455654 -1.91938977 10.63746613 -1.4375 7.9375 C-1.29892578 7.17888672 -1.16035156 6.42027344 -1.01757812 5.63867188 C-0.67488173 3.75975025 -0.3369927 1.87995299 0 0 Z " fill="#010208" transform="translate(360,269)"/>
<path d="M0 0 C-0.1875 2.375 -0.1875 2.375 -1 5 C-2.6476038 5.71247732 -4.31763529 6.37400383 -6 7 C-7.36639342 8.6396721 -8.70513179 10.30327614 -10 12 C-10.66 12 -11.32 12 -12 12 C-11.67 14.97 -11.34 17.94 -11 21 C-11.99 21 -12.98 21 -14 21 C-13.84580701 14.03328038 -13.03327175 9.04665811 -8 4 C-3.15727003 0 -3.15727003 0 0 0 Z " fill="#0B613B" transform="translate(201,168)"/>
<path d="M0 0 C3.42805969 0.92650262 4.76602961 1.66114633 6.8125 4.625 C8.74566371 10.11925475 8.80364008 14.12483982 6.5 19.5 C5.7575 20.7375 5.7575 20.7375 5 22 C4.01 22 3.02 22 2 22 C2.31710937 21.48953125 2.63421875 20.9790625 2.9609375 20.453125 C4.33976273 17.19785341 4.4293573 14.27156868 4.625 10.75 C4.69976562 9.48671875 4.77453125 8.2234375 4.8515625 6.921875 C4.90054687 5.95765625 4.94953125 4.9934375 5 4 C4.01 4.33 3.02 4.66 2 5 C1.34 3.35 0.68 1.7 0 0 Z " fill="#080B2D" transform="translate(357,265)"/>
<path d="M0 0 C0.33 0 0.66 0 1 0 C1.04898437 0.99902344 1.09796875 1.99804688 1.1484375 3.02734375 C1.22320312 4.31769531 1.29796875 5.60804688 1.375 6.9375 C1.44460938 8.22527344 1.51421875 9.51304687 1.5859375 10.83984375 C1.72257812 11.88269531 1.85921875 12.92554688 2 14 C4.95664519 15.4783226 7.74229737 15.06032783 11 15 C11 16.32 11 17.64 11 19 C8.13879744 20.43060128 6.15989415 20.38692581 3 20 C-0.31827564 15.97948463 -0.37388876 12.18176286 -0.1875 7.1875 C-0.16719727 6.14819336 -0.16719727 6.14819336 -0.14648438 5.08789062 C-0.11138845 3.39158735 -0.05758943 1.69568864 0 0 Z " fill="#0B0302" transform="translate(303,270)"/>
<path d="M0 0 C-0.99 0.33 -1.98 0.66 -3 1 C-4.38938077 2.96147874 -5.7260411 4.96166576 -7 7 C-7.33 7.33 -7.66 7.66 -8 8 C-8.07258946 10.18639453 -8.08373783 12.37500389 -8.0625 14.5625 C-8.05347656 15.76003906 -8.04445313 16.95757812 -8.03515625 18.19140625 C-8.02355469 19.11824219 -8.01195312 20.04507812 -8 21 C-10.34128465 19.18799513 -10.95495623 18.26012775 -11.46875 15.29296875 C-11.56350233 5.87695549 -11.56350233 5.87695549 -8.625 2.3125 C-5.19489373 -0.70926028 -4.27477671 -1.28243301 0 0 Z " fill="#3A2416" transform="translate(350,265)"/>
<path d="M0 0 C0.99443769 2.98331306 1.02452065 4.20838759 0.66015625 7.23046875 C0.56669922 8.03291016 0.47324219 8.83535156 0.37695312 9.66210938 C0.22129883 10.91217773 0.22129883 10.91217773 0.0625 12.1875 C-0.03740234 13.03248047 -0.13730469 13.87746094 -0.24023438 14.74804688 C-0.48757108 16.83274197 -0.74301041 18.91647284 -1 21 C-1.66 21 -2.32 21 -3 21 C-3.66 21.66 -4.32 22.32 -5 23 C-3.76595745 3.76595745 -3.76595745 3.76595745 0 0 Z " fill="#2B180E" transform="translate(396,256)"/>
<path d="M0 0 C0.99 0 1.98 0 3 0 C3.19335938 1.01320313 3.38671875 2.02640625 3.5859375 3.0703125 C3.84874923 4.42191568 4.11178183 5.77347592 4.375 7.125 C4.50132812 7.79015625 4.62765625 8.4553125 4.7578125 9.140625 C5.37295478 12.27785062 6.08990563 15.2697169 7.1015625 18.3046875 C8 21 8 21 8 24 C7.34 24 6.68 24 6 24 C5.896875 22.88625 5.79375 21.7725 5.6875 20.625 C5.3471875 18.830625 5.3471875 18.830625 5 17 C4.01 16.34 3.02 15.68 2 15 C1.5234375 12.79296875 1.5234375 12.79296875 1.375 10.1875 C1.1284136 6.7101285 0.79439936 3.40456868 0 0 Z " fill="#020107" transform="translate(381,256)"/>
<path d="M0 0 C0.66 0 1.32 0 2 0 C2.67662 2.68533564 3.34146121 5.372725 4 8.0625 C4.19078125 8.81466797 4.3815625 9.56683594 4.578125 10.34179688 C5.7141096 15.02773336 6.20486266 19.17932546 6 24 C3.830658 20.745987 2.9609947 17.99869282 1.875 14.25 C1.52179688 13.05890625 1.16859375 11.8678125 0.8046875 10.640625 C-0.00618632 6.9720114 -0.14398555 3.74362434 0 0 Z " fill="#090E2B" transform="translate(384,256)"/>
<path d="M0 0 C3.875 1.75 3.875 1.75 5 4 C5.0716735 6.55157655 5.09308442 9.07472971 5.0625 11.625 C5.05798828 12.33140625 5.05347656 13.0378125 5.04882812 13.765625 C5.03703875 15.51045275 5.01910324 17.255237 5 19 C5.99 19 6.98 19 8 19 C8 20.98 8 22.96 8 25 C7.01 24.67 6.02 24.34 5 24 C5.33 22.68 5.66 21.36 6 20 C5.34 20 4.68 20 4 20 C4 15.71 4 11.42 4 7 C2.68 6.34 1.36 5.68 0 5 C-0.8125 2.9375 -0.8125 2.9375 -1 1 C-0.67 0.67 -0.34 0.34 0 0 Z " fill="#060A19" transform="translate(440,265)"/>
<path d="M0 0 C0 3 0 3 -1 5 C-1.0955931 6.66444461 -1.12984645 8.33281963 -1.125 10 C-1.12757813 10.886875 -1.13015625 11.77375 -1.1328125 12.6875 C-1.15127902 15.02676966 -1.15127902 15.02676966 0 17 C2.52733235 17.65555119 2.52733235 17.65555119 5 18 C5 19.32 5 20.64 5 22 C6.32 21.67 7.64 21.34 9 21 C9.33 21.66 9.66 22.32 10 23 C7.08083462 23.34751969 4.86804524 23.53280018 2.30078125 21.95703125 C0.11660035 20.15362765 -1.72206192 18.55587616 -3 16 C-3.1481544 14.04550156 -3.22124849 12.0848947 -3.25 10.125 C-3.27578125 9.07570313 -3.3015625 8.02640625 -3.328125 6.9453125 C-2.96595818 3.69443414 -2.18132146 2.37649233 0 0 Z " fill="#3E2D1F" transform="translate(249,267)"/>
<path d="M0 0 C0.66 0 1.32 0 2 0 C2 1.98 2 3.96 2 6 C2.99 6.33 3.98 6.66 5 7 C5 11.62 5 16.24 5 21 C3.23288001 18.34932001 2.59849878 16.99543645 1.89453125 14.0234375 C1.71599609 13.270625 1.53746094 12.5178125 1.35351562 11.7421875 C1.17498047 10.96101563 0.99644531 10.17984375 0.8125 9.375 C0.52729492 8.19164062 0.52729492 8.19164062 0.23632812 6.984375 C-0.22554972 5.00051593 -0.61877152 3.00092298 -1 1 C-0.67 0.67 -0.34 0.34 0 0 Z " fill="#110300" transform="translate(401,267)"/>
<path d="M0 0 C0.99 0 1.98 0 3 0 C1.07289294 12.66970387 1.07289294 12.66970387 -1 18 C-1.33 18 -1.66 18 -2 18 C-2.23268915 11.71739294 -1.40454548 6.11980533 0 0 Z " fill="#090F2E" transform="translate(418,256)"/>
<path d="M0 0 C0.66 0 1.32 0 2 0 C3.14596107 5.1568248 3.04194786 10.14212016 2.9375 15.390625 C2.81437675 17.98347692 2.81437675 17.98347692 4 20 C3.01 19.67 2.02 19.34 1 19 C-0.65497356 15.69005287 -0.10084335 12.00877 -0.0625 8.375 C-0.05798828 7.57320313 -0.05347656 6.77140625 -0.04882812 5.9453125 C-0.03703168 3.96350994 -0.01909605 1.98174567 0 0 Z " fill="#59412D" transform="translate(472,269)"/>
<path d="M0 0 C0.99 0 1.98 0 3 0 C2.67 0.99 2.34 1.98 2 3 C1.91602843 5.35680213 1.89271813 7.71594081 1.90234375 10.07421875 C1.9037587 10.7580513 1.90517365 11.44188385 1.90663147 12.1464386 C1.91222124 14.32683722 1.92477178 16.50713251 1.9375 18.6875 C1.94251633 20.16731622 1.947079 21.64713406 1.95117188 23.12695312 C1.96218729 26.75133557 1.97944488 30.3756577 2 34 C1.34 33.67 0.68 33.34 0 33 C0 22.11 0 11.22 0 0 Z " fill="#100000" transform="translate(234,254)"/>
<path d="M0 0 C0.66 0 1.32 0 2 0 C2 3.96 2 7.92 2 12 C2.66 12 3.32 12 4 12 C4 12.66 4 13.32 4 14 C2.0859375 13.3125 2.0859375 13.3125 0 12 C-0.8984375 9.6875 -0.8984375 9.6875 -1.375 7 C-1.54773438 6.113125 -1.72046875 5.22625 -1.8984375 4.3125 C-1.93195313 3.549375 -1.96546875 2.78625 -2 2 C-1.34 1.34 -0.68 0.68 0 0 Z " fill="#020106" transform="translate(278,271)"/>
<path d="M0 0 C0.99 0 1.98 0 3 0 C3 1.32 3 2.64 3 4 C3.66 4.33 4.32 4.66 5 5 C5.26125082 7.62735198 5.42165499 10.17872511 5.5 12.8125 C5.57698346 19.19894395 5.57698346 19.19894395 8 25 C7.01 24.67 6.02 24.34 5 24 C3.40587716 20.81175432 3.89825265 17.37103338 3.9375 13.875 C3.94201172 13.12089844 3.94652344 12.36679687 3.95117188 11.58984375 C3.96296501 9.72652873 3.98090058 7.86325445 4 6 C2.68 6 1.36 6 0 6 C0 4.02 0 2.04 0 0 Z " fill="#7A6143" transform="translate(298,264)"/>
<path d="M0 0 C0 0.33 0 0.66 0 1 C-0.969375 1.28875 -1.93875 1.5775 -2.9375 1.875 C-6.10664203 2.64214682 -6.10664203 2.64214682 -7 5 C-7.25860135 9.05142119 -7.30441554 10.54337669 -5 14 C-2.43717258 14.72965366 -2.43717258 14.72965366 0 15 C-1.6875 16.1875 -1.6875 16.1875 -4 17 C-6.625 15.96875 -6.625 15.96875 -9 14 C-9.48828125 10.86328125 -9.48828125 10.86328125 -9.3125 7.3125 C-9.26738281 6.13300781 -9.22226562 4.95351563 -9.17578125 3.73828125 C-9.11777344 2.83464844 -9.05976563 1.93101562 -9 1 C-5.8035914 -0.06546953 -3.34252724 -0.07427838 0 0 Z " fill="#0D121D" transform="translate(289,269)"/>
<path d="M0 0 C0.66 0.33 1.32 0.66 2 1 C1 3 0 5 -1 7 C-0.01 7 0.98 7 2 7 C1.67 9.31 1.34 11.62 1 14 C0.01 14 -0.98 14 -2 14 C-1.67 12.35 -1.34 10.7 -1 9 C-2.32 8.67 -3.64 8.34 -5 8 C-4.34 8 -3.68 8 -3 8 C-3 6.68 -3 5.36 -3 4 C-2.34 3.67 -1.68 3.34 -1 3 C-0.67 2.01 -0.34 1.02 0 0 Z " fill="#352217" transform="translate(437,270)"/>
<path d="M0 0 C2 1 2 1 3.125 3.4375 C4.30793407 8.25373156 5.29473239 14.41053522 3 19 C2.34 19 1.68 19 1 19 C0.87625 18.360625 0.7525 17.72125 0.625 17.0625 C0.41875 16.381875 0.2125 15.70125 0 15 C-0.66 14.67 -1.32 14.34 -2 14 C-0.35 14 1.3 14 3 14 C2.01 9.38 1.02 4.76 0 0 Z " fill="#73A54E" transform="translate(182,173)"/>
<path d="M0 0 C1.38226016 2.76452033 1.09525387 5.0461363 1.0625 8.125 C1.05347656 9.22070312 1.04445313 10.31640625 1.03515625 11.4453125 C1.02355469 12.28835938 1.01195312 13.13140625 1 14 C-2.85777259 11.55547083 -2.85777259 11.55547083 -3.49609375 9.0625 C-3.33661417 3.4488189 -3.33661417 3.4488189 -1.5 1 C-1.005 0.67 -0.51 0.34 0 0 Z " fill="#080F28" transform="translate(347,270)"/>
<path d="M0 0 C0.99 0 1.98 0 3 0 C3 1.32 3 2.64 3 4 C2.01 4.495 2.01 4.495 1 5 C0.53476937 6.89533342 0.53476937 6.89533342 0.375 9.0625 C0.25125 10.361875 0.1275 11.66125 0 13 C-0.99 13 -1.98 13 -3 13 C-2.69240822 11.02006459 -2.3787932 9.04106401 -2.0625 7.0625 C-1.88847656 5.96035156 -1.71445312 4.85820312 -1.53515625 3.72265625 C-1 1 -1 1 0 0 Z " fill="#0D0101" transform="translate(415,256)"/>
<path d="M0 0 C0.99 0.495 0.99 0.495 2 1 C2.59765625 3.36328125 2.59765625 3.36328125 3.0625 6.3125 C3.68523578 10.27479686 3.68523578 10.27479686 4.62109375 14.16796875 C5 16 5 16 4 19 C1.56953809 12.67162748 0.40939975 6.76215448 0 0 Z " fill="#170300" transform="translate(383,271)"/>
<path d="M0 0 C0.33 0 0.66 0 1 0 C2.19287411 3.87684087 3 6.91621923 3 11 C1.68 10.34 0.36 9.68 -1 9 C-1.09765625 2.84765625 -1.09765625 2.84765625 -1 1 C-0.67 0.67 -0.34 0.34 0 0 Z " fill="#3B2217" transform="translate(424,278)"/>
<path d="M0 0 C2.16874252 0.50603992 3.99967627 0.99983813 6 2 C5.25 4.4375 5.25 4.4375 4 7 C1.875 7.8125 1.875 7.8125 0 8 C0.66 6.02 1.32 4.04 2 2 C1.01 2.33 0.02 2.66 -1 3 C-0.67 2.01 -0.34 1.02 0 0 Z " fill="#100F1C" transform="translate(264,281)"/>
<path d="M0 0 C1.03159626 3.09478879 0.97482862 4.52631393 0.5625 7.6875 C0.46066406 8.49574219 0.35882813 9.30398438 0.25390625 10.13671875 C0.17011719 10.75160156 0.08632813 11.36648438 0 12 C-0.66 12 -1.32 12 -2 12 C-2.33 12.99 -2.66 13.98 -3 15 C-2.22095672 4.44191344 -2.22095672 4.44191344 0 0 Z " fill="#59351E" transform="translate(396,256)"/>
<path d="M0 0 C0.33 0 0.66 0 1 0 C0.85795259 1.58367747 0.71119847 3.16693318 0.5625 4.75 C0.48128906 5.63171875 0.40007812 6.5134375 0.31640625 7.421875 C0.03761535 9.69350452 -0.38790577 11.79851823 -1 14 C-1.66 14 -2.32 14 -3 14 C-3.40652968 8.57960425 -2.03993514 4.92984325 0 0 Z " fill="#0C183D" transform="translate(415,276)"/>
<path d="M0 0 C0.66 0.33 1.32 0.66 2 1 C2.625 4.0625 2.625 4.0625 3 7 C1.02 7 -0.96 7 -3 7 C-2.38722388 4.03824877 -1.74627478 2.61941217 0 0 Z " fill="#96B558" transform="translate(164,155)"/>
<path d="M0 0 C0.66 1.98 1.32 3.96 2 6 C0.02 6.33 -1.96 6.66 -4 7 C-3.34 6.67 -2.68 6.34 -2 6 C-2 4.68 -2 3.36 -2 2 C-3.32 1.67 -4.64 1.34 -6 1 C-3.92446352 0.4465236 -2.15634036 0 0 0 Z " fill="#0C0F1F" transform="translate(316,283)"/>
<path d="M0 0 C0.33 0.66 0.66 1.32 1 2 C1.99 2.33 2.98 2.66 4 3 C4.125 5.875 4.125 5.875 4 9 C3.34 9.66 2.68 10.32 2 11 C0.19769832 7.17010894 -0.19622241 4.21878192 0 0 Z " fill="#1C0403" transform="translate(274,274)"/>
<path d="M0 0 C1.65 0.33 3.3 0.66 5 1 C6.125 4.75 6.125 4.75 5 7 C4.34 7 3.68 7 3 7 C2.67 5.35 2.34 3.7 2 2 C0.02 2.99 0.02 2.99 -2 4 C-1.34 2.68 -0.68 1.36 0 0 Z " fill="#1A1523" transform="translate(291,280)"/>
<path d="M0 0 C0.99 0.33 1.98 0.66 3 1 C3.33 1.99 3.66 2.98 4 4 C2.75 5.5625 2.75 5.5625 1 7 C-1.125 6.8125 -1.125 6.8125 -3 6 C-3.33 5.34 -3.66 4.68 -4 4 C-2.68 4.33 -1.36 4.66 0 5 C0 3.35 0 1.7 0 0 Z " fill="#191720" transform="translate(293,266)"/>
<path d="M0 0 C0.66 0.33 1.32 0.66 2 1 C2 3.64 2 6.28 2 9 C1.01 9 0.02 9 -1 9 C-0.67 6.03 -0.34 3.06 0 0 Z " fill="#080823" transform="translate(406,272)"/>
<path d="M0 0 C0.99 0.33 1.98 0.66 3 1 C2.01 1.495 2.01 1.495 1 2 C1 3.98 1 5.96 1 8 C-0.9375 7.1875 -0.9375 7.1875 -3 6 C-3.33 5.01 -3.66 4.02 -4 3 C-2.1875 1.4375 -2.1875 1.4375 0 0 Z " fill="#3B2219" transform="translate(427,265)"/>
<path d="M0 0 C3.65316671 1.24976756 4.78065836 1.67098753 7 5 C6.625 7.1875 6.625 7.1875 6 9 C5.67 7.35 5.34 5.7 5 4 C4.01 4.33 3.02 4.66 2 5 C1.34 3.35 0.68 1.7 0 0 Z " fill="#0B0F22" transform="translate(357,265)"/>
<path d="M0 0 C1.32 0 2.64 0 4 0 C4 1.98 4 3.96 4 6 C2.68 5.67 1.36 5.34 0 5 C0 3.35 0 1.7 0 0 Z " fill="#080828" transform="translate(313,264)"/>
<path d="M0 0 C0.99 0 1.98 0 3 0 C3 1.32 3 2.64 3 4 C3.99 4.33 4.98 4.66 6 5 C4.02 5.33 2.04 5.66 0 6 C0 4.02 0 2.04 0 0 Z " fill="#320D08" transform="translate(448,264)"/>
<path d="M0 0 C0.33 0 0.66 0 1 0 C1 7.26 1 14.52 1 22 C0.67 22 0.34 22 0 22 C0 14.74 0 7.48 0 0 Z " fill="#060806" transform="translate(2,215)"/>
<path d="M0 0 C3.34399743 2.99806666 5.14063143 5.92709743 7 10 C7.33 10.66 7.66 11.32 8 12 C3.78456242 10.49448658 2.13950875 7.82055134 0 4 C0 2.68 0 1.36 0 0 Z " fill="#8BAB59" transform="translate(159,177)"/>
<path d="M0 0 C0.66 1.32 1.32 2.64 2 4 C1.278125 3.814375 0.55625 3.62875 -0.1875 3.4375 C-3.12826973 2.98004693 -5.14103058 3.26483643 -8 4 C-7.34 3.67 -6.68 3.34 -6 3 C-6 2.34 -6 1.68 -6 1 C-4 0 -4 0 0 0 Z " fill="#19171D" transform="translate(440,286)"/>
<path d="M0 0 C0.33 0 0.66 0 1 0 C1.33 1.65 1.66 3.3 2 5 C2.66 5 3.32 5 4 5 C3.67 6.65 3.34 8.3 3 10 C2.01 9.67 1.02 9.34 0 9 C-0.87890625 2.84765625 -0.87890625 2.84765625 -1 1 C-0.67 0.67 -0.34 0.34 0 0 Z " fill="#010414" transform="translate(403,264)"/>
<path d="M0 0 C0.66 0 1.32 0 2 0 C2.33 2.97 2.66 5.94 3 9 C0.9375 7.3125 0.9375 7.3125 -1 5 C-0.75 2.25 -0.75 2.25 0 0 Z " fill="#79A555" transform="translate(182,193)"/>
<path d="M0 0 C1.20272819 2.40545638 1.10071472 3.94996953 1.0625 6.625 C1.05347656 7.44226563 1.04445312 8.25953125 1.03515625 9.1015625 C1.02355469 9.72804687 1.01195312 10.35453125 1 11 C0.01 11 -0.98 11 -2 11 C-1.85957123 9.35369672 -1.71250671 7.70795821 -1.5625 6.0625 C-1.48128906 5.14597656 -1.40007812 4.22945312 -1.31640625 3.28515625 C-1 1 -1 1 0 0 Z " fill="#1A603D" transform="translate(189,178)"/>
<path d="M0 0 C1.32 0 2.64 0 4 0 C4 1.98 4 3.96 4 6 C2.68 5.67 1.36 5.34 0 5 C0 3.35 0 1.7 0 0 Z " fill="#070D27" transform="translate(240,284)"/>
<path d="M0 0 C0.99 0.33 1.98 0.66 3 1 C3 2.65 3 4.3 3 6 C1.68 5.67 0.36 5.34 -1 5 C-0.67 3.35 -0.34 1.7 0 0 Z " fill="#0A1329" transform="translate(226,284)"/>
<path d="M0 0 C0.66 1.32 1.32 2.64 2 4 C1.01 4.495 1.01 4.495 0 5 C-0.33 5.66 -0.66 6.32 -1 7 C-2.65 5.68 -4.3 4.36 -6 3 C-4.02 3 -2.04 3 0 3 C0 2.01 0 1.02 0 0 Z " fill="#87B24B" transform="translate(181,190)"/>
<path d="M0 0 C0.598125 0.20625 1.19625 0.4125 1.8125 0.625 C1.1525 0.625 0.4925 0.625 -0.1875 0.625 C-0.1875 1.285 -0.1875 1.945 -0.1875 2.625 C-1.1775 2.955 -2.1675 3.285 -3.1875 3.625 C-4.39632096 5.62516466 -4.39632096 5.62516466 -5.1875 7.625 C-5.375 4.75 -5.375 4.75 -5.1875 1.625 C-2.1875 -0.375 -2.1875 -0.375 0 0 Z " fill="#1D0F0A" transform="translate(430.1875,275.375)"/>
<path d="M0 0 C0.99 0 1.98 0 3 0 C2.67 1.98 2.34 3.96 2 6 C1.01 6 0.02 6 -1 6 C-0.67 4.02 -0.34 2.04 0 0 Z " fill="#0B1229" transform="translate(335,264)"/>
<path d="M0 0 C0.99 0.33 1.98 0.66 3 1 C4.1875 4.0625 4.1875 4.0625 5 7 C2.525 6.01 2.525 6.01 0 5 C0 3.35 0 1.7 0 0 Z " fill="#185238" transform="translate(213,151)"/>
<path d="M0 0 C0.99 0 1.98 0 3 0 C3.33 1.98 3.66 3.96 4 6 C2.68 6 1.36 6 0 6 C0 4.02 0 2.04 0 0 Z " fill="#3F3227" transform="translate(298,264)"/>
</svg>
